<?xml version="1.0" encoding="utf-8"?>
<!-- Generator: Adobe Illustrator 22.1.0, SVG Export Plug-In . SVG Version: 6.00 Build 0)  -->
<svg version="1.1" id="Layer_1" xmlns="http://www.w3.org/2000/svg" xmlns:xlink="http://www.w3.org/1999/xlink" x="0px" y="0px"
	 viewBox="0 0 178.6 249.4" style="enable-background:new 0 0 178.6 249.4;" xml:space="preserve">
<style type="text/css">
	.st0{fill:#EAD598;}
</style>
<g>
	<g>
		<path class="st0" d="M14.2,0C14.2,0,0,0,0,14.2v221.1c0,0,0,14.2,14.2,14.2h150.2c0,0,14.2,0,14.2-14.2V14.2c0,0,0-14.2-14.2-14.2
			H14.2z"/>
		<g>
			<path d="M27.6,12.8c5.1-0.3,10.3-0.4,15.4-0.6l15.4,0h30.8h30.8h15.4c5.1,0.2,10.3,0.4,15.4,0.6c-5.1,0.2-10.3,0.4-15.4,0.6
				h-15.4H89.3H58.5l-15.4,0C37.9,13.2,32.8,13,27.6,12.8"/>
		</g>
		<polygon points="27.6,236.7 43.1,236.4 58.5,236.2 89.3,236.1 120.1,236.2 135.5,236.4 150.9,236.7 135.5,237 120.1,237.1 
			89.3,237.3 58.5,237.1 43.1,237 		"/>
		<g>
			<path d="M12.8,27.3c0.3,8.1,0.4,16.3,0.6,24.4l0,24.4v48.8v48.8v24.4l-0.6,24.4l-0.6-24.4v-24.4v-48.8V76.1l0-24.4
				C12.4,43.6,12.5,35.4,12.8,27.3"/>
			<path d="M165.8,27.3c0.3,8.1,0.4,16.3,0.6,24.4l0,24.4v48.8v48.8v24.4l-0.6,24.4l-0.6-24.4v-24.4v-48.8V76.1l0-24.4
				C165.4,43.6,165.5,35.4,165.8,27.3"/>
			<path d="M23.5,11.1c-0.3-0.9-0.9-1.6-1.6-2c-2-1.2-5.4-0.5-6,2c-0.3,1.5,0.2,2.4,0.2,2.4s-0.5-0.4-0.6-0.8c-0.2-0.4-0.4-1-0.4-1
				s0,0.7,0.3,1.2c0.3,0.6,1.1,1.2,1.3,1.2c-0.1-0.1-0.3-0.4-0.4-0.9c-0.1-0.5-0.2-1.6,0.5-2.5c0.6-0.9,2-1.8,3.5-1.4
				c1.5,0.4,2.2,1.7,2.2,2.8s-0.1,2-1.5,3.8c-1.1,1.5-1.5,1.5-1.5,3.1l0,0c-0.2,0.1-0.3,0.2-0.4,0.4l0,0c-1.6,0-1.6,0.4-3.1,1.5
				c-1.8,1.3-2.7,1.5-3.8,1.5s-2.4-0.7-2.8-2.2s0.5-2.9,1.4-3.5c0.9-0.6,2-0.5,2.5-0.5c0.5,0.1,0.8,0.3,0.9,0.4c0-0.1-0.7-1-1.2-1.3
				c-0.6-0.3-1.2-0.3-1.2-0.3s0.7,0.2,1,0.4c0.4,0.2,0.8,0.6,0.8,0.6s-0.9-0.5-2.4-0.2c-2.4,0.5-3.2,3.9-2,6c0.4,0.8,1.2,1.3,2,1.6
				c0.8,0.3,1.5,0.4,2.4,0.1c1-0.3,1.8-0.9,2.6-1.5c0.7-0.6,1.6-1.8,2.9-1.8l0,0c0.1,0.3,0.4,0.5,0.8,0.5c0.5,0,0.9-0.4,0.9-0.9
				c0-0.4-0.2-0.7-0.5-0.8c0-1.3,1.3-2.2,1.8-2.9c0.6-0.8,1.2-1.6,1.5-2.6C23.9,12.6,23.8,11.9,23.5,11.1 M21.1,19.9
				c0,0.2,0,0.3-0.1,0.4l6.1,0.3v-1.4L21,19.5C21,19.6,21.1,19.7,21.1,19.9 M27.4,20.7v-1.5l1.6-0.5l0.8,0.7l0.5-0.6
				c0.2-0.2,0.4-0.1,0.5,0.2l0.1,0.4l0.5-0.5l1.3,0.2l-0.9,0.7c0,0,0,0.2,0,0.2l0.9,0.7l-1.3,0.2L31,20.4l-0.1,0.4
				c-0.1,0.3-0.3,0.5-0.5,0.2l-0.5-0.6L29,21.2L27.4,20.7z M34,19.2h-0.7c0,0-1,0.8-1,0.8s1,0.7,1,0.8H34l1.1-0.8L34,19.2z
				 M33.5,21.4l2.1-1.4c0,0,0-0.1,0-0.1c0,0,0-0.1,0-0.1l-2.1-1.4c-0.1-0.1,0-0.3,0-0.3c0.8,0.2,2.2,0.7,3.3,1.7
				c-1.1,1.1-2.5,1.5-3.3,1.7C33.5,21.7,33.4,21.5,33.5,21.4 M19.9,21.1c0.2,0,0.3,0,0.4-0.1l0.3,6.1h-1.4l0.3-6.1
				C19.6,21,19.8,21.1,19.9,21.1 M20.7,27.4h-1.5L18.6,29l0.7,0.8l-0.6,0.5c-0.2,0.2-0.1,0.4,0.2,0.5l0.4,0.1l-0.5,0.5l0.2,1.3
				l0.7-0.9c0,0,0.2,0,0.2,0l0.7,0.9l0.2-1.3L20.4,31l0.4-0.1c0.3-0.1,0.5-0.3,0.2-0.5l-0.6-0.5l0.7-0.8L20.7,27.4z M19.2,34v-0.7
				c0,0,0.8-1,0.8-1s0.7,1,0.8,1V34l-0.8,1.1L19.2,34z M21.4,33.5L20,35.6c0,0-0.1,0-0.1,0c0,0-0.1,0-0.1,0l-1.4-2.1
				c-0.1-0.1-0.3,0-0.3,0c0.2,0.8,0.7,2.2,1.7,3.3c1.1-1.1,1.5-2.5,1.7-3.3C21.7,33.5,21.5,33.4,21.4,33.5"/>
			<path d="M23.5,238.3c-0.3,0.9-0.9,1.6-1.6,2.1c-2,1.2-5.4,0.5-6-2c-0.3-1.5,0.2-2.4,0.2-2.4s-0.5,0.4-0.6,0.8
				c-0.2,0.4-0.4,1-0.4,1s0-0.7,0.3-1.2c0.3-0.6,1.1-1.2,1.3-1.2c-0.1,0.1-0.3,0.4-0.4,0.9c-0.1,0.5-0.2,1.6,0.5,2.5
				c0.6,0.9,2,1.8,3.5,1.4s2.2-1.7,2.2-2.8s-0.1-2-1.5-3.8c-1.1-1.5-1.5-1.5-1.5-3.1l0,0c-0.2-0.1-0.3-0.2-0.4-0.4l0,0
				c-1.6,0-1.6-0.4-3.1-1.5c-1.8-1.3-2.7-1.5-3.8-1.5c-1.1,0-2.4,0.7-2.8,2.2s0.5,2.9,1.4,3.5c0.9,0.6,2,0.5,2.5,0.5
				c0.5-0.1,0.8-0.3,0.9-0.4c0,0.1-0.7,1-1.2,1.3c-0.6,0.3-1.2,0.3-1.2,0.3s0.7-0.2,1-0.4c0.4-0.2,0.8-0.6,0.8-0.6s-0.9,0.5-2.4,0.2
				c-2.4-0.5-3.2-3.9-2-6c0.4-0.8,1.2-1.3,2-1.6c0.8-0.3,1.5-0.4,2.4-0.1c1,0.3,1.8,0.9,2.6,1.5c0.7,0.6,1.6,1.8,2.9,1.8l0,0
				c0.1-0.3,0.4-0.5,0.8-0.5c0.5,0,0.9,0.4,0.9,0.9c0,0.4-0.2,0.7-0.5,0.8c0,1.3,1.3,2.2,1.8,2.9c0.6,0.8,1.2,1.6,1.5,2.6
				C23.9,236.9,23.8,237.5,23.5,238.3 M21.1,229.5c0-0.2,0-0.3-0.1-0.4l6.1-0.3v1.4L21,230C21,229.9,21.1,229.7,21.1,229.5
				 M27.4,228.8v1.5l1.6,0.5l0.8-0.7l0.5,0.6c0.2,0.2,0.4,0.1,0.5-0.2l0.1-0.4l0.5,0.5l1.3-0.2l-0.9-0.7c0,0,0-0.2,0-0.2l0.9-0.7
				l-1.3-0.2L31,229l-0.1-0.4c-0.1-0.3-0.3-0.5-0.5-0.2l-0.5,0.6l-0.8-0.7L27.4,228.8z M34,230.3h-0.7c0,0-1-0.8-1-0.8s1-0.7,1-0.8
				H34l1.1,0.8L34,230.3z M33.5,228.1l2.1,1.4c0,0,0,0.1,0,0.1c0,0,0,0.1,0,0.1l-2.1,1.4c-0.1,0.1,0,0.3,0,0.3
				c0.8-0.2,2.2-0.7,3.3-1.7c-1.1-1.1-2.5-1.5-3.3-1.7C33.5,227.8,33.4,228,33.5,228.1 M19.9,228.4c0.2,0,0.3,0,0.4,0.1l0.3-6.1
				h-1.4l0.3,6.1C19.6,228.4,19.8,228.4,19.9,228.4 M20.7,222h-1.5l-0.5-1.6l0.7-0.8l-0.6-0.5c-0.2-0.2-0.1-0.4,0.2-0.5l0.4-0.1
				l-0.5-0.5l0.2-1.3l0.7,0.9c0,0,0.2,0,0.2,0l0.7-0.9L21,218l-0.5,0.5l0.4,0.1c0.3,0.1,0.5,0.3,0.2,0.5l-0.6,0.5l0.7,0.8L20.7,222z
				 M19.2,215.5v0.7c0,0,0.8,1,0.8,1s0.7-1,0.8-1v-0.7l-0.8-1.1L19.2,215.5z M21.4,215.9l-1.4-2.1c0,0-0.1,0-0.1,0c0,0-0.1,0-0.1,0
				l-1.4,2.1c-0.1,0.1-0.3,0.1-0.3,0c0.2-0.8,0.7-2.2,1.7-3.3c1.1,1.1,1.5,2.5,1.7,3.3C21.7,216,21.5,216,21.4,215.9"/>
			<path d="M155.1,11.1c0.3-0.9,0.9-1.6,1.6-2c2-1.2,5.4-0.5,6,2c0.3,1.5-0.2,2.4-0.2,2.4s0.5-0.4,0.6-0.8c0.2-0.4,0.4-1,0.4-1
				s0,0.7-0.3,1.2c-0.3,0.6-1.1,1.2-1.3,1.2c0.1-0.1,0.3-0.4,0.4-0.9c0.1-0.5,0.2-1.6-0.5-2.5c-0.6-0.9-2-1.8-3.5-1.4
				c-1.5,0.4-2.2,1.7-2.2,2.8c0,1.1,0.1,2,1.5,3.8c1.1,1.5,1.5,1.5,1.5,3.1l0,0c0.2,0.1,0.3,0.2,0.4,0.4l0,0c1.6,0,1.6,0.4,3.1,1.5
				c1.8,1.3,2.7,1.5,3.8,1.5c1.1,0,2.4-0.7,2.8-2.2c0.4-1.5-0.5-2.9-1.4-3.5c-0.9-0.6-2-0.5-2.5-0.5c-0.5,0.1-0.8,0.3-0.9,0.4
				c0-0.1,0.7-1,1.2-1.3c0.6-0.3,1.2-0.3,1.2-0.3s-0.7,0.2-1,0.4c-0.4,0.2-0.8,0.6-0.8,0.6s0.9-0.5,2.4-0.2c2.4,0.5,3.2,3.9,2,6
				c-0.4,0.8-1.2,1.3-2,1.6c-0.8,0.3-1.5,0.4-2.4,0.1c-1-0.3-1.8-0.9-2.6-1.5c-0.7-0.6-1.6-1.8-2.9-1.8l0,0
				c-0.1,0.3-0.4,0.5-0.8,0.5c-0.5,0-0.9-0.4-0.9-0.9c0-0.4,0.2-0.7,0.5-0.8c0-1.3-1.3-2.2-1.8-2.9c-0.6-0.8-1.2-1.6-1.5-2.6
				C154.7,12.6,154.8,11.9,155.1,11.1 M157.5,19.9c0,0.2,0,0.3,0.1,0.4l-6.1,0.3v-1.4l6.1,0.3C157.6,19.6,157.5,19.7,157.5,19.9
				 M151.2,20.7v-1.5l-1.6-0.5l-0.8,0.7l-0.5-0.6c-0.2-0.2-0.4-0.1-0.5,0.2l-0.1,0.4l-0.5-0.5l-1.3,0.2l0.9,0.7c0,0,0,0.2,0,0.2
				l-0.9,0.7l1.3,0.2l0.5-0.5l0.1,0.4c0.1,0.3,0.3,0.5,0.5,0.2l0.5-0.6l0.8,0.7L151.2,20.7z M144.6,19.2h0.7c0,0,1,0.8,1,0.8
				s-1,0.7-1,0.8h-0.7l-1.1-0.8L144.6,19.2z M145.1,21.4L143,20c0,0,0-0.1,0-0.1c0,0,0-0.1,0-0.1l2.1-1.4c0.1-0.1,0.1-0.3-0.1-0.3
				c-0.8,0.2-2.2,0.7-3.3,1.7c1.1,1.1,2.5,1.5,3.3,1.7C145.1,21.7,145.2,21.5,145.1,21.4 M158.7,21.1c-0.2,0-0.3,0-0.4-0.1l-0.3,6.1
				h1.4l-0.3-6.1C159,21,158.8,21.1,158.7,21.1 M157.9,27.4h1.5l0.5,1.6l-0.7,0.8l0.6,0.5c0.2,0.2,0.1,0.4-0.2,0.5l-0.4,0.1l0.5,0.5
				l-0.2,1.3l-0.7-0.9c0,0-0.2,0-0.2,0l-0.7,0.9l-0.2-1.3l0.5-0.5l-0.4-0.1c-0.3-0.1-0.5-0.3-0.2-0.5l0.6-0.5l-0.7-0.8L157.9,27.4z
				 M159.4,34v-0.7c0,0-0.8-1-0.8-1s-0.7,1-0.8,1V34l0.8,1.1L159.4,34z M157.2,33.5l1.4,2.1c0,0,0.1,0,0.1,0c0,0,0.1,0,0.1,0
				l1.4-2.1c0.1-0.1,0.3,0,0.3,0c-0.2,0.8-0.7,2.2-1.7,3.3c-1.1-1.1-1.5-2.5-1.7-3.3C156.9,33.5,157.1,33.4,157.2,33.5"/>
			<path d="M155.1,238.3c0.3,0.9,0.9,1.6,1.6,2.1c2,1.2,5.4,0.5,6-2c0.3-1.5-0.2-2.4-0.2-2.4s0.5,0.4,0.6,0.8c0.2,0.4,0.4,1,0.4,1
				s0-0.7-0.3-1.2c-0.3-0.6-1.1-1.2-1.3-1.2c0.1,0.1,0.3,0.4,0.4,0.9c0.1,0.5,0.2,1.6-0.5,2.5c-0.6,0.9-2,1.8-3.5,1.4
				c-1.5-0.4-2.2-1.7-2.2-2.8c0-1.1,0.1-2,1.5-3.8c1.1-1.5,1.5-1.5,1.5-3.1l0,0c0.2-0.1,0.3-0.2,0.4-0.4l0,0c1.6,0,1.6-0.4,3.1-1.5
				c1.8-1.3,2.7-1.5,3.8-1.5c1.1,0,2.4,0.7,2.8,2.2c0.4,1.5-0.5,2.9-1.4,3.5c-0.9,0.6-2,0.5-2.5,0.5c-0.5-0.1-0.8-0.3-0.9-0.4
				c0,0.1,0.7,1,1.2,1.3c0.6,0.3,1.2,0.3,1.2,0.3s-0.7-0.2-1-0.4c-0.4-0.2-0.8-0.6-0.8-0.6s0.9,0.5,2.4,0.2c2.4-0.5,3.2-3.9,2-6
				c-0.4-0.8-1.2-1.3-2-1.6c-0.8-0.3-1.5-0.4-2.4-0.1c-1,0.3-1.8,0.9-2.6,1.5c-0.7,0.6-1.6,1.8-2.9,1.8l0,0
				c-0.1-0.3-0.4-0.5-0.8-0.5c-0.5,0-0.9,0.4-0.9,0.9c0,0.4,0.2,0.7,0.5,0.8c0,1.3-1.3,2.2-1.8,2.9c-0.6,0.8-1.2,1.6-1.5,2.6
				C154.7,236.9,154.8,237.5,155.1,238.3 M157.5,229.5c0-0.2,0-0.3,0.1-0.4l-6.1-0.3v1.4l6.1-0.3
				C157.6,229.9,157.5,229.7,157.5,229.5 M151.2,228.8v1.5l-1.6,0.5l-0.8-0.7l-0.5,0.6c-0.2,0.2-0.4,0.1-0.5-0.2l-0.1-0.4l-0.5,0.5
				l-1.3-0.2l0.9-0.7c0,0,0-0.2,0-0.2l-0.9-0.7l1.3-0.2l0.5,0.5l0.1-0.4c0.1-0.3,0.3-0.5,0.5-0.2l0.5,0.6l0.8-0.7L151.2,228.8z
				 M144.6,230.3h0.7c0,0,1-0.8,1-0.8s-1-0.7-1-0.8h-0.7l-1.1,0.8L144.6,230.3z M145.1,228.1l-2.1,1.4c0,0,0,0.1,0,0.1
				c0,0,0,0.1,0,0.1l2.1,1.4c0.1,0.1,0.1,0.3-0.1,0.3c-0.8-0.2-2.2-0.7-3.3-1.7c1.1-1.1,2.5-1.5,3.3-1.7
				C145.1,227.8,145.2,228,145.1,228.1 M158.7,228.4c-0.2,0-0.3,0-0.4,0.1l-0.3-6.1h1.4l-0.3,6.1C159,228.4,158.8,228.4,158.7,228.4
				 M157.9,222h1.5l0.5-1.6l-0.7-0.8l0.6-0.5c0.2-0.2,0.1-0.4-0.2-0.5l-0.4-0.1l0.5-0.5l-0.2-1.3l-0.7,0.9c0,0-0.2,0-0.2,0l-0.7-0.9
				l-0.2,1.3l0.5,0.5l-0.4,0.1c-0.3,0.1-0.5,0.3-0.2,0.5l0.6,0.5l-0.7,0.8L157.9,222z M159.4,215.5v0.7c0,0-0.8,1-0.8,1
				s-0.7-1-0.8-1v-0.7l0.8-1.1L159.4,215.5z M157.2,215.9l1.4-2.1c0,0,0.1,0,0.1,0c0,0,0.1,0,0.1,0l1.4,2.1c0.1,0.1,0.3,0.1,0.3,0
				c-0.2-0.8-0.7-2.2-1.7-3.3c-1.1,1.1-1.5,2.5-1.7,3.3C156.9,216,157.1,216,157.2,215.9"/>
		</g>
	</g>
</g>
</svg>
