<?xml version="1.0" encoding="utf-8"?>
<!-- Generator: Adobe Illustrator 15.0.1, SVG Export Plug-In . SVG Version: 6.00 Build 0)  -->
<!DOCTYPE svg PUBLIC "-//W3C//DTD SVG 1.1//EN" "http://www.w3.org/Graphics/SVG/1.1/DTD/svg11.dtd">
<svg version="1.1" id="Layer_1" xmlns="http://www.w3.org/2000/svg" xmlns:xlink="http://www.w3.org/1999/xlink" x="0px" y="0px"
	 width="178.583px" height="249.449px" viewBox="0 0 178.583 249.449" enable-background="new 0 0 178.583 249.449"
	 xml:space="preserve">
<g>
	<g>
		<path fill="#EAD598" d="M14.173,0C14.173,0,0,0,0,14.173v221.103c0,0,0,14.173,14.173,14.173h150.236c0,0,14.173,0,14.173-14.173
			V14.173c0,0,0-14.173-14.173-14.173H14.173z"/>
		<g>
			<path d="M27.638,12.794c5.138-0.252,10.276-0.406,15.413-0.605l15.414,0.005h30.827h30.826h15.413
				c5.139,0.202,10.275,0.357,15.413,0.6c-5.138,0.243-10.274,0.398-15.413,0.6h-15.413H89.292H58.465l-15.414,0.004
				C37.914,13.2,32.776,13.046,27.638,12.794"/>
		</g>
		<polygon points="27.638,236.66 43.051,236.368 58.465,236.201 89.292,236.061 120.118,236.198 135.531,236.366 150.944,236.66 
			135.531,236.954 120.118,237.122 89.292,237.261 58.465,237.119 43.051,236.952 		"/>
		<g>
			<path d="M12.791,27.284c0.251,8.135,0.409,16.269,0.602,24.405l-0.002,24.404v48.809v48.809v24.405l-0.6,24.403l-0.6-24.403
				v-24.405v-48.809V76.093l-0.002-24.404C12.382,43.553,12.54,35.419,12.791,27.284"/>
			<path d="M165.791,27.284c0.251,8.135,0.408,16.269,0.604,24.405l-0.003,24.404v48.809v48.809v24.405l-0.601,24.403l-0.6-24.403
				v-24.405v-48.809V76.093l-0.003-24.404C165.383,43.553,165.54,35.419,165.791,27.284"/>
			<path d="M23.502,11.118c-0.286-0.892-0.863-1.6-1.627-2.049c-2.048-1.207-5.43-0.452-5.967,1.998
				c-0.32,1.461,0.201,2.408,0.201,2.408s-0.463-0.407-0.65-0.769c-0.187-0.363-0.405-1.033-0.405-1.033s0.027,0.655,0.3,1.245
				c0.272,0.591,1.15,1.212,1.295,1.247c-0.066-0.125-0.282-0.369-0.351-0.888c-0.068-0.519-0.165-1.585,0.467-2.49
				c0.631-0.905,1.985-1.804,3.499-1.395c1.514,0.409,2.205,1.692,2.222,2.83s-0.116,2.032-1.453,3.801
				c-1.112,1.471-1.537,1.503-1.545,3.084l0.021,0.014c-0.163,0.09-0.302,0.214-0.384,0.382l-0.018-0.026
				c-1.581,0.007-1.613,0.433-3.084,1.545c-1.769,1.337-2.663,1.47-3.801,1.453c-1.138-0.017-2.421-0.708-2.83-2.222
				c-0.409-1.514,0.49-2.868,1.395-3.499c0.905-0.632,1.971-0.535,2.49-0.467c0.518,0.069,0.763,0.285,0.888,0.351
				c-0.035-0.145-0.656-1.023-1.247-1.295c-0.59-0.273-1.245-0.3-1.245-0.3s0.67,0.218,1.033,0.405
				c0.362,0.187,0.769,0.65,0.769,0.65s-0.947-0.521-2.408-0.201c-2.45,0.537-3.205,3.919-1.998,5.967
				c0.449,0.764,1.157,1.341,2.049,1.627c0.795,0.255,1.475,0.353,2.443,0.098c0.967-0.255,1.839-0.884,2.603-1.487
				c0.726-0.573,1.613-1.813,2.942-1.827l0.011-0.021c0.141,0.302,0.442,0.514,0.797,0.514c0.488,0,0.883-0.396,0.883-0.883
				c0-0.353-0.21-0.653-0.509-0.794c0.024-1.321,1.255-2.204,1.825-2.927c0.603-0.764,1.232-1.636,1.487-2.603
				C23.855,12.593,23.757,11.913,23.502,11.118 M21.062,19.903c0,0.157-0.032,0.307-0.088,0.444l6.142,0.262v-1.413l-6.142,0.262
				C21.03,19.595,21.062,19.745,21.062,19.903 M27.426,20.656v-1.489l1.587-0.541l0.832,0.702l0.496-0.591
				c0.18-0.215,0.438-0.095,0.519,0.241l0.102,0.421l0.503-0.516l1.32,0.246l-0.932,0.689c-0.046,0.035-0.046,0.157,0,0.192
				l0.932,0.689l-1.32,0.246l-0.503-0.516L30.86,20.85c-0.081,0.336-0.339,0.455-0.519,0.241L29.845,20.5l-0.832,0.702
				L27.426,20.656z M33.961,19.152h-0.654c-0.039,0.047-1.014,0.762-1.014,0.762s0.971,0.723,1.012,0.761h0.656l1.129-0.761
				L33.961,19.152z M33.509,21.386l2.083-1.375c0.024-0.017,0.04-0.054,0.04-0.097c0-0.042-0.016-0.08-0.04-0.097l-2.083-1.376
				c-0.091-0.066-0.05-0.286,0.049-0.261c0.783,0.195,2.228,0.676,3.293,1.734c-1.065,1.058-2.51,1.539-3.293,1.734
				C33.459,21.673,33.418,21.453,33.509,21.386 M19.914,21.063c0.157,0,0.307-0.033,0.445-0.089l0.262,6.142h-1.414l0.262-6.142
				C19.606,21.03,19.756,21.063,19.914,21.063 M20.667,27.426h-1.489l-0.541,1.587l0.702,0.832l-0.591,0.496
				c-0.215,0.18-0.095,0.438,0.241,0.519l0.421,0.102l-0.516,0.503l0.246,1.32l0.689-0.931c0.036-0.047,0.157-0.047,0.192,0
				l0.689,0.931l0.246-1.32l-0.516-0.503l0.421-0.102c0.336-0.081,0.455-0.339,0.241-0.519l-0.591-0.496l0.702-0.832L20.667,27.426z
				 M19.163,33.961v-0.654c0.047-0.039,0.762-1.014,0.762-1.014s0.723,0.971,0.761,1.012v0.656l-0.761,1.129L19.163,33.961z
				 M21.397,33.509l-1.375,2.083c-0.017,0.024-0.054,0.04-0.097,0.04c-0.042,0-0.08-0.016-0.097-0.04l-1.376-2.083
				c-0.066-0.091-0.286-0.05-0.26,0.049c0.194,0.783,0.675,2.228,1.733,3.293c1.058-1.065,1.539-2.51,1.734-3.293
				C21.684,33.459,21.464,33.418,21.397,33.509"/>
			<path d="M23.502,238.331c-0.286,0.893-0.863,1.601-1.627,2.05c-2.048,1.207-5.43,0.451-5.967-1.998
				c-0.32-1.461,0.201-2.408,0.201-2.408s-0.463,0.407-0.65,0.769c-0.187,0.363-0.405,1.033-0.405,1.033s0.027-0.655,0.3-1.245
				c0.272-0.591,1.15-1.212,1.295-1.247c-0.066,0.125-0.282,0.369-0.351,0.889c-0.068,0.519-0.165,1.585,0.467,2.489
				c0.631,0.905,1.985,1.805,3.499,1.396c1.514-0.409,2.205-1.692,2.222-2.83s-0.116-2.032-1.453-3.801
				c-1.112-1.472-1.537-1.503-1.545-3.084l0.021-0.015c-0.163-0.09-0.302-0.214-0.384-0.382l-0.018,0.026
				c-1.581-0.007-1.613-0.434-3.084-1.545c-1.769-1.337-2.663-1.471-3.801-1.453c-1.138,0.017-2.421,0.708-2.83,2.222
				c-0.409,1.514,0.49,2.868,1.395,3.499c0.905,0.632,1.971,0.535,2.49,0.467c0.518-0.068,0.763-0.285,0.888-0.351
				c-0.035,0.145-0.656,1.022-1.247,1.295c-0.59,0.273-1.245,0.3-1.245,0.3s0.67-0.218,1.033-0.405
				c0.362-0.187,0.769-0.649,0.769-0.649s-0.947,0.521-2.408,0.201c-2.45-0.537-3.205-3.919-1.998-5.968
				c0.449-0.764,1.157-1.341,2.049-1.627c0.795-0.255,1.475-0.353,2.443-0.098c0.967,0.255,1.839,0.884,2.603,1.487
				c0.726,0.573,1.613,1.813,2.942,1.827l0.011,0.021c0.141-0.302,0.442-0.514,0.797-0.514c0.488,0,0.883,0.396,0.883,0.883
				c0,0.353-0.21,0.653-0.509,0.794c0.024,1.321,1.255,2.204,1.825,2.927c0.603,0.765,1.232,1.637,1.487,2.604
				C23.855,236.856,23.757,237.536,23.502,238.331 M21.062,229.547c0-0.157-0.032-0.308-0.088-0.444l6.142-0.262v1.413l-6.142-0.263
				C21.03,229.854,21.062,229.704,21.062,229.547 M27.426,228.793v1.489l1.587,0.541l0.832-0.702l0.496,0.592
				c0.18,0.215,0.438,0.095,0.519-0.241l0.102-0.421l0.503,0.516l1.32-0.246l-0.932-0.688c-0.046-0.035-0.046-0.157,0-0.192
				l0.932-0.689l-1.32-0.245l-0.503,0.516L30.86,228.6c-0.081-0.336-0.339-0.455-0.519-0.241l-0.496,0.591l-0.832-0.702
				L27.426,228.793z M33.961,230.298h-0.654c-0.039-0.048-1.014-0.763-1.014-0.763s0.971-0.723,1.012-0.761h0.656l1.129,0.761
				L33.961,230.298z M33.509,228.063l2.083,1.375c0.024,0.017,0.04,0.054,0.04,0.097c0,0.042-0.016,0.08-0.04,0.098l-2.083,1.376
				c-0.091,0.065-0.05,0.285,0.049,0.261c0.783-0.195,2.228-0.676,3.293-1.734c-1.065-1.058-2.51-1.539-3.293-1.733
				C33.459,227.776,33.418,227.996,33.509,228.063 M19.914,228.387c0.157,0,0.307,0.032,0.445,0.089l0.262-6.143h-1.414l0.262,6.143
				C19.606,228.419,19.756,228.387,19.914,228.387 M20.667,222.023h-1.489l-0.541-1.587l0.702-0.832l-0.591-0.496
				c-0.215-0.18-0.095-0.438,0.241-0.519l0.421-0.103l-0.516-0.503l0.246-1.32l0.689,0.932c0.036,0.047,0.157,0.047,0.192,0
				l0.689-0.932l0.246,1.32l-0.516,0.503l0.421,0.103c0.336,0.081,0.455,0.339,0.241,0.519l-0.591,0.496l0.702,0.832L20.667,222.023
				z M19.163,215.488v0.654c0.047,0.039,0.762,1.014,0.762,1.014s0.723-0.971,0.761-1.012v-0.656l-0.761-1.129L19.163,215.488z
				 M21.397,215.94l-1.375-2.083c-0.017-0.024-0.054-0.04-0.097-0.04c-0.042,0-0.08,0.016-0.097,0.04l-1.376,2.083
				c-0.066,0.091-0.286,0.05-0.26-0.049c0.194-0.783,0.675-2.229,1.733-3.293c1.058,1.064,1.539,2.51,1.734,3.293
				C21.684,215.99,21.464,216.031,21.397,215.94"/>
			<path d="M155.081,11.118c0.286-0.892,0.862-1.6,1.627-2.049c2.048-1.207,5.43-0.452,5.967,1.998
				c0.32,1.461-0.201,2.408-0.201,2.408s0.463-0.407,0.65-0.769c0.187-0.363,0.404-1.033,0.404-1.033s-0.026,0.655-0.3,1.245
				c-0.271,0.591-1.149,1.212-1.295,1.247c0.066-0.125,0.282-0.369,0.352-0.888c0.067-0.519,0.165-1.585-0.468-2.49
				c-0.631-0.905-1.984-1.804-3.499-1.395c-1.514,0.409-2.204,1.692-2.222,2.83c-0.017,1.138,0.116,2.032,1.453,3.801
				c1.112,1.471,1.537,1.503,1.545,3.084l-0.021,0.014c0.162,0.09,0.302,0.214,0.384,0.382l0.018-0.026
				c1.581,0.007,1.613,0.433,3.084,1.545c1.77,1.337,2.663,1.47,3.801,1.453c1.139-0.017,2.422-0.708,2.83-2.222
				c0.409-1.514-0.489-2.868-1.395-3.499c-0.905-0.632-1.971-0.535-2.49-0.467c-0.518,0.069-0.763,0.285-0.888,0.351
				c0.035-0.145,0.656-1.023,1.247-1.295c0.59-0.273,1.245-0.3,1.245-0.3s-0.67,0.218-1.033,0.405c-0.362,0.187-0.77,0.65-0.77,0.65
				s0.947-0.521,2.408-0.201c2.45,0.537,3.205,3.919,1.998,5.967c-0.449,0.764-1.157,1.341-2.049,1.627
				c-0.795,0.255-1.475,0.353-2.443,0.098c-0.967-0.255-1.839-0.884-2.603-1.487c-0.727-0.573-1.613-1.813-2.942-1.827l-0.011-0.021
				c-0.141,0.302-0.442,0.514-0.797,0.514c-0.488,0-0.883-0.396-0.883-0.883c0-0.353,0.21-0.653,0.509-0.794
				c-0.024-1.321-1.255-2.204-1.825-2.927c-0.603-0.764-1.231-1.636-1.487-2.603C154.728,12.593,154.826,11.913,155.081,11.118
				 M157.521,19.903c0,0.157,0.032,0.307,0.088,0.444l-6.142,0.262v-1.413l6.142,0.262
				C157.553,19.595,157.521,19.745,157.521,19.903 M151.157,20.656v-1.489l-1.588-0.541l-0.831,0.702l-0.496-0.591
				c-0.181-0.215-0.438-0.095-0.52,0.241l-0.102,0.421l-0.503-0.516l-1.32,0.246l0.932,0.689c0.046,0.035,0.046,0.157,0,0.192
				l-0.932,0.689l1.32,0.246l0.503-0.516l0.102,0.421c0.081,0.336,0.339,0.455,0.52,0.241l0.496-0.591l0.831,0.702L151.157,20.656z
				 M144.622,19.152h0.653c0.039,0.047,1.015,0.762,1.015,0.762s-0.972,0.723-1.013,0.761h-0.655l-1.129-0.761L144.622,19.152z
				 M145.074,21.386l-2.083-1.375c-0.024-0.017-0.04-0.054-0.04-0.097c0-0.042,0.016-0.08,0.04-0.097l2.083-1.376
				c0.091-0.066,0.05-0.286-0.05-0.261c-0.782,0.195-2.228,0.676-3.293,1.734c1.065,1.058,2.511,1.539,3.293,1.734
				C145.124,21.673,145.165,21.453,145.074,21.386 M158.669,21.063c-0.157,0-0.308-0.033-0.445-0.089l-0.262,6.142h1.414
				l-0.262-6.142C158.977,21.03,158.827,21.063,158.669,21.063 M157.916,27.426h1.489l0.54,1.587l-0.701,0.832l0.591,0.496
				c0.215,0.18,0.095,0.438-0.241,0.519l-0.421,0.102l0.516,0.503l-0.246,1.32l-0.688-0.931c-0.036-0.047-0.157-0.047-0.192,0
				l-0.688,0.931l-0.246-1.32l0.516-0.503l-0.421-0.102c-0.336-0.081-0.455-0.339-0.241-0.519l0.592-0.496l-0.702-0.832
				L157.916,27.426z M159.42,33.961v-0.654c-0.047-0.039-0.762-1.014-0.762-1.014s-0.724,0.971-0.762,1.012v0.656l0.762,1.129
				L159.42,33.961z M157.186,33.509l1.375,2.083c0.018,0.024,0.055,0.04,0.098,0.04c0.042,0,0.08-0.016,0.097-0.04l1.376-2.083
				c0.066-0.091,0.286-0.05,0.26,0.049c-0.193,0.783-0.675,2.228-1.732,3.293c-1.059-1.065-1.539-2.51-1.734-3.293
				C156.898,33.459,157.119,33.418,157.186,33.509"/>
			<path d="M155.081,238.331c0.286,0.893,0.862,1.601,1.627,2.05c2.048,1.207,5.43,0.451,5.967-1.998
				c0.32-1.461-0.201-2.408-0.201-2.408s0.463,0.407,0.65,0.769c0.187,0.363,0.404,1.033,0.404,1.033s-0.026-0.655-0.3-1.245
				c-0.271-0.591-1.149-1.212-1.295-1.247c0.066,0.125,0.282,0.369,0.352,0.889c0.067,0.519,0.165,1.585-0.468,2.489
				c-0.631,0.905-1.984,1.805-3.499,1.396c-1.514-0.409-2.204-1.692-2.222-2.83c-0.017-1.138,0.116-2.032,1.453-3.801
				c1.112-1.472,1.537-1.503,1.545-3.084l-0.021-0.015c0.162-0.09,0.302-0.214,0.384-0.382l0.018,0.026
				c1.581-0.007,1.613-0.434,3.084-1.545c1.77-1.337,2.663-1.471,3.801-1.453c1.139,0.017,2.422,0.708,2.83,2.222
				c0.409,1.514-0.489,2.868-1.395,3.499c-0.905,0.632-1.971,0.535-2.49,0.467c-0.518-0.068-0.763-0.285-0.888-0.351
				c0.035,0.145,0.656,1.022,1.247,1.295c0.59,0.273,1.245,0.3,1.245,0.3s-0.67-0.218-1.033-0.405
				c-0.362-0.187-0.77-0.649-0.77-0.649s0.947,0.521,2.408,0.201c2.45-0.537,3.205-3.919,1.998-5.968
				c-0.449-0.764-1.157-1.341-2.049-1.627c-0.795-0.255-1.475-0.353-2.443-0.098c-0.967,0.255-1.839,0.884-2.603,1.487
				c-0.727,0.573-1.613,1.813-2.942,1.827l-0.011,0.021c-0.141-0.302-0.442-0.514-0.797-0.514c-0.488,0-0.883,0.396-0.883,0.883
				c0,0.353,0.21,0.653,0.509,0.794c-0.024,1.321-1.255,2.204-1.825,2.927c-0.603,0.765-1.231,1.637-1.487,2.604
				C154.728,236.856,154.826,237.536,155.081,238.331 M157.521,229.547c0-0.157,0.032-0.308,0.088-0.444l-6.142-0.262v1.413
				l6.142-0.263C157.553,229.854,157.521,229.704,157.521,229.547 M151.157,228.793v1.489l-1.588,0.541l-0.831-0.702l-0.496,0.592
				c-0.181,0.215-0.438,0.095-0.52-0.241l-0.102-0.421l-0.503,0.516l-1.32-0.246l0.932-0.688c0.046-0.035,0.046-0.157,0-0.192
				l-0.932-0.689l1.32-0.245l0.503,0.516l0.102-0.421c0.081-0.336,0.339-0.455,0.52-0.241l0.496,0.591l0.831-0.702L151.157,228.793z
				 M144.622,230.298h0.653c0.039-0.048,1.015-0.763,1.015-0.763s-0.972-0.723-1.013-0.761h-0.655l-1.129,0.761L144.622,230.298z
				 M145.074,228.063l-2.083,1.375c-0.024,0.017-0.04,0.054-0.04,0.097c0,0.042,0.016,0.08,0.04,0.098l2.083,1.376
				c0.091,0.065,0.05,0.285-0.05,0.261c-0.782-0.195-2.228-0.676-3.293-1.734c1.065-1.058,2.511-1.539,3.293-1.733
				C145.124,227.776,145.165,227.996,145.074,228.063 M158.669,228.387c-0.157,0-0.308,0.032-0.445,0.089l-0.262-6.143h1.414
				l-0.262,6.143C158.977,228.419,158.827,228.387,158.669,228.387 M157.916,222.023h1.489l0.54-1.587l-0.701-0.832l0.591-0.496
				c0.215-0.18,0.095-0.438-0.241-0.519l-0.421-0.103l0.516-0.503l-0.246-1.32l-0.688,0.932c-0.036,0.047-0.157,0.047-0.192,0
				l-0.688-0.932l-0.246,1.32l0.516,0.503l-0.421,0.103c-0.336,0.081-0.455,0.339-0.241,0.519l0.592,0.496l-0.702,0.832
				L157.916,222.023z M159.42,215.488v0.654c-0.047,0.039-0.762,1.014-0.762,1.014s-0.724-0.971-0.762-1.012v-0.656l0.762-1.129
				L159.42,215.488z M157.186,215.94l1.375-2.083c0.018-0.024,0.055-0.04,0.098-0.04c0.042,0,0.08,0.016,0.097,0.04l1.376,2.083
				c0.066,0.091,0.286,0.05,0.26-0.049c-0.193-0.783-0.675-2.229-1.732-3.293c-1.059,1.064-1.539,2.51-1.734,3.293
				C156.898,215.99,157.119,216.031,157.186,215.94"/>
		</g>
	</g>
	<path d="M130.963,133.868c-0.016,0.072-0.032,0.144-0.049,0.217c-0.17,0.753-0.359,1.498-0.568,2.236l-0.081,0.289
		c-0.23,0.785-0.477,1.563-0.747,2.327v0.016c-0.573,1.613-1.243,3.191-2.007,4.724l-0.014,0.024
		c-0.364,0.729-0.748,1.445-1.152,2.15l-0.1,0.171c-0.406,0.711-0.834,1.405-1.283,2.085l-15.034,2.37l-7.434-9.813l4.49-17.965
		l15.479-5.16l9.304,11.165C131.606,130.439,131.337,132.165,130.963,133.868 M99.439,166.163c-0.762,0.188-1.544,0.352-2.326,0.499
		c-0.11,0.021-0.221,0.039-0.331,0.06c-0.666,0.119-1.339,0.221-2.014,0.304c-0.181,0.023-0.359,0.047-0.538,0.069
		c-0.626,0.073-1.259,0.128-1.894,0.173c-0.198,0.014-0.396,0.034-0.596,0.047c-0.81,0.049-1.627,0.078-2.45,0.078
		c-0.754,0-1.503-0.02-2.248-0.059c-0.09,0-0.176-0.016-0.266-0.022c-0.663-0.038-1.323-0.087-1.982-0.15l-0.076-0.016
		c-1.442-0.156-2.877-0.385-4.297-0.685l-9.013-14.113l7.265-9.688h21.234l7.384,9.752L99.439,166.163z M53.633,148.108
		c-0.448-0.683-0.877-1.379-1.285-2.088l-0.099-0.171c-0.407-0.705-0.791-1.422-1.154-2.151l-0.012-0.022
		c-0.764-1.533-1.434-3.11-2.007-4.724v-0.016c-0.271-0.762-0.518-1.543-0.746-2.328l-0.083-0.289
		c-0.209-0.736-0.399-1.482-0.569-2.236c-0.014-0.073-0.033-0.144-0.048-0.216c-0.374-1.703-0.643-3.427-0.805-5.162l9.303-11.164
		l15.48,5.159l4.493,17.97l-7.382,9.821L53.633,148.108z M55.469,98.757c0.118-0.153,0.239-0.305,0.361-0.457
		c0.501-0.636,1.02-1.257,1.556-1.863c0.058-0.063,0.111-0.129,0.169-0.193c0.616-0.687,1.253-1.352,1.914-1.996
		c0.076-0.075,0.152-0.153,0.232-0.221c0.625-0.604,1.269-1.189,1.93-1.754l0.153-0.128c1.475-1.246,3.031-2.392,4.659-3.429
		l0.06-0.038c1.664-1.056,3.397-1.995,5.191-2.812l15.965,6.323v15.391l-15.016,12.012l-15.588-5.187l-3.168-13.467
		C54.396,100.191,54.921,99.467,55.469,98.757 M90.923,92.188l15.894-6.353c1.803,0.816,3.548,1.757,5.221,2.815l0.042,0.026
		c1.646,1.042,3.216,2.194,4.704,3.449l0.128,0.112c0.668,0.568,1.316,1.157,1.947,1.764c0.08,0.078,0.163,0.153,0.243,0.232
		c0.661,0.646,1.302,1.312,1.922,1.997c0.051,0.058,0.1,0.119,0.152,0.177c0.544,0.61,1.066,1.241,1.573,1.882
		c0.122,0.153,0.244,0.305,0.363,0.458c0.55,0.713,1.083,1.438,1.586,2.187l-3.168,13.467l-15.588,5.197l-15.016-12.014
		L90.923,92.188z M89.291,79.009c-25.248,0-45.716,20.468-45.716,45.716s20.468,45.716,45.716,45.716
		c25.248,0,45.716-20.468,45.716-45.716C134.979,99.489,114.527,79.037,89.291,79.009"/>
</g>
</svg>
