<?xml version="1.0" encoding="utf-8"?>
<!-- Generator: Adobe Illustrator 15.0.1, SVG Export Plug-In . SVG Version: 6.00 Build 0)  -->
<!DOCTYPE svg PUBLIC "-//W3C//DTD SVG 1.1//EN" "http://www.w3.org/Graphics/SVG/1.1/DTD/svg11.dtd">
<svg version="1.1" id="Layer_1" xmlns="http://www.w3.org/2000/svg" xmlns:xlink="http://www.w3.org/1999/xlink" x="0px" y="0px"
	 width="178.583px" height="249.449px" viewBox="0 0 178.583 249.449" enable-background="new 0 0 178.583 249.449"
	 xml:space="preserve">
<g>
	<g>
		<path fill="#EAD598" d="M14.173,0C14.173,0,0,0,0,14.173v221.103c0,0,0,14.173,14.173,14.173h150.236c0,0,14.173,0,14.173-14.173
			V14.173c0,0,0-14.173-14.173-14.173H14.173z"/>
		<g>
			<path d="M27.638,12.794c5.138-0.252,10.276-0.406,15.413-0.605l15.414,0.005h30.827h30.826h15.413
				c5.139,0.202,10.275,0.357,15.413,0.6c-5.138,0.243-10.274,0.398-15.413,0.6h-15.413H89.292H58.465l-15.414,0.004
				C37.914,13.2,32.776,13.046,27.638,12.794"/>
		</g>
		<polygon points="27.638,236.66 43.051,236.368 58.465,236.201 89.292,236.061 120.118,236.198 135.531,236.366 150.944,236.66 
			135.531,236.954 120.118,237.122 89.292,237.261 58.465,237.119 43.051,236.952 		"/>
		<g>
			<path d="M12.791,27.284c0.251,8.135,0.409,16.269,0.602,24.405l-0.002,24.404v48.809v48.809v24.405l-0.6,24.403l-0.6-24.403
				v-24.405v-48.809V76.093l-0.002-24.404C12.382,43.553,12.54,35.419,12.791,27.284"/>
			<path d="M165.791,27.284c0.251,8.135,0.408,16.269,0.604,24.405l-0.003,24.404v48.809v48.809v24.405l-0.601,24.403l-0.6-24.403
				v-24.405v-48.809V76.093l-0.003-24.404C165.383,43.553,165.54,35.419,165.791,27.284"/>
			<path d="M23.502,11.118c-0.286-0.892-0.863-1.6-1.627-2.049c-2.048-1.207-5.43-0.452-5.967,1.998
				c-0.32,1.461,0.201,2.408,0.201,2.408s-0.463-0.407-0.65-0.769c-0.187-0.363-0.405-1.033-0.405-1.033s0.027,0.655,0.3,1.245
				c0.272,0.591,1.15,1.212,1.295,1.247c-0.066-0.125-0.282-0.369-0.351-0.888c-0.068-0.519-0.165-1.585,0.467-2.49
				c0.631-0.905,1.985-1.804,3.499-1.395c1.514,0.409,2.205,1.692,2.222,2.83s-0.116,2.032-1.453,3.801
				c-1.112,1.471-1.537,1.503-1.545,3.084l0.021,0.014c-0.163,0.09-0.302,0.214-0.384,0.382l-0.018-0.026
				c-1.581,0.007-1.613,0.433-3.084,1.545c-1.769,1.337-2.663,1.47-3.801,1.453c-1.138-0.017-2.421-0.708-2.83-2.222
				c-0.409-1.514,0.49-2.868,1.395-3.499c0.905-0.632,1.971-0.535,2.49-0.467c0.518,0.069,0.763,0.285,0.888,0.351
				c-0.035-0.145-0.656-1.023-1.247-1.295c-0.59-0.273-1.245-0.3-1.245-0.3s0.67,0.218,1.033,0.405
				c0.362,0.187,0.769,0.65,0.769,0.65s-0.947-0.521-2.408-0.201c-2.45,0.537-3.205,3.919-1.998,5.967
				c0.449,0.764,1.157,1.341,2.049,1.627c0.795,0.255,1.475,0.353,2.443,0.098c0.967-0.255,1.839-0.884,2.603-1.487
				c0.726-0.573,1.613-1.813,2.942-1.827l0.011-0.021c0.141,0.302,0.442,0.514,0.797,0.514c0.488,0,0.883-0.396,0.883-0.883
				c0-0.353-0.21-0.653-0.509-0.794c0.024-1.321,1.255-2.204,1.825-2.927c0.603-0.764,1.232-1.636,1.487-2.603
				C23.855,12.593,23.757,11.913,23.502,11.118 M21.062,19.903c0,0.157-0.032,0.307-0.088,0.444l6.142,0.262v-1.413l-6.142,0.262
				C21.03,19.595,21.062,19.745,21.062,19.903 M27.426,20.656v-1.489l1.587-0.541l0.832,0.702l0.496-0.591
				c0.18-0.215,0.438-0.095,0.519,0.241l0.102,0.421l0.503-0.516l1.32,0.246l-0.932,0.689c-0.046,0.035-0.046,0.157,0,0.192
				l0.932,0.689l-1.32,0.246l-0.503-0.516L30.86,20.85c-0.081,0.336-0.339,0.455-0.519,0.241L29.845,20.5l-0.832,0.702
				L27.426,20.656z M33.961,19.152h-0.654c-0.039,0.047-1.014,0.762-1.014,0.762s0.971,0.723,1.012,0.761h0.656l1.129-0.761
				L33.961,19.152z M33.509,21.386l2.083-1.375c0.024-0.017,0.04-0.054,0.04-0.097c0-0.042-0.016-0.08-0.04-0.097l-2.083-1.376
				c-0.091-0.066-0.05-0.286,0.049-0.261c0.783,0.195,2.228,0.676,3.293,1.734c-1.065,1.058-2.51,1.539-3.293,1.734
				C33.459,21.673,33.418,21.453,33.509,21.386 M19.914,21.063c0.157,0,0.307-0.033,0.445-0.089l0.262,6.142h-1.414l0.262-6.142
				C19.606,21.03,19.756,21.063,19.914,21.063 M20.667,27.426h-1.489l-0.541,1.587l0.702,0.832l-0.591,0.496
				c-0.215,0.18-0.095,0.438,0.241,0.519l0.421,0.102l-0.516,0.503l0.246,1.32l0.689-0.931c0.036-0.047,0.157-0.047,0.192,0
				l0.689,0.931l0.246-1.32l-0.516-0.503l0.421-0.102c0.336-0.081,0.455-0.339,0.241-0.519l-0.591-0.496l0.702-0.832L20.667,27.426z
				 M19.163,33.961v-0.654c0.047-0.039,0.762-1.014,0.762-1.014s0.723,0.971,0.761,1.012v0.656l-0.761,1.129L19.163,33.961z
				 M21.397,33.509l-1.375,2.083c-0.017,0.024-0.054,0.04-0.097,0.04c-0.042,0-0.08-0.016-0.097-0.04l-1.376-2.083
				c-0.066-0.091-0.286-0.05-0.26,0.049c0.194,0.783,0.675,2.228,1.733,3.293c1.058-1.065,1.539-2.51,1.734-3.293
				C21.684,33.459,21.464,33.418,21.397,33.509"/>
			<path d="M23.502,238.331c-0.286,0.893-0.863,1.601-1.627,2.05c-2.048,1.207-5.43,0.451-5.967-1.998
				c-0.32-1.461,0.201-2.408,0.201-2.408s-0.463,0.407-0.65,0.769c-0.187,0.363-0.405,1.033-0.405,1.033s0.027-0.655,0.3-1.245
				c0.272-0.591,1.15-1.212,1.295-1.247c-0.066,0.125-0.282,0.369-0.351,0.889c-0.068,0.519-0.165,1.585,0.467,2.489
				c0.631,0.905,1.985,1.805,3.499,1.396c1.514-0.409,2.205-1.692,2.222-2.83s-0.116-2.032-1.453-3.801
				c-1.112-1.472-1.537-1.503-1.545-3.084l0.021-0.015c-0.163-0.09-0.302-0.214-0.384-0.382l-0.018,0.026
				c-1.581-0.007-1.613-0.434-3.084-1.545c-1.769-1.337-2.663-1.471-3.801-1.453c-1.138,0.017-2.421,0.708-2.83,2.222
				c-0.409,1.514,0.49,2.868,1.395,3.499c0.905,0.632,1.971,0.535,2.49,0.467c0.518-0.068,0.763-0.285,0.888-0.351
				c-0.035,0.145-0.656,1.022-1.247,1.295c-0.59,0.273-1.245,0.3-1.245,0.3s0.67-0.218,1.033-0.405
				c0.362-0.187,0.769-0.649,0.769-0.649s-0.947,0.521-2.408,0.201c-2.45-0.537-3.205-3.919-1.998-5.968
				c0.449-0.764,1.157-1.341,2.049-1.627c0.795-0.255,1.475-0.353,2.443-0.098c0.967,0.255,1.839,0.884,2.603,1.487
				c0.726,0.573,1.613,1.813,2.942,1.827l0.011,0.021c0.141-0.302,0.442-0.514,0.797-0.514c0.488,0,0.883,0.396,0.883,0.883
				c0,0.353-0.21,0.653-0.509,0.794c0.024,1.321,1.255,2.204,1.825,2.927c0.603,0.765,1.232,1.637,1.487,2.604
				C23.855,236.856,23.757,237.536,23.502,238.331 M21.062,229.547c0-0.157-0.032-0.308-0.088-0.444l6.142-0.262v1.413l-6.142-0.263
				C21.03,229.854,21.062,229.704,21.062,229.547 M27.426,228.793v1.489l1.587,0.541l0.832-0.702l0.496,0.592
				c0.18,0.215,0.438,0.095,0.519-0.241l0.102-0.421l0.503,0.516l1.32-0.246l-0.932-0.688c-0.046-0.035-0.046-0.157,0-0.192
				l0.932-0.689l-1.32-0.245l-0.503,0.516L30.86,228.6c-0.081-0.336-0.339-0.455-0.519-0.241l-0.496,0.591l-0.832-0.702
				L27.426,228.793z M33.961,230.298h-0.654c-0.039-0.048-1.014-0.763-1.014-0.763s0.971-0.723,1.012-0.761h0.656l1.129,0.761
				L33.961,230.298z M33.509,228.063l2.083,1.375c0.024,0.017,0.04,0.054,0.04,0.097c0,0.042-0.016,0.08-0.04,0.098l-2.083,1.376
				c-0.091,0.065-0.05,0.285,0.049,0.261c0.783-0.195,2.228-0.676,3.293-1.734c-1.065-1.058-2.51-1.539-3.293-1.733
				C33.459,227.776,33.418,227.996,33.509,228.063 M19.914,228.387c0.157,0,0.307,0.032,0.445,0.089l0.262-6.143h-1.414l0.262,6.143
				C19.606,228.419,19.756,228.387,19.914,228.387 M20.667,222.023h-1.489l-0.541-1.587l0.702-0.832l-0.591-0.496
				c-0.215-0.18-0.095-0.438,0.241-0.519l0.421-0.103l-0.516-0.503l0.246-1.32l0.689,0.932c0.036,0.047,0.157,0.047,0.192,0
				l0.689-0.932l0.246,1.32l-0.516,0.503l0.421,0.103c0.336,0.081,0.455,0.339,0.241,0.519l-0.591,0.496l0.702,0.832L20.667,222.023
				z M19.163,215.488v0.654c0.047,0.039,0.762,1.014,0.762,1.014s0.723-0.971,0.761-1.012v-0.656l-0.761-1.129L19.163,215.488z
				 M21.397,215.94l-1.375-2.083c-0.017-0.024-0.054-0.04-0.097-0.04c-0.042,0-0.08,0.016-0.097,0.04l-1.376,2.083
				c-0.066,0.091-0.286,0.05-0.26-0.049c0.194-0.783,0.675-2.229,1.733-3.293c1.058,1.064,1.539,2.51,1.734,3.293
				C21.684,215.99,21.464,216.031,21.397,215.94"/>
			<path d="M155.081,11.118c0.286-0.892,0.862-1.6,1.627-2.049c2.048-1.207,5.43-0.452,5.967,1.998
				c0.32,1.461-0.201,2.408-0.201,2.408s0.463-0.407,0.65-0.769c0.187-0.363,0.404-1.033,0.404-1.033s-0.026,0.655-0.3,1.245
				c-0.271,0.591-1.149,1.212-1.295,1.247c0.066-0.125,0.282-0.369,0.352-0.888c0.067-0.519,0.165-1.585-0.468-2.49
				c-0.631-0.905-1.984-1.804-3.499-1.395c-1.514,0.409-2.204,1.692-2.222,2.83c-0.017,1.138,0.116,2.032,1.453,3.801
				c1.112,1.471,1.537,1.503,1.545,3.084l-0.021,0.014c0.162,0.09,0.302,0.214,0.384,0.382l0.018-0.026
				c1.581,0.007,1.613,0.433,3.084,1.545c1.77,1.337,2.663,1.47,3.801,1.453c1.139-0.017,2.422-0.708,2.83-2.222
				c0.409-1.514-0.489-2.868-1.395-3.499c-0.905-0.632-1.971-0.535-2.49-0.467c-0.518,0.069-0.763,0.285-0.888,0.351
				c0.035-0.145,0.656-1.023,1.247-1.295c0.59-0.273,1.245-0.3,1.245-0.3s-0.67,0.218-1.033,0.405c-0.362,0.187-0.77,0.65-0.77,0.65
				s0.947-0.521,2.408-0.201c2.45,0.537,3.205,3.919,1.998,5.967c-0.449,0.764-1.157,1.341-2.049,1.627
				c-0.795,0.255-1.475,0.353-2.443,0.098c-0.967-0.255-1.839-0.884-2.603-1.487c-0.727-0.573-1.613-1.813-2.942-1.827l-0.011-0.021
				c-0.141,0.302-0.442,0.514-0.797,0.514c-0.488,0-0.883-0.396-0.883-0.883c0-0.353,0.21-0.653,0.509-0.794
				c-0.024-1.321-1.255-2.204-1.825-2.927c-0.603-0.764-1.231-1.636-1.487-2.603C154.728,12.593,154.826,11.913,155.081,11.118
				 M157.521,19.903c0,0.157,0.032,0.307,0.088,0.444l-6.142,0.262v-1.413l6.142,0.262
				C157.553,19.595,157.521,19.745,157.521,19.903 M151.157,20.656v-1.489l-1.588-0.541l-0.831,0.702l-0.496-0.591
				c-0.181-0.215-0.438-0.095-0.52,0.241l-0.102,0.421l-0.503-0.516l-1.32,0.246l0.932,0.689c0.046,0.035,0.046,0.157,0,0.192
				l-0.932,0.689l1.32,0.246l0.503-0.516l0.102,0.421c0.081,0.336,0.339,0.455,0.52,0.241l0.496-0.591l0.831,0.702L151.157,20.656z
				 M144.622,19.152h0.653c0.039,0.047,1.015,0.762,1.015,0.762s-0.972,0.723-1.013,0.761h-0.655l-1.129-0.761L144.622,19.152z
				 M145.074,21.386l-2.083-1.375c-0.024-0.017-0.04-0.054-0.04-0.097c0-0.042,0.016-0.08,0.04-0.097l2.083-1.376
				c0.091-0.066,0.05-0.286-0.05-0.261c-0.782,0.195-2.228,0.676-3.293,1.734c1.065,1.058,2.511,1.539,3.293,1.734
				C145.124,21.673,145.165,21.453,145.074,21.386 M158.669,21.063c-0.157,0-0.308-0.033-0.445-0.089l-0.262,6.142h1.414
				l-0.262-6.142C158.977,21.03,158.827,21.063,158.669,21.063 M157.916,27.426h1.489l0.54,1.587l-0.701,0.832l0.591,0.496
				c0.215,0.18,0.095,0.438-0.241,0.519l-0.421,0.102l0.516,0.503l-0.246,1.32l-0.688-0.931c-0.036-0.047-0.157-0.047-0.192,0
				l-0.688,0.931l-0.246-1.32l0.516-0.503l-0.421-0.102c-0.336-0.081-0.455-0.339-0.241-0.519l0.592-0.496l-0.702-0.832
				L157.916,27.426z M159.42,33.961v-0.654c-0.047-0.039-0.762-1.014-0.762-1.014s-0.724,0.971-0.762,1.012v0.656l0.762,1.129
				L159.42,33.961z M157.186,33.509l1.375,2.083c0.018,0.024,0.055,0.04,0.098,0.04c0.042,0,0.08-0.016,0.097-0.04l1.376-2.083
				c0.066-0.091,0.286-0.05,0.26,0.049c-0.193,0.783-0.675,2.228-1.732,3.293c-1.059-1.065-1.539-2.51-1.734-3.293
				C156.898,33.459,157.119,33.418,157.186,33.509"/>
			<path d="M155.081,238.331c0.286,0.893,0.862,1.601,1.627,2.05c2.048,1.207,5.43,0.451,5.967-1.998
				c0.32-1.461-0.201-2.408-0.201-2.408s0.463,0.407,0.65,0.769c0.187,0.363,0.404,1.033,0.404,1.033s-0.026-0.655-0.3-1.245
				c-0.271-0.591-1.149-1.212-1.295-1.247c0.066,0.125,0.282,0.369,0.352,0.889c0.067,0.519,0.165,1.585-0.468,2.489
				c-0.631,0.905-1.984,1.805-3.499,1.396c-1.514-0.409-2.204-1.692-2.222-2.83c-0.017-1.138,0.116-2.032,1.453-3.801
				c1.112-1.472,1.537-1.503,1.545-3.084l-0.021-0.015c0.162-0.09,0.302-0.214,0.384-0.382l0.018,0.026
				c1.581-0.007,1.613-0.434,3.084-1.545c1.77-1.337,2.663-1.471,3.801-1.453c1.139,0.017,2.422,0.708,2.83,2.222
				c0.409,1.514-0.489,2.868-1.395,3.499c-0.905,0.632-1.971,0.535-2.49,0.467c-0.518-0.068-0.763-0.285-0.888-0.351
				c0.035,0.145,0.656,1.022,1.247,1.295c0.59,0.273,1.245,0.3,1.245,0.3s-0.67-0.218-1.033-0.405
				c-0.362-0.187-0.77-0.649-0.77-0.649s0.947,0.521,2.408,0.201c2.45-0.537,3.205-3.919,1.998-5.968
				c-0.449-0.764-1.157-1.341-2.049-1.627c-0.795-0.255-1.475-0.353-2.443-0.098c-0.967,0.255-1.839,0.884-2.603,1.487
				c-0.727,0.573-1.613,1.813-2.942,1.827l-0.011,0.021c-0.141-0.302-0.442-0.514-0.797-0.514c-0.488,0-0.883,0.396-0.883,0.883
				c0,0.353,0.21,0.653,0.509,0.794c-0.024,1.321-1.255,2.204-1.825,2.927c-0.603,0.765-1.231,1.637-1.487,2.604
				C154.728,236.856,154.826,237.536,155.081,238.331 M157.521,229.547c0-0.157,0.032-0.308,0.088-0.444l-6.142-0.262v1.413
				l6.142-0.263C157.553,229.854,157.521,229.704,157.521,229.547 M151.157,228.793v1.489l-1.588,0.541l-0.831-0.702l-0.496,0.592
				c-0.181,0.215-0.438,0.095-0.52-0.241l-0.102-0.421l-0.503,0.516l-1.32-0.246l0.932-0.688c0.046-0.035,0.046-0.157,0-0.192
				l-0.932-0.689l1.32-0.245l0.503,0.516l0.102-0.421c0.081-0.336,0.339-0.455,0.52-0.241l0.496,0.591l0.831-0.702L151.157,228.793z
				 M144.622,230.298h0.653c0.039-0.048,1.015-0.763,1.015-0.763s-0.972-0.723-1.013-0.761h-0.655l-1.129,0.761L144.622,230.298z
				 M145.074,228.063l-2.083,1.375c-0.024,0.017-0.04,0.054-0.04,0.097c0,0.042,0.016,0.08,0.04,0.098l2.083,1.376
				c0.091,0.065,0.05,0.285-0.05,0.261c-0.782-0.195-2.228-0.676-3.293-1.734c1.065-1.058,2.511-1.539,3.293-1.733
				C145.124,227.776,145.165,227.996,145.074,228.063 M158.669,228.387c-0.157,0-0.308,0.032-0.445,0.089l-0.262-6.143h1.414
				l-0.262,6.143C158.977,228.419,158.827,228.387,158.669,228.387 M157.916,222.023h1.489l0.54-1.587l-0.701-0.832l0.591-0.496
				c0.215-0.18,0.095-0.438-0.241-0.519l-0.421-0.103l0.516-0.503l-0.246-1.32l-0.688,0.932c-0.036,0.047-0.157,0.047-0.192,0
				l-0.688-0.932l-0.246,1.32l0.516,0.503l-0.421,0.103c-0.336,0.081-0.455,0.339-0.241,0.519l0.592,0.496l-0.702,0.832
				L157.916,222.023z M159.42,215.488v0.654c-0.047,0.039-0.762,1.014-0.762,1.014s-0.724-0.971-0.762-1.012v-0.656l0.762-1.129
				L159.42,215.488z M157.186,215.94l1.375-2.083c0.018-0.024,0.055-0.04,0.098-0.04c0.042,0,0.08,0.016,0.097,0.04l1.376,2.083
				c0.066,0.091,0.286,0.05,0.26-0.049c-0.193-0.783-0.675-2.229-1.732-3.293c-1.059,1.064-1.539,2.51-1.734,3.293
				C156.898,215.99,157.119,216.031,157.186,215.94"/>
		</g>
	</g>
	<path d="M121.923,158.021c0,1.193-0.972,2.166-2.166,2.166c-1.192,0-2.166-0.973-2.166-2.166v-4.332
		c0-1.192,0.974-2.166,2.166-2.166c1.194,0,2.166,0.974,2.166,2.166V158.021z M117.591,168.879
		c-9.837,0.288-18.27,2.56-26.134,7.056v-25.403c7.778-4.949,15.96-7.349,26.134-7.641v4.676c-2.521,0.896-4.331,3.303-4.331,6.122
		v4.332c0,2.825,1.811,5.232,4.331,6.122V168.879z M89.291,146.779c-3.997-2.521-8.158-4.441-12.6-5.792
		c2.44-1.586,5.313-2.46,8.268-2.46h8.664c2.955,0,5.828,0.874,8.27,2.46C97.449,142.338,93.286,144.258,89.291,146.779
		 M87.125,175.935c-7.862-4.496-16.299-6.768-26.134-7.056v-4.736c2.52-0.89,4.332-3.297,4.332-6.122v-4.332
		c0-2.819-1.812-5.227-4.332-6.122v-4.676c10.177,0.292,18.356,2.688,26.134,7.641V175.935z M58.825,160.187
		c-1.193,0-2.166-0.973-2.166-2.166v-4.332c0-1.192,0.973-2.166,2.166-2.166c1.194,0,2.166,0.974,2.166,2.166v4.332
		C60.991,159.214,60.019,160.187,58.825,160.187 M78.462,123.367c0-6.05,4.859-10.973,10.829-10.973
		c5.968,0,10.829,4.923,10.829,10.973c0,5.973-4.861,10.83-10.829,10.83C83.321,134.196,78.462,129.34,78.462,123.367
		 M121.923,147.566v-6.873c0-1.195-0.972-2.166-2.166-2.166c-4.476,0-8.644,0.378-12.59,1.151c-2.291-2.219-5.092-3.829-8.125-4.71
		c3.302-2.782,5.41-6.95,5.41-11.602c0-8.439-6.8-15.305-15.161-15.305c-8.36,0-15.161,6.866-15.161,15.305
		c0,4.652,2.106,8.82,5.412,11.602c-3.032,0.881-5.833,2.491-8.131,4.71c-3.939-0.773-8.112-1.151-12.586-1.151
		c-1.196,0-2.166,0.971-2.166,2.166v6.873c-2.522,0.896-4.331,3.303-4.331,6.122v4.332c0,2.825,1.809,5.232,4.331,6.122v6.873
		c0,1.193,0.97,2.166,2.166,2.166c11.325,0,20.624,2.686,29.265,8.441c0.725,0.486,1.678,0.486,2.402,0
		c8.642-5.756,17.94-8.441,29.265-8.441c1.194,0,2.166-0.973,2.166-2.166v-6.873c2.522-0.89,4.332-3.297,4.332-6.122v-4.332
		C126.255,150.869,124.445,148.462,121.923,147.566"/>
	<path d="M119.699,108.525c-1.146,0-2.069-0.933-2.069-2.079c0-1.141,0.924-2.07,2.069-2.07c1.146,0,2.074,0.929,2.074,2.07
		C121.773,107.592,120.846,108.525,119.699,108.525 M90.529,87.147l-24.289-9.734l24.289-9.731l24.352,9.731L90.529,87.147z
		 M105.044,94.008c0,2.934-6.209,6.219-14.515,6.219c-8.31,0-14.517-3.285-14.517-6.219v-8.21l14.515,5.817l14.517-5.803V94.008z
		 M125.923,106.446c0-2.698-1.732-5.008-4.149-5.863V79.127l4.283-1.714L90.527,63.21L55.09,77.413l16.774,6.727v9.868
		c0,3.041,2.132,5.78,6.007,7.716c3.414,1.71,7.911,2.652,12.659,2.652c4.747,0,9.243-0.942,12.657-2.652
		c3.872-1.936,6.006-4.675,6.006-7.716v-9.85l8.438-3.373v19.798c-2.416,0.855-4.149,3.165-4.149,5.863
		c0,2.476,1.451,4.615,3.544,5.618l-3.441,10.322l3.936,1.312l2.181-6.542l2.181,6.542l3.937-1.312l-3.438-10.322
		C124.473,111.061,125.923,108.922,125.923,106.446"/>
</g>
</svg>
