<?xml version="1.0" encoding="utf-8"?>
<!-- Generator: Adobe Illustrator 15.0.1, SVG Export Plug-In . SVG Version: 6.00 Build 0)  -->
<!DOCTYPE svg PUBLIC "-//W3C//DTD SVG 1.1//EN" "http://www.w3.org/Graphics/SVG/1.1/DTD/svg11.dtd">
<svg version="1.1" id="Layer_1" xmlns="http://www.w3.org/2000/svg" xmlns:xlink="http://www.w3.org/1999/xlink" x="0px" y="0px"
	 width="178.583px" height="249.449px" viewBox="0 0 178.583 249.449" enable-background="new 0 0 178.583 249.449"
	 xml:space="preserve">
<g>
	<g>
		<path fill="#EAD598" d="M14.173,0C14.173,0,0,0,0,14.173v221.103c0,0,0,14.173,14.173,14.173h150.236c0,0,14.173,0,14.173-14.173
			V14.173c0,0,0-14.173-14.173-14.173H14.173z"/>
		<g>
			<path d="M27.638,12.794c5.138-0.252,10.276-0.406,15.413-0.605l15.414,0.005h30.827h30.826h15.413
				c5.139,0.202,10.275,0.357,15.413,0.6c-5.138,0.243-10.274,0.398-15.413,0.6h-15.413H89.292H58.465l-15.414,0.004
				C37.914,13.2,32.776,13.046,27.638,12.794"/>
		</g>
		<polygon points="27.638,236.66 43.051,236.368 58.465,236.201 89.292,236.061 120.118,236.198 135.531,236.366 150.944,236.66 
			135.531,236.954 120.118,237.122 89.292,237.261 58.465,237.119 43.051,236.952 		"/>
		<g>
			<path d="M12.791,27.284c0.251,8.135,0.409,16.269,0.602,24.405l-0.002,24.404v48.809v48.809v24.405l-0.6,24.403l-0.6-24.403
				v-24.405v-48.809V76.093l-0.002-24.404C12.382,43.553,12.54,35.419,12.791,27.284"/>
			<path d="M165.791,27.284c0.251,8.135,0.408,16.269,0.604,24.405l-0.003,24.404v48.809v48.809v24.405l-0.601,24.403l-0.6-24.403
				v-24.405v-48.809V76.093l-0.003-24.404C165.383,43.553,165.54,35.419,165.791,27.284"/>
			<path d="M23.502,11.118c-0.286-0.892-0.863-1.6-1.627-2.049c-2.048-1.207-5.43-0.452-5.967,1.998
				c-0.32,1.461,0.201,2.408,0.201,2.408s-0.463-0.407-0.65-0.769c-0.187-0.363-0.405-1.033-0.405-1.033s0.027,0.655,0.3,1.245
				c0.272,0.591,1.15,1.212,1.295,1.247c-0.066-0.125-0.282-0.369-0.351-0.888c-0.068-0.519-0.165-1.585,0.467-2.49
				c0.631-0.905,1.985-1.804,3.499-1.395c1.514,0.409,2.205,1.692,2.222,2.83s-0.116,2.032-1.453,3.801
				c-1.112,1.471-1.537,1.503-1.545,3.084l0.021,0.014c-0.163,0.09-0.302,0.214-0.384,0.382l-0.018-0.026
				c-1.581,0.007-1.613,0.433-3.084,1.545c-1.769,1.337-2.663,1.47-3.801,1.453c-1.138-0.017-2.421-0.708-2.83-2.222
				c-0.409-1.514,0.49-2.868,1.395-3.499c0.905-0.632,1.971-0.535,2.49-0.467c0.518,0.069,0.763,0.285,0.888,0.351
				c-0.035-0.145-0.656-1.023-1.247-1.295c-0.59-0.273-1.245-0.3-1.245-0.3s0.67,0.218,1.033,0.405
				c0.362,0.187,0.769,0.65,0.769,0.65s-0.947-0.521-2.408-0.201c-2.45,0.537-3.205,3.919-1.998,5.967
				c0.449,0.764,1.157,1.341,2.049,1.627c0.795,0.255,1.475,0.353,2.443,0.098c0.967-0.255,1.839-0.884,2.603-1.487
				c0.726-0.573,1.613-1.813,2.942-1.827l0.011-0.021c0.141,0.302,0.442,0.514,0.797,0.514c0.488,0,0.883-0.396,0.883-0.883
				c0-0.353-0.21-0.653-0.509-0.794c0.024-1.321,1.255-2.204,1.825-2.927c0.603-0.764,1.232-1.636,1.487-2.603
				C23.855,12.593,23.757,11.913,23.502,11.118 M21.062,19.903c0,0.157-0.032,0.307-0.088,0.444l6.142,0.262v-1.413l-6.142,0.262
				C21.03,19.595,21.062,19.745,21.062,19.903 M27.426,20.656v-1.489l1.587-0.541l0.832,0.702l0.496-0.591
				c0.18-0.215,0.438-0.095,0.519,0.241l0.102,0.421l0.503-0.516l1.32,0.246l-0.932,0.689c-0.046,0.035-0.046,0.157,0,0.192
				l0.932,0.689l-1.32,0.246l-0.503-0.516L30.86,20.85c-0.081,0.336-0.339,0.455-0.519,0.241L29.845,20.5l-0.832,0.702
				L27.426,20.656z M33.961,19.152h-0.654c-0.039,0.047-1.014,0.762-1.014,0.762s0.971,0.723,1.012,0.761h0.656l1.129-0.761
				L33.961,19.152z M33.509,21.386l2.083-1.375c0.024-0.017,0.04-0.054,0.04-0.097c0-0.042-0.016-0.08-0.04-0.097l-2.083-1.376
				c-0.091-0.066-0.05-0.286,0.049-0.261c0.783,0.195,2.228,0.676,3.293,1.734c-1.065,1.058-2.51,1.539-3.293,1.734
				C33.459,21.673,33.418,21.453,33.509,21.386 M19.914,21.063c0.157,0,0.307-0.033,0.445-0.089l0.262,6.142h-1.414l0.262-6.142
				C19.606,21.03,19.756,21.063,19.914,21.063 M20.667,27.426h-1.489l-0.541,1.587l0.702,0.832l-0.591,0.496
				c-0.215,0.18-0.095,0.438,0.241,0.519l0.421,0.102l-0.516,0.503l0.246,1.32l0.689-0.931c0.036-0.047,0.157-0.047,0.192,0
				l0.689,0.931l0.246-1.32l-0.516-0.503l0.421-0.102c0.336-0.081,0.455-0.339,0.241-0.519l-0.591-0.496l0.702-0.832L20.667,27.426z
				 M19.163,33.961v-0.654c0.047-0.039,0.762-1.014,0.762-1.014s0.723,0.971,0.761,1.012v0.656l-0.761,1.129L19.163,33.961z
				 M21.397,33.509l-1.375,2.083c-0.017,0.024-0.054,0.04-0.097,0.04c-0.042,0-0.08-0.016-0.097-0.04l-1.376-2.083
				c-0.066-0.091-0.286-0.05-0.26,0.049c0.194,0.783,0.675,2.228,1.733,3.293c1.058-1.065,1.539-2.51,1.734-3.293
				C21.684,33.459,21.464,33.418,21.397,33.509"/>
			<path d="M23.502,238.331c-0.286,0.893-0.863,1.601-1.627,2.05c-2.048,1.207-5.43,0.451-5.967-1.998
				c-0.32-1.461,0.201-2.408,0.201-2.408s-0.463,0.407-0.65,0.769c-0.187,0.363-0.405,1.033-0.405,1.033s0.027-0.655,0.3-1.245
				c0.272-0.591,1.15-1.212,1.295-1.247c-0.066,0.125-0.282,0.369-0.351,0.889c-0.068,0.519-0.165,1.585,0.467,2.489
				c0.631,0.905,1.985,1.805,3.499,1.396c1.514-0.409,2.205-1.692,2.222-2.83s-0.116-2.032-1.453-3.801
				c-1.112-1.472-1.537-1.503-1.545-3.084l0.021-0.015c-0.163-0.09-0.302-0.214-0.384-0.382l-0.018,0.026
				c-1.581-0.007-1.613-0.434-3.084-1.545c-1.769-1.337-2.663-1.471-3.801-1.453c-1.138,0.017-2.421,0.708-2.83,2.222
				c-0.409,1.514,0.49,2.868,1.395,3.499c0.905,0.632,1.971,0.535,2.49,0.467c0.518-0.068,0.763-0.285,0.888-0.351
				c-0.035,0.145-0.656,1.022-1.247,1.295c-0.59,0.273-1.245,0.3-1.245,0.3s0.67-0.218,1.033-0.405
				c0.362-0.187,0.769-0.649,0.769-0.649s-0.947,0.521-2.408,0.201c-2.45-0.537-3.205-3.919-1.998-5.968
				c0.449-0.764,1.157-1.341,2.049-1.627c0.795-0.255,1.475-0.353,2.443-0.098c0.967,0.255,1.839,0.884,2.603,1.487
				c0.726,0.573,1.613,1.813,2.942,1.827l0.011,0.021c0.141-0.302,0.442-0.514,0.797-0.514c0.488,0,0.883,0.396,0.883,0.883
				c0,0.353-0.21,0.653-0.509,0.794c0.024,1.321,1.255,2.204,1.825,2.927c0.603,0.765,1.232,1.637,1.487,2.604
				C23.855,236.856,23.757,237.536,23.502,238.331 M21.062,229.547c0-0.157-0.032-0.308-0.088-0.444l6.142-0.262v1.413l-6.142-0.263
				C21.03,229.854,21.062,229.704,21.062,229.547 M27.426,228.793v1.489l1.587,0.541l0.832-0.702l0.496,0.592
				c0.18,0.215,0.438,0.095,0.519-0.241l0.102-0.421l0.503,0.516l1.32-0.246l-0.932-0.688c-0.046-0.035-0.046-0.157,0-0.192
				l0.932-0.689l-1.32-0.245l-0.503,0.516L30.86,228.6c-0.081-0.336-0.339-0.455-0.519-0.241l-0.496,0.591l-0.832-0.702
				L27.426,228.793z M33.961,230.298h-0.654c-0.039-0.048-1.014-0.763-1.014-0.763s0.971-0.723,1.012-0.761h0.656l1.129,0.761
				L33.961,230.298z M33.509,228.063l2.083,1.375c0.024,0.017,0.04,0.054,0.04,0.097c0,0.042-0.016,0.08-0.04,0.098l-2.083,1.376
				c-0.091,0.065-0.05,0.285,0.049,0.261c0.783-0.195,2.228-0.676,3.293-1.734c-1.065-1.058-2.51-1.539-3.293-1.733
				C33.459,227.776,33.418,227.996,33.509,228.063 M19.914,228.387c0.157,0,0.307,0.032,0.445,0.089l0.262-6.143h-1.414l0.262,6.143
				C19.606,228.419,19.756,228.387,19.914,228.387 M20.667,222.023h-1.489l-0.541-1.587l0.702-0.832l-0.591-0.496
				c-0.215-0.18-0.095-0.438,0.241-0.519l0.421-0.103l-0.516-0.503l0.246-1.32l0.689,0.932c0.036,0.047,0.157,0.047,0.192,0
				l0.689-0.932l0.246,1.32l-0.516,0.503l0.421,0.103c0.336,0.081,0.455,0.339,0.241,0.519l-0.591,0.496l0.702,0.832L20.667,222.023
				z M19.163,215.488v0.654c0.047,0.039,0.762,1.014,0.762,1.014s0.723-0.971,0.761-1.012v-0.656l-0.761-1.129L19.163,215.488z
				 M21.397,215.94l-1.375-2.083c-0.017-0.024-0.054-0.04-0.097-0.04c-0.042,0-0.08,0.016-0.097,0.04l-1.376,2.083
				c-0.066,0.091-0.286,0.05-0.26-0.049c0.194-0.783,0.675-2.229,1.733-3.293c1.058,1.064,1.539,2.51,1.734,3.293
				C21.684,215.99,21.464,216.031,21.397,215.94"/>
			<path d="M155.081,11.118c0.286-0.892,0.862-1.6,1.627-2.049c2.048-1.207,5.43-0.452,5.967,1.998
				c0.32,1.461-0.201,2.408-0.201,2.408s0.463-0.407,0.65-0.769c0.187-0.363,0.404-1.033,0.404-1.033s-0.026,0.655-0.3,1.245
				c-0.271,0.591-1.149,1.212-1.295,1.247c0.066-0.125,0.282-0.369,0.352-0.888c0.067-0.519,0.165-1.585-0.468-2.49
				c-0.631-0.905-1.984-1.804-3.499-1.395c-1.514,0.409-2.204,1.692-2.222,2.83c-0.017,1.138,0.116,2.032,1.453,3.801
				c1.112,1.471,1.537,1.503,1.545,3.084l-0.021,0.014c0.162,0.09,0.302,0.214,0.384,0.382l0.018-0.026
				c1.581,0.007,1.613,0.433,3.084,1.545c1.77,1.337,2.663,1.47,3.801,1.453c1.139-0.017,2.422-0.708,2.83-2.222
				c0.409-1.514-0.489-2.868-1.395-3.499c-0.905-0.632-1.971-0.535-2.49-0.467c-0.518,0.069-0.763,0.285-0.888,0.351
				c0.035-0.145,0.656-1.023,1.247-1.295c0.59-0.273,1.245-0.3,1.245-0.3s-0.67,0.218-1.033,0.405c-0.362,0.187-0.77,0.65-0.77,0.65
				s0.947-0.521,2.408-0.201c2.45,0.537,3.205,3.919,1.998,5.967c-0.449,0.764-1.157,1.341-2.049,1.627
				c-0.795,0.255-1.475,0.353-2.443,0.098c-0.967-0.255-1.839-0.884-2.603-1.487c-0.727-0.573-1.613-1.813-2.942-1.827l-0.011-0.021
				c-0.141,0.302-0.442,0.514-0.797,0.514c-0.488,0-0.883-0.396-0.883-0.883c0-0.353,0.21-0.653,0.509-0.794
				c-0.024-1.321-1.255-2.204-1.825-2.927c-0.603-0.764-1.231-1.636-1.487-2.603C154.728,12.593,154.826,11.913,155.081,11.118
				 M157.521,19.903c0,0.157,0.032,0.307,0.088,0.444l-6.142,0.262v-1.413l6.142,0.262
				C157.553,19.595,157.521,19.745,157.521,19.903 M151.157,20.656v-1.489l-1.588-0.541l-0.831,0.702l-0.496-0.591
				c-0.181-0.215-0.438-0.095-0.52,0.241l-0.102,0.421l-0.503-0.516l-1.32,0.246l0.932,0.689c0.046,0.035,0.046,0.157,0,0.192
				l-0.932,0.689l1.32,0.246l0.503-0.516l0.102,0.421c0.081,0.336,0.339,0.455,0.52,0.241l0.496-0.591l0.831,0.702L151.157,20.656z
				 M144.622,19.152h0.653c0.039,0.047,1.015,0.762,1.015,0.762s-0.972,0.723-1.013,0.761h-0.655l-1.129-0.761L144.622,19.152z
				 M145.074,21.386l-2.083-1.375c-0.024-0.017-0.04-0.054-0.04-0.097c0-0.042,0.016-0.08,0.04-0.097l2.083-1.376
				c0.091-0.066,0.05-0.286-0.05-0.261c-0.782,0.195-2.228,0.676-3.293,1.734c1.065,1.058,2.511,1.539,3.293,1.734
				C145.124,21.673,145.165,21.453,145.074,21.386 M158.669,21.063c-0.157,0-0.308-0.033-0.445-0.089l-0.262,6.142h1.414
				l-0.262-6.142C158.977,21.03,158.827,21.063,158.669,21.063 M157.916,27.426h1.489l0.54,1.587l-0.701,0.832l0.591,0.496
				c0.215,0.18,0.095,0.438-0.241,0.519l-0.421,0.102l0.516,0.503l-0.246,1.32l-0.688-0.931c-0.036-0.047-0.157-0.047-0.192,0
				l-0.688,0.931l-0.246-1.32l0.516-0.503l-0.421-0.102c-0.336-0.081-0.455-0.339-0.241-0.519l0.592-0.496l-0.702-0.832
				L157.916,27.426z M159.42,33.961v-0.654c-0.047-0.039-0.762-1.014-0.762-1.014s-0.724,0.971-0.762,1.012v0.656l0.762,1.129
				L159.42,33.961z M157.186,33.509l1.375,2.083c0.018,0.024,0.055,0.04,0.098,0.04c0.042,0,0.08-0.016,0.097-0.04l1.376-2.083
				c0.066-0.091,0.286-0.05,0.26,0.049c-0.193,0.783-0.675,2.228-1.732,3.293c-1.059-1.065-1.539-2.51-1.734-3.293
				C156.898,33.459,157.119,33.418,157.186,33.509"/>
			<path d="M155.081,238.331c0.286,0.893,0.862,1.601,1.627,2.05c2.048,1.207,5.43,0.451,5.967-1.998
				c0.32-1.461-0.201-2.408-0.201-2.408s0.463,0.407,0.65,0.769c0.187,0.363,0.404,1.033,0.404,1.033s-0.026-0.655-0.3-1.245
				c-0.271-0.591-1.149-1.212-1.295-1.247c0.066,0.125,0.282,0.369,0.352,0.889c0.067,0.519,0.165,1.585-0.468,2.489
				c-0.631,0.905-1.984,1.805-3.499,1.396c-1.514-0.409-2.204-1.692-2.222-2.83c-0.017-1.138,0.116-2.032,1.453-3.801
				c1.112-1.472,1.537-1.503,1.545-3.084l-0.021-0.015c0.162-0.09,0.302-0.214,0.384-0.382l0.018,0.026
				c1.581-0.007,1.613-0.434,3.084-1.545c1.77-1.337,2.663-1.471,3.801-1.453c1.139,0.017,2.422,0.708,2.83,2.222
				c0.409,1.514-0.489,2.868-1.395,3.499c-0.905,0.632-1.971,0.535-2.49,0.467c-0.518-0.068-0.763-0.285-0.888-0.351
				c0.035,0.145,0.656,1.022,1.247,1.295c0.59,0.273,1.245,0.3,1.245,0.3s-0.67-0.218-1.033-0.405
				c-0.362-0.187-0.77-0.649-0.77-0.649s0.947,0.521,2.408,0.201c2.45-0.537,3.205-3.919,1.998-5.968
				c-0.449-0.764-1.157-1.341-2.049-1.627c-0.795-0.255-1.475-0.353-2.443-0.098c-0.967,0.255-1.839,0.884-2.603,1.487
				c-0.727,0.573-1.613,1.813-2.942,1.827l-0.011,0.021c-0.141-0.302-0.442-0.514-0.797-0.514c-0.488,0-0.883,0.396-0.883,0.883
				c0,0.353,0.21,0.653,0.509,0.794c-0.024,1.321-1.255,2.204-1.825,2.927c-0.603,0.765-1.231,1.637-1.487,2.604
				C154.728,236.856,154.826,237.536,155.081,238.331 M157.521,229.547c0-0.157,0.032-0.308,0.088-0.444l-6.142-0.262v1.413
				l6.142-0.263C157.553,229.854,157.521,229.704,157.521,229.547 M151.157,228.793v1.489l-1.588,0.541l-0.831-0.702l-0.496,0.592
				c-0.181,0.215-0.438,0.095-0.52-0.241l-0.102-0.421l-0.503,0.516l-1.32-0.246l0.932-0.688c0.046-0.035,0.046-0.157,0-0.192
				l-0.932-0.689l1.32-0.245l0.503,0.516l0.102-0.421c0.081-0.336,0.339-0.455,0.52-0.241l0.496,0.591l0.831-0.702L151.157,228.793z
				 M144.622,230.298h0.653c0.039-0.048,1.015-0.763,1.015-0.763s-0.972-0.723-1.013-0.761h-0.655l-1.129,0.761L144.622,230.298z
				 M145.074,228.063l-2.083,1.375c-0.024,0.017-0.04,0.054-0.04,0.097c0,0.042,0.016,0.08,0.04,0.098l2.083,1.376
				c0.091,0.065,0.05,0.285-0.05,0.261c-0.782-0.195-2.228-0.676-3.293-1.734c1.065-1.058,2.511-1.539,3.293-1.733
				C145.124,227.776,145.165,227.996,145.074,228.063 M158.669,228.387c-0.157,0-0.308,0.032-0.445,0.089l-0.262-6.143h1.414
				l-0.262,6.143C158.977,228.419,158.827,228.387,158.669,228.387 M157.916,222.023h1.489l0.54-1.587l-0.701-0.832l0.591-0.496
				c0.215-0.18,0.095-0.438-0.241-0.519l-0.421-0.103l0.516-0.503l-0.246-1.32l-0.688,0.932c-0.036,0.047-0.157,0.047-0.192,0
				l-0.688-0.932l-0.246,1.32l0.516,0.503l-0.421,0.103c-0.336,0.081-0.455,0.339-0.241,0.519l0.592,0.496l-0.702,0.832
				L157.916,222.023z M159.42,215.488v0.654c-0.047,0.039-0.762,1.014-0.762,1.014s-0.724-0.971-0.762-1.012v-0.656l0.762-1.129
				L159.42,215.488z M157.186,215.94l1.375-2.083c0.018-0.024,0.055-0.04,0.098-0.04c0.042,0,0.08,0.016,0.097,0.04l1.376,2.083
				c0.066,0.091,0.286,0.05,0.26-0.049c-0.193-0.783-0.675-2.229-1.732-3.293c-1.059,1.064-1.539,2.51-1.734,3.293
				C156.898,215.99,157.119,216.031,157.186,215.94"/>
		</g>
	</g>
	<path fill="#F2B700" d="M113.548,44.513c-1.938-6.334-5.854-11.363-11.029-14.555c-13.885-8.567-36.812-3.205-40.454,14.189
		c-2.171,10.38,1.359,17.099,1.359,17.099s-3.137-2.884-4.406-5.461c-1.267-2.577-2.745-7.331-2.745-7.331s0.185,4.651,2.034,8.842
		c1.849,4.193,7.802,8.606,8.779,8.85c-0.447-0.882-1.913-2.62-2.375-6.303c-0.462-3.684-1.123-11.253,3.16-17.683
		c4.282-6.428,13.459-12.813,23.725-9.906c10.26,2.907,14.948,12.017,15.064,20.096c0.114,8.081-0.791,14.433-9.854,26.991
		c-7.774,10.777-10.158,12.1-10.158,23.408h4.857c-0.977-7.473,8.564-17.013,12.625-22.406c4.085-5.424,8.35-11.614,10.079-18.482
		C115.939,54.989,115.272,50.156,113.548,44.513"/>
	<path d="M87.231,102.243h3.718c-0.392-6.157,5.595-13.413,10.004-18.754c1.034-1.253,2.011-2.438,2.773-3.449
		c4.201-5.58,8.32-11.659,9.992-18.302c1.719-6.82,1.024-11.591-0.653-17.077c-1.878-6.133-5.616-11.069-10.812-14.273
		c-4.171-2.574-9.228-3.934-14.624-3.934c-10.624,0-22.498,5.503-25.07,17.796c-2.11,10.086,1.277,16.696,1.311,16.761
		c0.114,0.218,0.056,0.486-0.139,0.636c-0.193,0.149-0.467,0.138-0.65-0.029c-0.131-0.12-3.222-2.978-4.518-5.609
		c-0.283-0.576-0.574-1.252-0.856-1.959c0.269,0.994,0.616,2.034,1.06,3.042c1.318,2.989,4.819,6.101,6.905,7.621
		c-0.567-1.076-1.187-2.602-1.463-4.808c-0.345-2.739-1.39-11.074,3.239-18.024c3.336-5.007,10.311-10.854,18.994-10.854
		c1.774,0,3.552,0.249,5.291,0.741c10.918,3.093,15.318,12.691,15.432,20.575c0.123,8.56-1.216,15.192-9.949,27.295
		C89.689,90.069,87.231,91.428,87.231,102.243 M91.505,103.254h-4.857c-0.145,0-0.285-0.063-0.381-0.174
		c-0.095-0.109-0.119-0.256-0.119-0.401c0-11,2.375-12.72,10.25-23.633c8.585-11.897,9.876-18.382,9.757-26.689
		c-0.107-7.509-4.253-16.659-14.697-19.617c-1.647-0.466-3.334-0.703-5.014-0.703c-8.283,0-14.956,5.604-18.153,10.404
		c-4.421,6.637-3.41,14.692-3.078,17.338c0.363,2.899,1.367,4.543,1.967,5.525c0.111,0.182,0.209,0.342,0.289,0.484
		c0.091,0.092,0.149,0.218,0.149,0.358c0,0.284-0.219,0.559-0.518,0.505c-0.048,0.007-0.09-0.002-0.136-0.014
		c-1.157-0.29-7.206-4.8-9.12-9.137c-1.865-4.23-2.067-8.832-2.076-9.025c-0.01-0.254,0.17-0.475,0.42-0.518
		c0.241-0.044,0.491,0.105,0.567,0.347c0.016,0.048,1.482,4.747,2.717,7.258c0.602,1.225,1.663,2.54,2.58,3.556
		c-0.9-2.857-1.93-8.146-0.481-15.075c2.691-12.848,15.027-18.599,26.06-18.599c5.583,0,10.824,1.412,15.155,4.083
		c5.406,3.336,9.295,8.466,11.246,14.839c1.729,5.653,2.441,10.571,0.669,17.619c-1.717,6.816-5.901,12.998-10.167,18.663
		c-0.775,1.029-1.759,2.221-2.801,3.484c-4.428,5.365-10.489,12.712-9.727,18.552c0.019,0.144-0.023,0.289-0.121,0.399
		C91.788,103.192,91.65,103.254,91.505,103.254"/>
</g>
<rect x="84.124" y="122.31" fill="#F2B700" width="9.865" height="62.135"/>
<g>
	<path d="M84.626,184.116h8.857v-61.477h-8.857V184.116z M93.988,184.774h-9.865c-0.278,0-0.507-0.147-0.507-0.329v-62.136
		c0-0.181,0.229-0.329,0.507-0.329h9.865c0.279,0,0.505,0.148,0.505,0.329v62.136C94.493,184.627,94.268,184.774,93.988,184.774"/>
	<path fill="#F2B700" d="M94.688,193.734l-2.831-2.483l3.363-4.172l-1.231-2.635h-4.934h-4.933l-1.231,2.635l3.361,4.172
		l-2.83,2.483c-1.03,0.904-0.457,2.198,1.152,2.605l2.016,0.509l-2.468,2.522l1.289,7.246l3.644-5.159l3.644,5.159l1.29-7.246
		l-2.469-2.522l2.018-0.509C95.146,195.933,95.716,194.639,94.688,193.734"/>
	<path d="M84.644,199.451l1.062,5.964l2.891-4.096c0.084-0.115,0.263-0.19,0.459-0.19c0.197,0,0.375,0.075,0.459,0.19l2.89,4.096
		l1.063-5.964l-2.373-2.427c-0.082-0.082-0.1-0.186-0.052-0.279c0.048-0.093,0.157-0.168,0.296-0.204l2.014-0.508
		c0.619-0.157,1.079-0.485,1.265-0.9c0.184-0.417,0.062-0.854-0.333-1.202l-2.83-2.483c-0.115-0.103-0.132-0.237-0.042-0.352
		l3.267-4.049l-1.066-2.273h-9.114l-1.065,2.273l3.266,4.049c0.092,0.114,0.075,0.249-0.041,0.352l-2.83,2.483
		c-0.395,0.349-0.516,0.785-0.335,1.202c0.188,0.415,0.647,0.743,1.265,0.9l2.014,0.508c0.14,0.036,0.248,0.111,0.298,0.204
		c0.045,0.094,0.029,0.197-0.055,0.279L84.644,199.451z M85.412,206.947c-0.026,0-0.054-0.003-0.079-0.006
		c-0.223-0.022-0.397-0.14-0.422-0.285l-1.289-7.245c-0.014-0.074,0.014-0.152,0.076-0.215l2.136-2.187l-1.439-0.363
		c-0.916-0.231-1.597-0.718-1.869-1.333c-0.273-0.613-0.093-1.262,0.492-1.774l2.641-2.318l-3.218-3.988
		c-0.059-0.076-0.074-0.167-0.034-0.249l1.234-2.635c0.064-0.139,0.259-0.232,0.482-0.232h9.866c0.22,0,0.417,0.094,0.481,0.232
		l1.235,2.635c0.038,0.082,0.022,0.173-0.038,0.249l-3.215,3.988l2.641,2.318c0.585,0.513,0.764,1.161,0.493,1.774
		c-0.274,0.615-0.953,1.102-1.87,1.333l-1.438,0.363l2.135,2.187c0.063,0.063,0.091,0.141,0.076,0.215l-1.29,7.245
		c-0.024,0.146-0.196,0.263-0.42,0.285c-0.223,0.027-0.442-0.054-0.54-0.187l-3.184-4.511l-3.186,4.511
		C85.785,206.873,85.608,206.947,85.412,206.947"/>
</g>
<polygon fill="#F2B700" points="89.056,201.458 85.412,206.617 85.412,214.447 89.056,219.936 92.699,214.447 92.699,206.617 "/>
<g>
	<path d="M85.917,214.378l3.139,4.729l3.138-4.729v-7.688l-3.138-4.446l-3.139,4.446V214.378z M89.056,220.264
		c-0.202,0-0.383-0.078-0.463-0.198l-3.643-5.488c-0.028-0.042-0.042-0.086-0.042-0.13v-7.83c0-0.047,0.014-0.094,0.046-0.14
		l3.643-5.157c0.168-0.233,0.75-0.233,0.918,0l3.644,5.157c0.029,0.046,0.046,0.093,0.046,0.14v7.83c0,0.044-0.016,0.088-0.043,0.13
		l-3.642,5.488C89.438,220.186,89.258,220.264,89.056,220.264"/>
	<path fill="#F2B700" d="M92.699,214.447l-3.644,5.488l-3.644-5.488l-3.405-4.826c-0.32-0.455-1.369-0.249-1.25,0.245
		c0.933,3.927,3.235,11.171,8.299,16.509c5.063-5.338,7.365-12.582,8.301-16.509c0.116-0.494-0.935-0.7-1.255-0.245L92.699,214.447z
		"/>
	<path d="M81.422,209.696c-0.018,0-0.038,0.004-0.06,0.008c-0.126,0.024-0.114,0.09-0.105,0.111
		c0.886,3.732,3.067,10.667,7.799,15.922c4.733-5.255,6.914-12.189,7.8-15.922c0.005-0.021,0.021-0.087-0.106-0.111
		c-0.129-0.025-0.174,0.034-0.188,0.054l-3.402,4.823l-3.64,5.484c-0.162,0.241-0.766,0.241-0.927,0l-3.643-5.488l-3.401-4.819
		C81.536,209.742,81.505,209.696,81.422,209.696 M89.056,226.704c-0.175,0-0.337-0.06-0.427-0.157
		c-5.126-5.402-7.445-12.738-8.372-16.63c-0.091-0.384,0.243-0.733,0.812-0.844c0.576-0.111,1.147,0.057,1.398,0.41l3.403,4.824
		l3.186,4.799l3.18-4.79c0-0.003,0.004-0.005,0.004-0.009l3.406-4.824c0.251-0.354,0.823-0.522,1.396-0.41
		c0.568,0.11,0.903,0.46,0.813,0.844c-0.928,3.891-3.247,11.228-8.372,16.63C89.393,226.645,89.23,226.704,89.056,226.704"/>
</g>
<polygon fill="#F2B700" points="92.163,117.354 94.629,115.013 93.037,110.843 88.974,110.843 87.517,110.843 85.076,110.843 
	83.483,115.013 85.948,117.354 81.577,122.623 86.167,122.623 88.974,122.623 96.535,122.623 "/>
<g>
	<path d="M82.423,122.294h13.265l-3.968-4.783c-0.09-0.108-0.079-0.24,0.027-0.343l2.339-2.219l-1.445-3.777h-7.172l-1.445,3.777
		l2.339,2.219c0.107,0.103,0.118,0.235,0.028,0.343L82.423,122.294z M96.535,122.952H81.576c-0.178,0-0.344-0.06-0.434-0.161
		c-0.093-0.098-0.095-0.223-0.01-0.325l4.226-5.091l-2.294-2.176c-0.079-0.077-0.108-0.174-0.074-0.266l1.596-4.171
		c0.055-0.147,0.258-0.25,0.49-0.25h7.96c0.231,0,0.433,0.103,0.488,0.25l1.596,4.171c0.035,0.092,0.006,0.189-0.077,0.266
		l-2.29,2.176l4.227,5.091c0.085,0.102,0.084,0.227-0.01,0.325C96.879,122.892,96.713,122.952,96.535,122.952"/>
</g>
<polygon fill="#F2B700" points="89.056,117.812 87.01,120.391 89.056,121.598 91.101,120.391 "/>
<g>
	<path d="M87.637,120.316l1.419,0.838l1.419-0.838l-1.419-1.788L87.637,120.316z M89.056,121.927c-0.123,0-0.244-0.027-0.337-0.084
		l-2.048-1.207c-0.168-0.102-0.214-0.264-0.111-0.396l2.048-2.579c0.085-0.11,0.261-0.178,0.448-0.178
		c0.188,0,0.364,0.068,0.449,0.178l2.045,2.579c0.105,0.132,0.06,0.294-0.112,0.396l-2.045,1.207
		C89.3,121.9,89.179,121.927,89.056,121.927"/>
</g>
<polygon fill="#F2B700" points="89.056,111.884 87.01,114.463 89.056,116.384 91.101,114.463 "/>
<g>
	<path d="M87.597,114.439l1.459,1.369l1.459-1.369l-1.459-1.838L87.597,114.439z M89.056,116.714c-0.165,0-0.322-0.053-0.413-0.141
		l-2.045-1.921c-0.111-0.1-0.124-0.231-0.038-0.339l2.048-2.58c0.085-0.109,0.261-0.178,0.448-0.178
		c0.188,0,0.364,0.069,0.449,0.178l2.045,2.58c0.086,0.108,0.074,0.239-0.034,0.339l-2.047,1.921
		C89.377,116.661,89.222,116.714,89.056,116.714"/>
	<path fill="#F2B700" d="M95.559,100.25l-3.323,3.019l-3.18-3.458l-3.182,3.458l-3.321-3.019v3.055
		c5.383,4.171,2.602,7.538,2.602,7.538h3.901h3.898c0,0-2.779-3.367,2.604-7.538V100.25z"/>
	<path d="M85.912,110.512h6.287c-0.586-1.102-1.417-3.953,2.853-7.326v-1.912l-2.404,2.186c-0.099,0.091-0.258,0.147-0.43,0.138
		c-0.169-0.005-0.324-0.065-0.414-0.16l-2.748-2.987l-2.749,2.987c-0.09,0.095-0.245,0.155-0.413,0.16
		c-0.174,0.004-0.332-0.047-0.432-0.138l-2.403-2.186v1.912C87.329,106.559,86.498,109.41,85.912,110.512 M92.957,111.171h-7.802
		c-0.176,0-0.341-0.061-0.431-0.162c-0.091-0.099-0.096-0.222-0.01-0.324c0.105-0.129,2.531-3.234-2.546-7.168
		c-0.078-0.061-0.12-0.135-0.12-0.212v-3.056c0-0.143,0.14-0.269,0.349-0.314c0.207-0.044,0.437,0.006,0.567,0.122l2.87,2.612
		l2.79-3.029c0.091-0.099,0.255-0.159,0.432-0.159s0.341,0.06,0.432,0.159l2.788,3.029l2.871-2.612
		c0.131-0.116,0.358-0.165,0.568-0.122c0.206,0.045,0.349,0.171,0.349,0.314v3.056c0,0.077-0.041,0.151-0.12,0.212
		c-5.101,3.954-2.568,7.137-2.547,7.168c0.087,0.102,0.084,0.225-0.01,0.324C93.296,111.11,93.134,111.171,92.957,111.171"/>
	<path fill="#FFFFFF" d="M87.01,182.871c-0.372,0-0.673-0.195-0.673-0.438v-57.415c0-0.243,0.301-0.44,0.673-0.44
		c0.372,0,0.671,0.197,0.671,0.44v57.415C87.681,182.676,87.382,182.871,87.01,182.871"/>
	<path fill="#FFFFFF" d="M87.282,110.074c-0.014,0-0.029-0.001-0.046-0.002c-0.185-0.017-0.314-0.127-0.288-0.248
		c0.702-3.347-1.87-5.595-1.898-5.617c-0.109-0.097-0.083-0.235,0.065-0.308c0.148-0.073,0.36-0.055,0.471,0.041
		c0.115,0.097,2.767,2.419,2.031,5.944C87.592,109.994,87.449,110.074,87.282,110.074"/>
	<path fill="#FFFFFF" d="M84.086,121.818c-0.051,0-0.104-0.008-0.15-0.024c-0.164-0.055-0.235-0.186-0.15-0.295l3.234-4.197
		l-2.253-2.337c-0.047-0.05-0.06-0.111-0.04-0.168l1.113-3.074c0.045-0.117,0.222-0.19,0.407-0.163
		c0.18,0.029,0.292,0.147,0.25,0.265l-1.085,2.983l2.279,2.365c0.063,0.065,0.07,0.147,0.016,0.215l-3.321,4.309
		C84.328,121.773,84.208,121.818,84.086,121.818"/>
	<path fill="#FFFFFF" d="M86.272,202.995c-0.169,0-0.315-0.085-0.333-0.199l-0.505-3.292c-0.007-0.043,0.007-0.088,0.038-0.127
		l2.078-2.48c0.097-0.113,0.117-0.25,0.052-0.373c-0.076-0.148-0.267-0.265-0.502-0.305c-1.107-0.186-1.776-0.546-1.99-1.071
		c-0.52-1.286,2.061-3.135,2.774-3.611l-3.312-4.435c-0.045-0.057-0.051-0.123-0.01-0.183l1.01-1.536
		c0.073-0.111,0.273-0.162,0.438-0.114c0.174,0.047,0.252,0.177,0.179,0.287L85.241,187l3.352,4.483
		c0.062,0.085,0.038,0.188-0.068,0.253c-0.908,0.578-3.174,2.294-2.763,3.3c0.148,0.364,0.642,0.611,1.509,0.758
		c0.458,0.079,0.822,0.297,0.967,0.59c0.125,0.238,0.087,0.502-0.097,0.725l-2.029,2.422l0.494,3.223
		c0.021,0.121-0.115,0.229-0.299,0.241C86.295,202.995,86.282,202.995,86.272,202.995"/>
	<path fill="#FFFFFF" d="M89.056,217.777c-0.138,0-0.269-0.059-0.316-0.148l-1.944-3.658c-0.011-0.024-0.02-0.048-0.02-0.073v-7.134
		c0-0.04,0.018-0.076,0.046-0.108l1.942-2.23c0.09-0.106,0.295-0.145,0.459-0.083c0.161,0.059,0.217,0.193,0.124,0.299l-1.896,2.181
		v7.039l1.921,3.625c0.063,0.113-0.031,0.239-0.205,0.278C89.129,217.772,89.092,217.777,89.056,217.777"/>
	<path fill="#FFFFFF" d="M89.056,224.398c-0.108,0-0.212-0.033-0.279-0.096c-3.156-3.035-5.964-10.406-6.081-10.719
		c-0.044-0.117,0.066-0.236,0.247-0.264c0.178-0.03,0.363,0.042,0.407,0.158c0.026,0.076,2.895,7.607,5.984,10.576
		c0.104,0.102,0.062,0.238-0.09,0.307C89.188,224.386,89.122,224.398,89.056,224.398"/>
	<path fill="#FFFFFF" d="M64.14,42.955c-0.022,0-0.044-0.003-0.067-0.009c-0.135-0.037-0.216-0.177-0.179-0.313
		c2.846-10.532,16.005-15.57,22.601-15.392c0.141,0.004,0.252,0.12,0.248,0.261c-0.002,0.139-0.116,0.249-0.254,0.249
		c-0.002,0-0.004,0-0.007,0c-0.104-0.002-0.21-0.004-0.316-0.004c-7.342,0-19.271,5.734-21.78,15.019
		C64.355,42.88,64.253,42.955,64.14,42.955"/>
	<path fill="#FFFFFF" d="M89.056,98.041c-0.141,0-0.255-0.114-0.255-0.255c0-4.753,3.682-9.907,7.945-15.874
		c4.635-6.488,9.887-13.84,11.055-22.023c0.02-0.139,0.142-0.242,0.289-0.216c0.139,0.02,0.237,0.149,0.216,0.288
		c-1.185,8.306-6.477,15.712-11.145,22.247c-4.213,5.896-7.851,10.988-7.851,15.578C89.311,97.927,89.195,98.041,89.056,98.041"/>
</g>
</svg>
