<?xml version="1.0" encoding="utf-8"?>
<!-- Generator: Adobe Illustrator 15.0.1, SVG Export Plug-In . SVG Version: 6.00 Build 0)  -->
<!DOCTYPE svg PUBLIC "-//W3C//DTD SVG 1.1//EN" "http://www.w3.org/Graphics/SVG/1.1/DTD/svg11.dtd">
<svg version="1.1" id="Layer_1" xmlns="http://www.w3.org/2000/svg" xmlns:xlink="http://www.w3.org/1999/xlink" x="0px" y="0px"
	 width="178.583px" height="249.449px" viewBox="0 0 178.583 249.449" enable-background="new 0 0 178.583 249.449"
	 xml:space="preserve">
<g>
	<g>
		<path fill="#EAD598" d="M14.173,0C14.173,0,0,0,0,14.173v221.103c0,0,0,14.173,14.173,14.173h150.236c0,0,14.173,0,14.173-14.173
			V14.173c0,0,0-14.173-14.173-14.173H14.173z"/>
		<g>
			<path d="M27.638,12.794c5.138-0.252,10.276-0.406,15.413-0.605l15.414,0.005h30.827h30.826h15.413
				c5.139,0.202,10.275,0.357,15.413,0.6c-5.138,0.243-10.274,0.398-15.413,0.6h-15.413H89.292H58.465l-15.414,0.004
				C37.914,13.2,32.776,13.046,27.638,12.794"/>
		</g>
		<polygon points="27.638,236.66 43.051,236.368 58.465,236.201 89.292,236.061 120.118,236.198 135.531,236.366 150.944,236.66 
			135.531,236.954 120.118,237.122 89.292,237.261 58.465,237.119 43.051,236.952 		"/>
		<g>
			<path d="M12.791,27.284c0.251,8.135,0.409,16.269,0.602,24.405l-0.002,24.404v48.809v48.809v24.405l-0.6,24.403l-0.6-24.403
				v-24.405v-48.809V76.093l-0.002-24.404C12.382,43.553,12.54,35.419,12.791,27.284"/>
			<path d="M165.791,27.284c0.251,8.135,0.408,16.269,0.604,24.405l-0.003,24.404v48.809v48.809v24.405l-0.601,24.403l-0.6-24.403
				v-24.405v-48.809V76.093l-0.003-24.404C165.383,43.553,165.54,35.419,165.791,27.284"/>
			<path d="M23.502,11.118c-0.286-0.892-0.863-1.6-1.627-2.049c-2.048-1.207-5.43-0.452-5.967,1.998
				c-0.32,1.461,0.201,2.408,0.201,2.408s-0.463-0.407-0.65-0.769c-0.187-0.363-0.405-1.033-0.405-1.033s0.027,0.655,0.3,1.245
				c0.272,0.591,1.15,1.212,1.295,1.247c-0.066-0.125-0.282-0.369-0.351-0.888c-0.068-0.519-0.165-1.585,0.467-2.49
				c0.631-0.905,1.985-1.804,3.499-1.395c1.514,0.409,2.205,1.692,2.222,2.83s-0.116,2.032-1.453,3.801
				c-1.112,1.471-1.537,1.503-1.545,3.084l0.021,0.014c-0.163,0.09-0.302,0.214-0.384,0.382l-0.018-0.026
				c-1.581,0.007-1.613,0.433-3.084,1.545c-1.769,1.337-2.663,1.47-3.801,1.453c-1.138-0.017-2.421-0.708-2.83-2.222
				c-0.409-1.514,0.49-2.868,1.395-3.499c0.905-0.632,1.971-0.535,2.49-0.467c0.518,0.069,0.763,0.285,0.888,0.351
				c-0.035-0.145-0.656-1.023-1.247-1.295c-0.59-0.273-1.245-0.3-1.245-0.3s0.67,0.218,1.033,0.405
				c0.362,0.187,0.769,0.65,0.769,0.65s-0.947-0.521-2.408-0.201c-2.45,0.537-3.205,3.919-1.998,5.967
				c0.449,0.764,1.157,1.341,2.049,1.627c0.795,0.255,1.475,0.353,2.443,0.098c0.967-0.255,1.839-0.884,2.603-1.487
				c0.726-0.573,1.613-1.813,2.942-1.827l0.011-0.021c0.141,0.302,0.442,0.514,0.797,0.514c0.488,0,0.883-0.396,0.883-0.883
				c0-0.353-0.21-0.653-0.509-0.794c0.024-1.321,1.255-2.204,1.825-2.927c0.603-0.764,1.232-1.636,1.487-2.603
				C23.855,12.593,23.757,11.913,23.502,11.118 M21.062,19.903c0,0.157-0.032,0.307-0.088,0.444l6.142,0.262v-1.413l-6.142,0.262
				C21.03,19.595,21.062,19.745,21.062,19.903 M27.426,20.656v-1.489l1.587-0.541l0.832,0.702l0.496-0.591
				c0.18-0.215,0.438-0.095,0.519,0.241l0.102,0.421l0.503-0.516l1.32,0.246l-0.932,0.689c-0.046,0.035-0.046,0.157,0,0.192
				l0.932,0.689l-1.32,0.246l-0.503-0.516L30.86,20.85c-0.081,0.336-0.339,0.455-0.519,0.241L29.845,20.5l-0.832,0.702
				L27.426,20.656z M33.961,19.152h-0.654c-0.039,0.047-1.014,0.762-1.014,0.762s0.971,0.723,1.012,0.761h0.656l1.129-0.761
				L33.961,19.152z M33.509,21.386l2.083-1.375c0.024-0.017,0.04-0.054,0.04-0.097c0-0.042-0.016-0.08-0.04-0.097l-2.083-1.376
				c-0.091-0.066-0.05-0.286,0.049-0.261c0.783,0.195,2.228,0.676,3.293,1.734c-1.065,1.058-2.51,1.539-3.293,1.734
				C33.459,21.673,33.418,21.453,33.509,21.386 M19.914,21.063c0.157,0,0.307-0.033,0.445-0.089l0.262,6.142h-1.414l0.262-6.142
				C19.606,21.03,19.756,21.063,19.914,21.063 M20.667,27.426h-1.489l-0.541,1.587l0.702,0.832l-0.591,0.496
				c-0.215,0.18-0.095,0.438,0.241,0.519l0.421,0.102l-0.516,0.503l0.246,1.32l0.689-0.931c0.036-0.047,0.157-0.047,0.192,0
				l0.689,0.931l0.246-1.32l-0.516-0.503l0.421-0.102c0.336-0.081,0.455-0.339,0.241-0.519l-0.591-0.496l0.702-0.832L20.667,27.426z
				 M19.163,33.961v-0.654c0.047-0.039,0.762-1.014,0.762-1.014s0.723,0.971,0.761,1.012v0.656l-0.761,1.129L19.163,33.961z
				 M21.397,33.509l-1.375,2.083c-0.017,0.024-0.054,0.04-0.097,0.04c-0.042,0-0.08-0.016-0.097-0.04l-1.376-2.083
				c-0.066-0.091-0.286-0.05-0.26,0.049c0.194,0.783,0.675,2.228,1.733,3.293c1.058-1.065,1.539-2.51,1.734-3.293
				C21.684,33.459,21.464,33.418,21.397,33.509"/>
			<path d="M23.502,238.331c-0.286,0.893-0.863,1.601-1.627,2.05c-2.048,1.207-5.43,0.451-5.967-1.998
				c-0.32-1.461,0.201-2.408,0.201-2.408s-0.463,0.407-0.65,0.769c-0.187,0.363-0.405,1.033-0.405,1.033s0.027-0.655,0.3-1.245
				c0.272-0.591,1.15-1.212,1.295-1.247c-0.066,0.125-0.282,0.369-0.351,0.889c-0.068,0.519-0.165,1.585,0.467,2.489
				c0.631,0.905,1.985,1.805,3.499,1.396c1.514-0.409,2.205-1.692,2.222-2.83s-0.116-2.032-1.453-3.801
				c-1.112-1.472-1.537-1.503-1.545-3.084l0.021-0.015c-0.163-0.09-0.302-0.214-0.384-0.382l-0.018,0.026
				c-1.581-0.007-1.613-0.434-3.084-1.545c-1.769-1.337-2.663-1.471-3.801-1.453c-1.138,0.017-2.421,0.708-2.83,2.222
				c-0.409,1.514,0.49,2.868,1.395,3.499c0.905,0.632,1.971,0.535,2.49,0.467c0.518-0.068,0.763-0.285,0.888-0.351
				c-0.035,0.145-0.656,1.022-1.247,1.295c-0.59,0.273-1.245,0.3-1.245,0.3s0.67-0.218,1.033-0.405
				c0.362-0.187,0.769-0.649,0.769-0.649s-0.947,0.521-2.408,0.201c-2.45-0.537-3.205-3.919-1.998-5.968
				c0.449-0.764,1.157-1.341,2.049-1.627c0.795-0.255,1.475-0.353,2.443-0.098c0.967,0.255,1.839,0.884,2.603,1.487
				c0.726,0.573,1.613,1.813,2.942,1.827l0.011,0.021c0.141-0.302,0.442-0.514,0.797-0.514c0.488,0,0.883,0.396,0.883,0.883
				c0,0.353-0.21,0.653-0.509,0.794c0.024,1.321,1.255,2.204,1.825,2.927c0.603,0.765,1.232,1.637,1.487,2.604
				C23.855,236.856,23.757,237.536,23.502,238.331 M21.062,229.547c0-0.157-0.032-0.308-0.088-0.444l6.142-0.262v1.413l-6.142-0.263
				C21.03,229.854,21.062,229.704,21.062,229.547 M27.426,228.793v1.489l1.587,0.541l0.832-0.702l0.496,0.592
				c0.18,0.215,0.438,0.095,0.519-0.241l0.102-0.421l0.503,0.516l1.32-0.246l-0.932-0.688c-0.046-0.035-0.046-0.157,0-0.192
				l0.932-0.689l-1.32-0.245l-0.503,0.516L30.86,228.6c-0.081-0.336-0.339-0.455-0.519-0.241l-0.496,0.591l-0.832-0.702
				L27.426,228.793z M33.961,230.298h-0.654c-0.039-0.048-1.014-0.763-1.014-0.763s0.971-0.723,1.012-0.761h0.656l1.129,0.761
				L33.961,230.298z M33.509,228.063l2.083,1.375c0.024,0.017,0.04,0.054,0.04,0.097c0,0.042-0.016,0.08-0.04,0.098l-2.083,1.376
				c-0.091,0.065-0.05,0.285,0.049,0.261c0.783-0.195,2.228-0.676,3.293-1.734c-1.065-1.058-2.51-1.539-3.293-1.733
				C33.459,227.776,33.418,227.996,33.509,228.063 M19.914,228.387c0.157,0,0.307,0.032,0.445,0.089l0.262-6.143h-1.414l0.262,6.143
				C19.606,228.419,19.756,228.387,19.914,228.387 M20.667,222.023h-1.489l-0.541-1.587l0.702-0.832l-0.591-0.496
				c-0.215-0.18-0.095-0.438,0.241-0.519l0.421-0.103l-0.516-0.503l0.246-1.32l0.689,0.932c0.036,0.047,0.157,0.047,0.192,0
				l0.689-0.932l0.246,1.32l-0.516,0.503l0.421,0.103c0.336,0.081,0.455,0.339,0.241,0.519l-0.591,0.496l0.702,0.832L20.667,222.023
				z M19.163,215.488v0.654c0.047,0.039,0.762,1.014,0.762,1.014s0.723-0.971,0.761-1.012v-0.656l-0.761-1.129L19.163,215.488z
				 M21.397,215.94l-1.375-2.083c-0.017-0.024-0.054-0.04-0.097-0.04c-0.042,0-0.08,0.016-0.097,0.04l-1.376,2.083
				c-0.066,0.091-0.286,0.05-0.26-0.049c0.194-0.783,0.675-2.229,1.733-3.293c1.058,1.064,1.539,2.51,1.734,3.293
				C21.684,215.99,21.464,216.031,21.397,215.94"/>
			<path d="M155.081,11.118c0.286-0.892,0.862-1.6,1.627-2.049c2.048-1.207,5.43-0.452,5.967,1.998
				c0.32,1.461-0.201,2.408-0.201,2.408s0.463-0.407,0.65-0.769c0.187-0.363,0.404-1.033,0.404-1.033s-0.026,0.655-0.3,1.245
				c-0.271,0.591-1.149,1.212-1.295,1.247c0.066-0.125,0.282-0.369,0.352-0.888c0.067-0.519,0.165-1.585-0.468-2.49
				c-0.631-0.905-1.984-1.804-3.499-1.395c-1.514,0.409-2.204,1.692-2.222,2.83c-0.017,1.138,0.116,2.032,1.453,3.801
				c1.112,1.471,1.537,1.503,1.545,3.084l-0.021,0.014c0.162,0.09,0.302,0.214,0.384,0.382l0.018-0.026
				c1.581,0.007,1.613,0.433,3.084,1.545c1.77,1.337,2.663,1.47,3.801,1.453c1.139-0.017,2.422-0.708,2.83-2.222
				c0.409-1.514-0.489-2.868-1.395-3.499c-0.905-0.632-1.971-0.535-2.49-0.467c-0.518,0.069-0.763,0.285-0.888,0.351
				c0.035-0.145,0.656-1.023,1.247-1.295c0.59-0.273,1.245-0.3,1.245-0.3s-0.67,0.218-1.033,0.405c-0.362,0.187-0.77,0.65-0.77,0.65
				s0.947-0.521,2.408-0.201c2.45,0.537,3.205,3.919,1.998,5.967c-0.449,0.764-1.157,1.341-2.049,1.627
				c-0.795,0.255-1.475,0.353-2.443,0.098c-0.967-0.255-1.839-0.884-2.603-1.487c-0.727-0.573-1.613-1.813-2.942-1.827l-0.011-0.021
				c-0.141,0.302-0.442,0.514-0.797,0.514c-0.488,0-0.883-0.396-0.883-0.883c0-0.353,0.21-0.653,0.509-0.794
				c-0.024-1.321-1.255-2.204-1.825-2.927c-0.603-0.764-1.231-1.636-1.487-2.603C154.728,12.593,154.826,11.913,155.081,11.118
				 M157.521,19.903c0,0.157,0.032,0.307,0.088,0.444l-6.142,0.262v-1.413l6.142,0.262
				C157.553,19.595,157.521,19.745,157.521,19.903 M151.157,20.656v-1.489l-1.588-0.541l-0.831,0.702l-0.496-0.591
				c-0.181-0.215-0.438-0.095-0.52,0.241l-0.102,0.421l-0.503-0.516l-1.32,0.246l0.932,0.689c0.046,0.035,0.046,0.157,0,0.192
				l-0.932,0.689l1.32,0.246l0.503-0.516l0.102,0.421c0.081,0.336,0.339,0.455,0.52,0.241l0.496-0.591l0.831,0.702L151.157,20.656z
				 M144.622,19.152h0.653c0.039,0.047,1.015,0.762,1.015,0.762s-0.972,0.723-1.013,0.761h-0.655l-1.129-0.761L144.622,19.152z
				 M145.074,21.386l-2.083-1.375c-0.024-0.017-0.04-0.054-0.04-0.097c0-0.042,0.016-0.08,0.04-0.097l2.083-1.376
				c0.091-0.066,0.05-0.286-0.05-0.261c-0.782,0.195-2.228,0.676-3.293,1.734c1.065,1.058,2.511,1.539,3.293,1.734
				C145.124,21.673,145.165,21.453,145.074,21.386 M158.669,21.063c-0.157,0-0.308-0.033-0.445-0.089l-0.262,6.142h1.414
				l-0.262-6.142C158.977,21.03,158.827,21.063,158.669,21.063 M157.916,27.426h1.489l0.54,1.587l-0.701,0.832l0.591,0.496
				c0.215,0.18,0.095,0.438-0.241,0.519l-0.421,0.102l0.516,0.503l-0.246,1.32l-0.688-0.931c-0.036-0.047-0.157-0.047-0.192,0
				l-0.688,0.931l-0.246-1.32l0.516-0.503l-0.421-0.102c-0.336-0.081-0.455-0.339-0.241-0.519l0.592-0.496l-0.702-0.832
				L157.916,27.426z M159.42,33.961v-0.654c-0.047-0.039-0.762-1.014-0.762-1.014s-0.724,0.971-0.762,1.012v0.656l0.762,1.129
				L159.42,33.961z M157.186,33.509l1.375,2.083c0.018,0.024,0.055,0.04,0.098,0.04c0.042,0,0.08-0.016,0.097-0.04l1.376-2.083
				c0.066-0.091,0.286-0.05,0.26,0.049c-0.193,0.783-0.675,2.228-1.732,3.293c-1.059-1.065-1.539-2.51-1.734-3.293
				C156.898,33.459,157.119,33.418,157.186,33.509"/>
			<path d="M155.081,238.331c0.286,0.893,0.862,1.601,1.627,2.05c2.048,1.207,5.43,0.451,5.967-1.998
				c0.32-1.461-0.201-2.408-0.201-2.408s0.463,0.407,0.65,0.769c0.187,0.363,0.404,1.033,0.404,1.033s-0.026-0.655-0.3-1.245
				c-0.271-0.591-1.149-1.212-1.295-1.247c0.066,0.125,0.282,0.369,0.352,0.889c0.067,0.519,0.165,1.585-0.468,2.489
				c-0.631,0.905-1.984,1.805-3.499,1.396c-1.514-0.409-2.204-1.692-2.222-2.83c-0.017-1.138,0.116-2.032,1.453-3.801
				c1.112-1.472,1.537-1.503,1.545-3.084l-0.021-0.015c0.162-0.09,0.302-0.214,0.384-0.382l0.018,0.026
				c1.581-0.007,1.613-0.434,3.084-1.545c1.77-1.337,2.663-1.471,3.801-1.453c1.139,0.017,2.422,0.708,2.83,2.222
				c0.409,1.514-0.489,2.868-1.395,3.499c-0.905,0.632-1.971,0.535-2.49,0.467c-0.518-0.068-0.763-0.285-0.888-0.351
				c0.035,0.145,0.656,1.022,1.247,1.295c0.59,0.273,1.245,0.3,1.245,0.3s-0.67-0.218-1.033-0.405
				c-0.362-0.187-0.77-0.649-0.77-0.649s0.947,0.521,2.408,0.201c2.45-0.537,3.205-3.919,1.998-5.968
				c-0.449-0.764-1.157-1.341-2.049-1.627c-0.795-0.255-1.475-0.353-2.443-0.098c-0.967,0.255-1.839,0.884-2.603,1.487
				c-0.727,0.573-1.613,1.813-2.942,1.827l-0.011,0.021c-0.141-0.302-0.442-0.514-0.797-0.514c-0.488,0-0.883,0.396-0.883,0.883
				c0,0.353,0.21,0.653,0.509,0.794c-0.024,1.321-1.255,2.204-1.825,2.927c-0.603,0.765-1.231,1.637-1.487,2.604
				C154.728,236.856,154.826,237.536,155.081,238.331 M157.521,229.547c0-0.157,0.032-0.308,0.088-0.444l-6.142-0.262v1.413
				l6.142-0.263C157.553,229.854,157.521,229.704,157.521,229.547 M151.157,228.793v1.489l-1.588,0.541l-0.831-0.702l-0.496,0.592
				c-0.181,0.215-0.438,0.095-0.52-0.241l-0.102-0.421l-0.503,0.516l-1.32-0.246l0.932-0.688c0.046-0.035,0.046-0.157,0-0.192
				l-0.932-0.689l1.32-0.245l0.503,0.516l0.102-0.421c0.081-0.336,0.339-0.455,0.52-0.241l0.496,0.591l0.831-0.702L151.157,228.793z
				 M144.622,230.298h0.653c0.039-0.048,1.015-0.763,1.015-0.763s-0.972-0.723-1.013-0.761h-0.655l-1.129,0.761L144.622,230.298z
				 M145.074,228.063l-2.083,1.375c-0.024,0.017-0.04,0.054-0.04,0.097c0,0.042,0.016,0.08,0.04,0.098l2.083,1.376
				c0.091,0.065,0.05,0.285-0.05,0.261c-0.782-0.195-2.228-0.676-3.293-1.734c1.065-1.058,2.511-1.539,3.293-1.733
				C145.124,227.776,145.165,227.996,145.074,228.063 M158.669,228.387c-0.157,0-0.308,0.032-0.445,0.089l-0.262-6.143h1.414
				l-0.262,6.143C158.977,228.419,158.827,228.387,158.669,228.387 M157.916,222.023h1.489l0.54-1.587l-0.701-0.832l0.591-0.496
				c0.215-0.18,0.095-0.438-0.241-0.519l-0.421-0.103l0.516-0.503l-0.246-1.32l-0.688,0.932c-0.036,0.047-0.157,0.047-0.192,0
				l-0.688-0.932l-0.246,1.32l0.516,0.503l-0.421,0.103c-0.336,0.081-0.455,0.339-0.241,0.519l0.592,0.496l-0.702,0.832
				L157.916,222.023z M159.42,215.488v0.654c-0.047,0.039-0.762,1.014-0.762,1.014s-0.724-0.971-0.762-1.012v-0.656l0.762-1.129
				L159.42,215.488z M157.186,215.94l1.375-2.083c0.018-0.024,0.055-0.04,0.098-0.04c0.042,0,0.08,0.016,0.097,0.04l1.376,2.083
				c0.066,0.091,0.286,0.05,0.26-0.049c-0.193-0.783-0.675-2.229-1.732-3.293c-1.059,1.064-1.539,2.51-1.734,3.293
				C156.898,215.99,157.119,216.031,157.186,215.94"/>
		</g>
	</g>
	<path d="M61.195,111.902l3.362-2.928h49.469l3.404,2.887L61.195,111.902z M58.526,110.102V70.067l3.869,3.363v33.31L58.526,110.102
		z M113.085,87.343v18.528H67.309c1.955-2.907,6.062-7.418,11.886-5.659c2.373,0.732,4.708,1.584,6.993,2.556
		c4.489,1.841,7.738,3.175,13.78,1.572c4.51-1.2,6.041-5.628,7.407-9.538C108.853,90.561,109.98,87.799,113.085,87.343
		 M104.446,93.819c-1.211,3.487-2.348,6.776-5.266,7.552c-5.038,1.397-7.448,0.361-11.814-1.427
		c-2.367-1.011-4.783-1.898-7.24-2.659c-6.466-1.945-11.525,1.862-14.629,5.751V74.257h47.587v9.962
		C107.602,84.737,105.843,89.743,104.446,93.819 M120.098,110.102l-3.91-3.362V73.43l3.952-3.352L120.098,110.102z M117.429,68.268
		l-3.403,2.886H64.557l-3.403-2.886H117.429z M123.149,66.333c0.003-0.052,0.003-0.104,0-0.155l-0.062-0.134l-0.073-0.135
		l-0.092-0.134v-0.072l-0.249-0.177l-0.114-0.093l-0.165-0.052l-0.124-0.072l-0.145-0.062H56.375l-0.156,0.062l-0.123,0.062
		l-0.135,0.083l-0.114,0.093l-0.114,0.114v0.073l-0.093,0.134l-0.072,0.134l-0.062,0.134c-0.003,0.052-0.003,0.104,0,0.155v0.134
		c-0.003,0.056-0.003,0.112,0,0.167v0.082v46.779v0.083c-0.003,0.055-0.003,0.111,0,0.166v0.134c-0.003,0.052-0.003,0.103,0,0.156
		l0.062,0.134l0.072,0.134l0.093,0.135v0.072l0.145,0.134l0.093,0.083l0.176,0.104l0.093,0.051l0.238,0.083h0.062
		c0.106,0.012,0.214,0.012,0.321,0h64.79c0.106,0.012,0.213,0.012,0.32,0h0.062l0.238-0.083l0.093-0.051l0.177-0.104l0.093-0.083
		l0.145-0.134v-0.072l0.094-0.135l0.071-0.134l0.063-0.134c0.004-0.053,0.004-0.104,0-0.156v-0.134c0.004-0.055,0.004-0.111,0-0.166
		v-0.083V66.716v-0.083c0.004-0.055,0.004-0.111,0-0.166C123.005,66.467,123.161,66.375,123.149,66.333"/>
	<path d="M46.102,122.112c2.348,0,4.252,1.904,4.252,4.252c0,2.348-1.904,4.252-4.252,4.252c-2.349,0-4.252-1.904-4.252-4.252
		C41.856,124.018,43.756,122.117,46.102,122.112 M50.654,144.695c10.797,4.711,23.034,4.885,33.961,0.485v23.131H50.654V144.695z
		 M50.654,139.521c10.797,4.713,23.034,4.888,33.961,0.486v1.801c-10.851,4.78-23.247,4.596-33.951-0.507L50.654,139.521z
		 M89.167,122.112c2.348,0,4.252,1.904,4.252,4.252c0,2.348-1.904,4.252-4.252,4.252c-2.348,0-4.251-1.904-4.251-4.252
		C84.921,124.018,86.822,122.117,89.167,122.112 M93.729,144.995c10.881,4.743,23.223,4.874,34.2,0.361v22.935h-34.2V144.995z
		 M93.729,139.823c10.881,4.743,23.223,4.874,34.2,0.36v1.801c-10.908,4.889-23.411,4.742-34.2-0.403V139.823z M132.492,122.112
		c2.348,0,4.251,1.904,4.251,4.252c0,2.348-1.903,4.252-4.251,4.252c-2.35,0-4.253-1.904-4.253-4.252
		c0.006-2.342,1.899-4.241,4.241-4.252H132.492z M131.033,168.301v-34.716c0.959,0.193,1.947,0.193,2.906,0v34.716H131.033z
		 M87.719,168.301v-34.716c0.959,0.193,1.947,0.193,2.907,0v34.716H87.719z M44.643,168.301v-34.716
		c0.959,0.193,1.948,0.193,2.907,0v34.716H44.643z M34.123,171.405H144.46c0.856,0,1.552-0.696,1.552-1.552
		c0-0.856-0.695-1.553-1.552-1.553h-7.417v-36.206c3.188-2.517,3.733-7.142,1.217-10.33c-2.517-3.189-7.142-3.734-10.33-1.217
		s-3.734,7.142-1.217,10.331c0.356,0.451,0.765,0.859,1.217,1.216v4.665c-10.908,4.891-23.412,4.743-34.201-0.403v-4.22
		c3.189-2.517,3.734-7.143,1.217-10.331c-2.517-3.189-7.142-3.734-10.331-1.217c-3.187,2.517-3.732,7.142-1.215,10.331
		c0.357,0.452,0.764,0.859,1.215,1.217v4.458c-10.851,4.78-23.247,4.595-33.951-0.507v-3.951c3.188-2.517,3.734-7.143,1.217-10.331
		c-2.517-3.189-7.142-3.734-10.331-1.217c-3.187,2.517-3.732,7.142-1.216,10.331c0.357,0.452,0.764,0.859,1.216,1.217v36.206h-7.427
		c-0.857,0-1.552,0.695-1.552,1.552s0.695,1.553,1.552,1.553V171.405z"/>
	<path d="M92.054,91.047c-2.593,0-4.697-2.103-4.697-4.696c0-2.594,2.104-4.697,4.697-4.697s4.696,2.103,4.696,4.697
		c0,2.595-2.102,4.7-4.696,4.706V91.047z M92.054,78.55c-4.308,0-7.801,3.493-7.801,7.801c0,4.307,3.493,7.799,7.801,7.799
		c4.307,0,7.799-3.492,7.799-7.799C99.847,82.045,96.358,78.556,92.054,78.55"/>
</g>
</svg>
