<?xml version="1.0" encoding="utf-8"?>
<!-- Generator: Adobe Illustrator 15.0.1, SVG Export Plug-In . SVG Version: 6.00 Build 0)  -->
<!DOCTYPE svg PUBLIC "-//W3C//DTD SVG 1.1//EN" "http://www.w3.org/Graphics/SVG/1.1/DTD/svg11.dtd">
<svg version="1.1" id="Layer_1" xmlns="http://www.w3.org/2000/svg" xmlns:xlink="http://www.w3.org/1999/xlink" x="0px" y="0px"
	 width="178.583px" height="249.449px" viewBox="0 0 178.583 249.449" enable-background="new 0 0 178.583 249.449"
	 xml:space="preserve">
<g>
	<g>
		<path fill="#EAD598" d="M14.173,0C14.173,0,0,0,0,14.173v221.103c0,0,0,14.173,14.173,14.173h150.236c0,0,14.173,0,14.173-14.173
			V14.173c0,0,0-14.173-14.173-14.173H14.173z"/>
		<g>
			<path d="M27.638,12.794c5.138-0.252,10.276-0.406,15.413-0.605l15.414,0.005h30.827h30.826h15.413
				c5.139,0.202,10.275,0.357,15.413,0.6c-5.138,0.243-10.274,0.398-15.413,0.6h-15.413H89.292H58.465l-15.414,0.004
				C37.914,13.2,32.776,13.046,27.638,12.794"/>
		</g>
		<polygon points="27.638,236.66 43.051,236.368 58.465,236.201 89.292,236.061 120.118,236.198 135.531,236.366 150.944,236.66 
			135.531,236.954 120.118,237.122 89.292,237.261 58.465,237.119 43.051,236.952 		"/>
		<g>
			<path d="M12.791,27.284c0.251,8.135,0.409,16.269,0.602,24.405l-0.002,24.404v48.809v48.809v24.405l-0.6,24.403l-0.6-24.403
				v-24.405v-48.809V76.093l-0.002-24.404C12.382,43.553,12.54,35.419,12.791,27.284"/>
			<path d="M165.791,27.284c0.251,8.135,0.408,16.269,0.604,24.405l-0.003,24.404v48.809v48.809v24.405l-0.601,24.403l-0.6-24.403
				v-24.405v-48.809V76.093l-0.003-24.404C165.383,43.553,165.54,35.419,165.791,27.284"/>
			<path d="M23.502,11.118c-0.286-0.892-0.863-1.6-1.627-2.049c-2.048-1.207-5.43-0.452-5.967,1.998
				c-0.32,1.461,0.201,2.408,0.201,2.408s-0.463-0.407-0.65-0.769c-0.187-0.363-0.405-1.033-0.405-1.033s0.027,0.655,0.3,1.245
				c0.272,0.591,1.15,1.212,1.295,1.247c-0.066-0.125-0.282-0.369-0.351-0.888c-0.068-0.519-0.165-1.585,0.467-2.49
				c0.631-0.905,1.985-1.804,3.499-1.395c1.514,0.409,2.205,1.692,2.222,2.83s-0.116,2.032-1.453,3.801
				c-1.112,1.471-1.537,1.503-1.545,3.084l0.021,0.014c-0.163,0.09-0.302,0.214-0.384,0.382l-0.018-0.026
				c-1.581,0.007-1.613,0.433-3.084,1.545c-1.769,1.337-2.663,1.47-3.801,1.453c-1.138-0.017-2.421-0.708-2.83-2.222
				c-0.409-1.514,0.49-2.868,1.395-3.499c0.905-0.632,1.971-0.535,2.49-0.467c0.518,0.069,0.763,0.285,0.888,0.351
				c-0.035-0.145-0.656-1.023-1.247-1.295c-0.59-0.273-1.245-0.3-1.245-0.3s0.67,0.218,1.033,0.405
				c0.362,0.187,0.769,0.65,0.769,0.65s-0.947-0.521-2.408-0.201c-2.45,0.537-3.205,3.919-1.998,5.967
				c0.449,0.764,1.157,1.341,2.049,1.627c0.795,0.255,1.475,0.353,2.443,0.098c0.967-0.255,1.839-0.884,2.603-1.487
				c0.726-0.573,1.613-1.813,2.942-1.827l0.011-0.021c0.141,0.302,0.442,0.514,0.797,0.514c0.488,0,0.883-0.396,0.883-0.883
				c0-0.353-0.21-0.653-0.509-0.794c0.024-1.321,1.255-2.204,1.825-2.927c0.603-0.764,1.232-1.636,1.487-2.603
				C23.855,12.593,23.757,11.913,23.502,11.118 M21.062,19.903c0,0.157-0.032,0.307-0.088,0.444l6.142,0.262v-1.413l-6.142,0.262
				C21.03,19.595,21.062,19.745,21.062,19.903 M27.426,20.656v-1.489l1.587-0.541l0.832,0.702l0.496-0.591
				c0.18-0.215,0.438-0.095,0.519,0.241l0.102,0.421l0.503-0.516l1.32,0.246l-0.932,0.689c-0.046,0.035-0.046,0.157,0,0.192
				l0.932,0.689l-1.32,0.246l-0.503-0.516L30.86,20.85c-0.081,0.336-0.339,0.455-0.519,0.241L29.845,20.5l-0.832,0.702
				L27.426,20.656z M33.961,19.152h-0.654c-0.039,0.047-1.014,0.762-1.014,0.762s0.971,0.723,1.012,0.761h0.656l1.129-0.761
				L33.961,19.152z M33.509,21.386l2.083-1.375c0.024-0.017,0.04-0.054,0.04-0.097c0-0.042-0.016-0.08-0.04-0.097l-2.083-1.376
				c-0.091-0.066-0.05-0.286,0.049-0.261c0.783,0.195,2.228,0.676,3.293,1.734c-1.065,1.058-2.51,1.539-3.293,1.734
				C33.459,21.673,33.418,21.453,33.509,21.386 M19.914,21.063c0.157,0,0.307-0.033,0.445-0.089l0.262,6.142h-1.414l0.262-6.142
				C19.606,21.03,19.756,21.063,19.914,21.063 M20.667,27.426h-1.489l-0.541,1.587l0.702,0.832l-0.591,0.496
				c-0.215,0.18-0.095,0.438,0.241,0.519l0.421,0.102l-0.516,0.503l0.246,1.32l0.689-0.931c0.036-0.047,0.157-0.047,0.192,0
				l0.689,0.931l0.246-1.32l-0.516-0.503l0.421-0.102c0.336-0.081,0.455-0.339,0.241-0.519l-0.591-0.496l0.702-0.832L20.667,27.426z
				 M19.163,33.961v-0.654c0.047-0.039,0.762-1.014,0.762-1.014s0.723,0.971,0.761,1.012v0.656l-0.761,1.129L19.163,33.961z
				 M21.397,33.509l-1.375,2.083c-0.017,0.024-0.054,0.04-0.097,0.04c-0.042,0-0.08-0.016-0.097-0.04l-1.376-2.083
				c-0.066-0.091-0.286-0.05-0.26,0.049c0.194,0.783,0.675,2.228,1.733,3.293c1.058-1.065,1.539-2.51,1.734-3.293
				C21.684,33.459,21.464,33.418,21.397,33.509"/>
			<path d="M23.502,238.331c-0.286,0.893-0.863,1.601-1.627,2.05c-2.048,1.207-5.43,0.451-5.967-1.998
				c-0.32-1.461,0.201-2.408,0.201-2.408s-0.463,0.407-0.65,0.769c-0.187,0.363-0.405,1.033-0.405,1.033s0.027-0.655,0.3-1.245
				c0.272-0.591,1.15-1.212,1.295-1.247c-0.066,0.125-0.282,0.369-0.351,0.889c-0.068,0.519-0.165,1.585,0.467,2.489
				c0.631,0.905,1.985,1.805,3.499,1.396c1.514-0.409,2.205-1.692,2.222-2.83s-0.116-2.032-1.453-3.801
				c-1.112-1.472-1.537-1.503-1.545-3.084l0.021-0.015c-0.163-0.09-0.302-0.214-0.384-0.382l-0.018,0.026
				c-1.581-0.007-1.613-0.434-3.084-1.545c-1.769-1.337-2.663-1.471-3.801-1.453c-1.138,0.017-2.421,0.708-2.83,2.222
				c-0.409,1.514,0.49,2.868,1.395,3.499c0.905,0.632,1.971,0.535,2.49,0.467c0.518-0.068,0.763-0.285,0.888-0.351
				c-0.035,0.145-0.656,1.022-1.247,1.295c-0.59,0.273-1.245,0.3-1.245,0.3s0.67-0.218,1.033-0.405
				c0.362-0.187,0.769-0.649,0.769-0.649s-0.947,0.521-2.408,0.201c-2.45-0.537-3.205-3.919-1.998-5.968
				c0.449-0.764,1.157-1.341,2.049-1.627c0.795-0.255,1.475-0.353,2.443-0.098c0.967,0.255,1.839,0.884,2.603,1.487
				c0.726,0.573,1.613,1.813,2.942,1.827l0.011,0.021c0.141-0.302,0.442-0.514,0.797-0.514c0.488,0,0.883,0.396,0.883,0.883
				c0,0.353-0.21,0.653-0.509,0.794c0.024,1.321,1.255,2.204,1.825,2.927c0.603,0.765,1.232,1.637,1.487,2.604
				C23.855,236.856,23.757,237.536,23.502,238.331 M21.062,229.547c0-0.157-0.032-0.308-0.088-0.444l6.142-0.262v1.413l-6.142-0.263
				C21.03,229.854,21.062,229.704,21.062,229.547 M27.426,228.793v1.489l1.587,0.541l0.832-0.702l0.496,0.592
				c0.18,0.215,0.438,0.095,0.519-0.241l0.102-0.421l0.503,0.516l1.32-0.246l-0.932-0.688c-0.046-0.035-0.046-0.157,0-0.192
				l0.932-0.689l-1.32-0.245l-0.503,0.516L30.86,228.6c-0.081-0.336-0.339-0.455-0.519-0.241l-0.496,0.591l-0.832-0.702
				L27.426,228.793z M33.961,230.298h-0.654c-0.039-0.048-1.014-0.763-1.014-0.763s0.971-0.723,1.012-0.761h0.656l1.129,0.761
				L33.961,230.298z M33.509,228.063l2.083,1.375c0.024,0.017,0.04,0.054,0.04,0.097c0,0.042-0.016,0.08-0.04,0.098l-2.083,1.376
				c-0.091,0.065-0.05,0.285,0.049,0.261c0.783-0.195,2.228-0.676,3.293-1.734c-1.065-1.058-2.51-1.539-3.293-1.733
				C33.459,227.776,33.418,227.996,33.509,228.063 M19.914,228.387c0.157,0,0.307,0.032,0.445,0.089l0.262-6.143h-1.414l0.262,6.143
				C19.606,228.419,19.756,228.387,19.914,228.387 M20.667,222.023h-1.489l-0.541-1.587l0.702-0.832l-0.591-0.496
				c-0.215-0.18-0.095-0.438,0.241-0.519l0.421-0.103l-0.516-0.503l0.246-1.32l0.689,0.932c0.036,0.047,0.157,0.047,0.192,0
				l0.689-0.932l0.246,1.32l-0.516,0.503l0.421,0.103c0.336,0.081,0.455,0.339,0.241,0.519l-0.591,0.496l0.702,0.832L20.667,222.023
				z M19.163,215.488v0.654c0.047,0.039,0.762,1.014,0.762,1.014s0.723-0.971,0.761-1.012v-0.656l-0.761-1.129L19.163,215.488z
				 M21.397,215.94l-1.375-2.083c-0.017-0.024-0.054-0.04-0.097-0.04c-0.042,0-0.08,0.016-0.097,0.04l-1.376,2.083
				c-0.066,0.091-0.286,0.05-0.26-0.049c0.194-0.783,0.675-2.229,1.733-3.293c1.058,1.064,1.539,2.51,1.734,3.293
				C21.684,215.99,21.464,216.031,21.397,215.94"/>
			<path d="M155.081,11.118c0.286-0.892,0.862-1.6,1.627-2.049c2.048-1.207,5.43-0.452,5.967,1.998
				c0.32,1.461-0.201,2.408-0.201,2.408s0.463-0.407,0.65-0.769c0.187-0.363,0.404-1.033,0.404-1.033s-0.026,0.655-0.3,1.245
				c-0.271,0.591-1.149,1.212-1.295,1.247c0.066-0.125,0.282-0.369,0.352-0.888c0.067-0.519,0.165-1.585-0.468-2.49
				c-0.631-0.905-1.984-1.804-3.499-1.395c-1.514,0.409-2.204,1.692-2.222,2.83c-0.017,1.138,0.116,2.032,1.453,3.801
				c1.112,1.471,1.537,1.503,1.545,3.084l-0.021,0.014c0.162,0.09,0.302,0.214,0.384,0.382l0.018-0.026
				c1.581,0.007,1.613,0.433,3.084,1.545c1.77,1.337,2.663,1.47,3.801,1.453c1.139-0.017,2.422-0.708,2.83-2.222
				c0.409-1.514-0.489-2.868-1.395-3.499c-0.905-0.632-1.971-0.535-2.49-0.467c-0.518,0.069-0.763,0.285-0.888,0.351
				c0.035-0.145,0.656-1.023,1.247-1.295c0.59-0.273,1.245-0.3,1.245-0.3s-0.67,0.218-1.033,0.405c-0.362,0.187-0.77,0.65-0.77,0.65
				s0.947-0.521,2.408-0.201c2.45,0.537,3.205,3.919,1.998,5.967c-0.449,0.764-1.157,1.341-2.049,1.627
				c-0.795,0.255-1.475,0.353-2.443,0.098c-0.967-0.255-1.839-0.884-2.603-1.487c-0.727-0.573-1.613-1.813-2.942-1.827l-0.011-0.021
				c-0.141,0.302-0.442,0.514-0.797,0.514c-0.488,0-0.883-0.396-0.883-0.883c0-0.353,0.21-0.653,0.509-0.794
				c-0.024-1.321-1.255-2.204-1.825-2.927c-0.603-0.764-1.231-1.636-1.487-2.603C154.728,12.593,154.826,11.913,155.081,11.118
				 M157.521,19.903c0,0.157,0.032,0.307,0.088,0.444l-6.142,0.262v-1.413l6.142,0.262
				C157.553,19.595,157.521,19.745,157.521,19.903 M151.157,20.656v-1.489l-1.588-0.541l-0.831,0.702l-0.496-0.591
				c-0.181-0.215-0.438-0.095-0.52,0.241l-0.102,0.421l-0.503-0.516l-1.32,0.246l0.932,0.689c0.046,0.035,0.046,0.157,0,0.192
				l-0.932,0.689l1.32,0.246l0.503-0.516l0.102,0.421c0.081,0.336,0.339,0.455,0.52,0.241l0.496-0.591l0.831,0.702L151.157,20.656z
				 M144.622,19.152h0.653c0.039,0.047,1.015,0.762,1.015,0.762s-0.972,0.723-1.013,0.761h-0.655l-1.129-0.761L144.622,19.152z
				 M145.074,21.386l-2.083-1.375c-0.024-0.017-0.04-0.054-0.04-0.097c0-0.042,0.016-0.08,0.04-0.097l2.083-1.376
				c0.091-0.066,0.05-0.286-0.05-0.261c-0.782,0.195-2.228,0.676-3.293,1.734c1.065,1.058,2.511,1.539,3.293,1.734
				C145.124,21.673,145.165,21.453,145.074,21.386 M158.669,21.063c-0.157,0-0.308-0.033-0.445-0.089l-0.262,6.142h1.414
				l-0.262-6.142C158.977,21.03,158.827,21.063,158.669,21.063 M157.916,27.426h1.489l0.54,1.587l-0.701,0.832l0.591,0.496
				c0.215,0.18,0.095,0.438-0.241,0.519l-0.421,0.102l0.516,0.503l-0.246,1.32l-0.688-0.931c-0.036-0.047-0.157-0.047-0.192,0
				l-0.688,0.931l-0.246-1.32l0.516-0.503l-0.421-0.102c-0.336-0.081-0.455-0.339-0.241-0.519l0.592-0.496l-0.702-0.832
				L157.916,27.426z M159.42,33.961v-0.654c-0.047-0.039-0.762-1.014-0.762-1.014s-0.724,0.971-0.762,1.012v0.656l0.762,1.129
				L159.42,33.961z M157.186,33.509l1.375,2.083c0.018,0.024,0.055,0.04,0.098,0.04c0.042,0,0.08-0.016,0.097-0.04l1.376-2.083
				c0.066-0.091,0.286-0.05,0.26,0.049c-0.193,0.783-0.675,2.228-1.732,3.293c-1.059-1.065-1.539-2.51-1.734-3.293
				C156.898,33.459,157.119,33.418,157.186,33.509"/>
			<path d="M155.081,238.331c0.286,0.893,0.862,1.601,1.627,2.05c2.048,1.207,5.43,0.451,5.967-1.998
				c0.32-1.461-0.201-2.408-0.201-2.408s0.463,0.407,0.65,0.769c0.187,0.363,0.404,1.033,0.404,1.033s-0.026-0.655-0.3-1.245
				c-0.271-0.591-1.149-1.212-1.295-1.247c0.066,0.125,0.282,0.369,0.352,0.889c0.067,0.519,0.165,1.585-0.468,2.489
				c-0.631,0.905-1.984,1.805-3.499,1.396c-1.514-0.409-2.204-1.692-2.222-2.83c-0.017-1.138,0.116-2.032,1.453-3.801
				c1.112-1.472,1.537-1.503,1.545-3.084l-0.021-0.015c0.162-0.09,0.302-0.214,0.384-0.382l0.018,0.026
				c1.581-0.007,1.613-0.434,3.084-1.545c1.77-1.337,2.663-1.471,3.801-1.453c1.139,0.017,2.422,0.708,2.83,2.222
				c0.409,1.514-0.489,2.868-1.395,3.499c-0.905,0.632-1.971,0.535-2.49,0.467c-0.518-0.068-0.763-0.285-0.888-0.351
				c0.035,0.145,0.656,1.022,1.247,1.295c0.59,0.273,1.245,0.3,1.245,0.3s-0.67-0.218-1.033-0.405
				c-0.362-0.187-0.77-0.649-0.77-0.649s0.947,0.521,2.408,0.201c2.45-0.537,3.205-3.919,1.998-5.968
				c-0.449-0.764-1.157-1.341-2.049-1.627c-0.795-0.255-1.475-0.353-2.443-0.098c-0.967,0.255-1.839,0.884-2.603,1.487
				c-0.727,0.573-1.613,1.813-2.942,1.827l-0.011,0.021c-0.141-0.302-0.442-0.514-0.797-0.514c-0.488,0-0.883,0.396-0.883,0.883
				c0,0.353,0.21,0.653,0.509,0.794c-0.024,1.321-1.255,2.204-1.825,2.927c-0.603,0.765-1.231,1.637-1.487,2.604
				C154.728,236.856,154.826,237.536,155.081,238.331 M157.521,229.547c0-0.157,0.032-0.308,0.088-0.444l-6.142-0.262v1.413
				l6.142-0.263C157.553,229.854,157.521,229.704,157.521,229.547 M151.157,228.793v1.489l-1.588,0.541l-0.831-0.702l-0.496,0.592
				c-0.181,0.215-0.438,0.095-0.52-0.241l-0.102-0.421l-0.503,0.516l-1.32-0.246l0.932-0.688c0.046-0.035,0.046-0.157,0-0.192
				l-0.932-0.689l1.32-0.245l0.503,0.516l0.102-0.421c0.081-0.336,0.339-0.455,0.52-0.241l0.496,0.591l0.831-0.702L151.157,228.793z
				 M144.622,230.298h0.653c0.039-0.048,1.015-0.763,1.015-0.763s-0.972-0.723-1.013-0.761h-0.655l-1.129,0.761L144.622,230.298z
				 M145.074,228.063l-2.083,1.375c-0.024,0.017-0.04,0.054-0.04,0.097c0,0.042,0.016,0.08,0.04,0.098l2.083,1.376
				c0.091,0.065,0.05,0.285-0.05,0.261c-0.782-0.195-2.228-0.676-3.293-1.734c1.065-1.058,2.511-1.539,3.293-1.733
				C145.124,227.776,145.165,227.996,145.074,228.063 M158.669,228.387c-0.157,0-0.308,0.032-0.445,0.089l-0.262-6.143h1.414
				l-0.262,6.143C158.977,228.419,158.827,228.387,158.669,228.387 M157.916,222.023h1.489l0.54-1.587l-0.701-0.832l0.591-0.496
				c0.215-0.18,0.095-0.438-0.241-0.519l-0.421-0.103l0.516-0.503l-0.246-1.32l-0.688,0.932c-0.036,0.047-0.157,0.047-0.192,0
				l-0.688-0.932l-0.246,1.32l0.516,0.503l-0.421,0.103c-0.336,0.081-0.455,0.339-0.241,0.519l0.592,0.496l-0.702,0.832
				L157.916,222.023z M159.42,215.488v0.654c-0.047,0.039-0.762,1.014-0.762,1.014s-0.724-0.971-0.762-1.012v-0.656l0.762-1.129
				L159.42,215.488z M157.186,215.94l1.375-2.083c0.018-0.024,0.055-0.04,0.098-0.04c0.042,0,0.08,0.016,0.097,0.04l1.376,2.083
				c0.066,0.091,0.286,0.05,0.26-0.049c-0.193-0.783-0.675-2.229-1.732-3.293c-1.059,1.064-1.539,2.51-1.734,3.293
				C156.898,215.99,157.119,216.031,157.186,215.94"/>
		</g>
	</g>
	<path d="M134.229,110.781l-4.756-0.679c-2.687-0.382-5.175,1.485-5.56,4.173c-0.187,1.288,0.148,2.599,0.931,3.642l2.881,3.837
		l-5.244,3.932l-2.881-3.836c-1.625-2.171-4.703-2.612-6.876-0.985c-1.041,0.783-1.735,1.948-1.915,3.236l-0.669,4.762l-6.479-0.931
		l0.675-4.751c0.387-2.686-1.483-5.177-4.17-5.563c-1.286-0.183-2.598,0.152-3.639,0.935l-3.843,2.881l-3.93-5.245l3.839-2.879
		c2.174-1.627,2.61-4.708,0.978-6.881c-0.777-1.042-1.942-1.732-3.233-1.915l-4.75-0.679l0.926-6.484l4.753,0.678
		c2.689,0.386,5.171-1.481,5.557-4.168c0.193-1.292-0.148-2.604-0.926-3.648l-2.893-3.84l5.245-3.929l2.879,3.837
		c1.625,2.172,4.704,2.611,6.876,0.983c1.041-0.781,1.735-1.944,1.916-3.236l0.682-4.75l6.483,0.925l-0.674,4.75
		c-0.386,2.687,1.479,5.177,4.165,5.559c1.292,0.187,2.604-0.15,3.645-0.931l3.837-2.88l3.934,5.241l-3.843,2.881
		c-2.168,1.629-2.611,4.71-0.979,6.88c0.785,1.043,1.942,1.731,3.234,1.918l4.749,0.677L134.229,110.781z M67.366,135.323
		c-1.225,3.399-4.971,5.16-8.371,3.939s-5.164-4.97-3.94-8.368c0.936-2.604,3.404-4.335,6.171-4.329h0.06
		C62.794,129.814,64.851,132.778,67.366,135.323 M69.911,137.629c0.895,0.733,1.83,1.415,2.8,2.044
		c1.548,0.978,2.713,2.457,3.301,4.192l-3.513,3.509l-3.404-2.352c-1.49-1.03-3.532-0.65-4.556,0.84
		c-0.247,0.355-0.418,0.76-0.507,1.184l-0.858,4.095h-3.895l-0.858-4.088c-0.374-1.774-2.112-2.905-3.883-2.532
		c-0.424,0.089-0.826,0.263-1.183,0.513l-3.403,2.341l-2.985-2.982l2.343-3.399c1.028-1.493,0.656-3.529-0.836-4.558
		c-0.357-0.243-0.759-0.425-1.186-0.514l-4.084-0.856v-3.894l4.084-0.855c1.771-0.378,2.902-2.121,2.526-3.887
		c-0.09-0.422-0.26-0.819-0.501-1.174l-2.346-3.409l2.985-2.979l3.403,2.346c1.492,1.024,3.533,0.648,4.557-0.842
		c0.248-0.357,0.418-0.758,0.509-1.182l0.285-1.364c0.264,1.886,0.698,3.747,1.298,5.557c-5.389,0.643-9.235,5.534-8.592,10.92
		c0.639,5.391,5.53,9.241,10.919,8.6C65.576,142.516,68.417,140.535,69.911,137.629 M82.952,165.884h13.106v1.633
		c0,1.813-1.473,3.277-3.278,3.277h-6.553c-1.81,0-3.275-1.465-3.275-3.277V165.884z M82.952,159.327h13.106v3.278H82.952V159.327z
		 M137.248,101.288L137.248,101.288l-0.012-0.004l-6.363-0.91c-0.899-0.127-1.522-0.956-1.394-1.853
		c0.058-0.43,0.289-0.816,0.637-1.08l5.154-3.86c0.719-0.542,0.866-1.572,0.319-2.295l-5.893-7.863
		c-0.546-0.723-1.568-0.871-2.294-0.328l-5.149,3.863c-0.719,0.547-1.749,0.405-2.294-0.315c-0.265-0.35-0.38-0.79-0.314-1.227
		l0.906-6.369c0.128-0.897-0.489-1.726-1.389-1.855l-9.718-1.391c-0.9-0.128-1.729,0.494-1.857,1.388v0.003l-0.914,6.37
		c-0.121,0.897-0.956,1.519-1.851,1.391c-0.43-0.061-0.816-0.289-1.08-0.639l-3.862-5.148c-0.54-0.723-1.567-0.871-2.287-0.328
		L92.67,82.53c-2.229-0.235-4.476-0.235-6.703,0c-14.583,1.668-26.021,13.297-27.44,27.909c-0.046,0.463-0.062,0.924-0.085,1.383
		H57.95c-0.777,0.004-1.448,0.549-1.602,1.311l-1.132,5.382l-4.534-3.126c-0.653-0.449-1.53-0.37-2.089,0.189l-4.913,4.913
		c-0.56,0.559-0.64,1.437-0.19,2.09l3.111,4.524l-5.383,1.128c-0.756,0.167-1.292,0.837-1.289,1.608v6.554
		c0,0.771,0.543,1.439,1.302,1.607l5.382,1.131l-3.11,4.525c-0.45,0.649-0.37,1.529,0.189,2.082l4.914,4.917
		c0.559,0.56,1.437,0.636,2.088,0.186l4.525-3.116l1.135,5.38c0.154,0.763,0.823,1.311,1.6,1.311h6.552
		c0.775,0,1.442-0.54,1.605-1.3l1.129-5.385l4.53,3.11c0.648,0.45,1.525,0.374,2.084-0.186l2.545-2.551v4.664
		c0.008,2.333,1.258,4.487,3.276,5.644v9.102c0,3.625,2.933,6.556,6.552,6.556h6.553c3.619,0,6.548-2.931,6.548-6.556v-9.102
		c2.024-1.156,3.272-3.311,3.278-5.644v-6.478c0.046-2.731,1.479-5.243,3.793-6.685c1.362-0.887,2.646-1.876,3.855-2.956
		l-2.185-2.437c-1.079,0.972-2.237,1.845-3.451,2.642c-3.259,2.038-5.245,5.592-5.291,9.436v6.478c0,1.813-1.464,3.277-3.27,3.277
		H82.952c-1.809,0-3.277-1.465-3.277-3.277v-6.619c-0.036-3.766-1.995-7.25-5.196-9.242c-12.983-8.162-16.895-25.296-8.735-38.279
		c5.062-8.054,13.895-12.958,23.407-12.993c-0.021,0.058-0.045,0.118-0.064,0.18c-0.062,0.43,0.053,0.868,0.314,1.215l3.86,5.148
		c0.41,0.526,0.449,1.25,0.103,1.815c-0.34,0.572-0.985,0.885-1.641,0.79l-6.374-0.912c-0.896-0.129-1.726,0.496-1.855,1.388v0.004
		l-1.392,9.726c-0.127,0.897,0.496,1.726,1.388,1.855h0.004l6.373,0.912c0.897,0.125,1.517,0.958,1.392,1.851
		c-0.062,0.432-0.293,0.82-0.64,1.08l-5.148,3.864c-0.724,0.542-0.872,1.568-0.328,2.291l5.896,7.863
		c0.544,0.723,1.566,0.872,2.299,0.328l5.141-3.862c0.732-0.54,1.755-0.394,2.303,0.333c0.256,0.343,0.366,0.781,0.308,1.209
		l-0.914,6.373c-0.127,0.894,0.496,1.729,1.389,1.857l9.731,1.388c0.077,0.015,0.154,0.015,0.232,0.015
		c0.814,0,1.504-0.599,1.619-1.402l0.912-6.377c0.13-0.896,0.959-1.515,1.851-1.39c0.438,0.064,0.824,0.291,1.08,0.638l3.87,5.149
		c0.54,0.726,1.567,0.875,2.287,0.326l7.867-5.896c0.721-0.544,0.867-1.568,0.321-2.291l-3.855-5.152
		c-0.411-0.526-0.45-1.246-0.103-1.814c0.333-0.579,0.983-0.895,1.645-0.789l6.362,0.91c0.899,0.129,1.736-0.496,1.863-1.388
		l1.388-9.732C138.766,102.244,138.135,101.416,137.248,101.288"/>
	<path d="M110.371,113.895c-5.433,0-9.834-4.402-9.834-9.83c0-5.428,4.401-9.828,9.834-9.828c5.424,0,9.819,4.4,9.819,9.828
		C120.19,109.493,115.795,113.889,110.371,113.895 M110.371,90.96c-7.237,0-13.112,5.869-13.112,13.105
		c0,7.237,5.875,13.104,13.112,13.104c7.235,0,13.098-5.867,13.098-13.104C123.463,96.83,117.602,90.97,110.371,90.96"/>
</g>
<rect x="87.867" y="147.862" width="3.273" height="4.909"/>
<g>
	<path d="M82.338,131.77c-10.114-3.947-15.108-15.345-11.157-25.458c1.533-3.918,4.281-7.241,7.839-9.483l-1.753-2.771
		c-10.713,6.751-13.928,20.911-7.179,31.628c2.617,4.148,6.492,7.357,11.062,9.136c4.046,1.549,6.716,5.431,6.716,9.764h3.274
		C91.146,138.901,87.645,133.806,82.338,131.77"/>
</g>
<rect x="120.629" y="136.396" width="11.465" height="3.277"/>
<polygon points="117.941,147.477 120.037,144.964 129.871,153.151 127.77,155.664 "/>
<rect x="110.795" y="149.495" width="3.278" height="11.471"/>
<rect x="41.799" y="101.992" transform="matrix(-0.9701 0.2426 -0.2426 -0.9701 120.7915 192.3894)" width="13.504" height="3.277"/>
<rect x="49.368" y="82.665" transform="matrix(-0.5805 0.8143 -0.8143 -0.5805 153.6639 100.2506)" width="3.276" height="14.091"/>
<rect x="59.984" y="75.573" transform="matrix(-0.9687 0.2483 -0.2483 -0.9687 141.755 146.7941)" width="3.274" height="13.527"/>
</svg>
