<?xml version="1.0" encoding="utf-8"?>
<!-- Generator: Adobe Illustrator 15.0.1, SVG Export Plug-In . SVG Version: 6.00 Build 0)  -->
<!DOCTYPE svg PUBLIC "-//W3C//DTD SVG 1.1//EN" "http://www.w3.org/Graphics/SVG/1.1/DTD/svg11.dtd">
<svg version="1.1" id="Layer_1" xmlns="http://www.w3.org/2000/svg" xmlns:xlink="http://www.w3.org/1999/xlink" x="0px" y="0px"
	 width="178.583px" height="249.449px" viewBox="0 0 178.583 249.449" enable-background="new 0 0 178.583 249.449"
	 xml:space="preserve">
<g>
	<g>
		<path fill="#EAD598" d="M14.173,0C14.173,0,0,0,0,14.173v221.103c0,0,0,14.173,14.173,14.173h150.236c0,0,14.173,0,14.173-14.173
			V14.173c0,0,0-14.173-14.173-14.173H14.173z"/>
		<g>
			<path d="M27.638,12.794c5.138-0.252,10.276-0.406,15.413-0.605l15.414,0.005h30.827h30.826h15.413
				c5.139,0.202,10.275,0.357,15.413,0.6c-5.138,0.243-10.274,0.398-15.413,0.6h-15.413H89.292H58.465l-15.414,0.004
				C37.914,13.2,32.776,13.046,27.638,12.794"/>
		</g>
		<polygon points="27.638,236.66 43.051,236.368 58.465,236.201 89.292,236.061 120.118,236.198 135.531,236.366 150.944,236.66 
			135.531,236.954 120.118,237.122 89.292,237.261 58.465,237.119 43.051,236.952 		"/>
		<g>
			<path d="M12.791,27.284c0.251,8.135,0.409,16.269,0.602,24.405l-0.002,24.404v48.809v48.809v24.405l-0.6,24.403l-0.6-24.403
				v-24.405v-48.809V76.093l-0.002-24.404C12.382,43.553,12.54,35.419,12.791,27.284"/>
			<path d="M165.791,27.284c0.251,8.135,0.408,16.269,0.604,24.405l-0.003,24.404v48.809v48.809v24.405l-0.601,24.403l-0.6-24.403
				v-24.405v-48.809V76.093l-0.003-24.404C165.383,43.553,165.54,35.419,165.791,27.284"/>
			<path d="M23.502,11.118c-0.286-0.892-0.863-1.6-1.627-2.049c-2.048-1.207-5.43-0.452-5.967,1.998
				c-0.32,1.461,0.201,2.408,0.201,2.408s-0.463-0.407-0.65-0.769c-0.187-0.363-0.405-1.033-0.405-1.033s0.027,0.655,0.3,1.245
				c0.272,0.591,1.15,1.212,1.295,1.247c-0.066-0.125-0.282-0.369-0.351-0.888c-0.068-0.519-0.165-1.585,0.467-2.49
				c0.631-0.905,1.985-1.804,3.499-1.395c1.514,0.409,2.205,1.692,2.222,2.83s-0.116,2.032-1.453,3.801
				c-1.112,1.471-1.537,1.503-1.545,3.084l0.021,0.014c-0.163,0.09-0.302,0.214-0.384,0.382l-0.018-0.026
				c-1.581,0.007-1.613,0.433-3.084,1.545c-1.769,1.337-2.663,1.47-3.801,1.453c-1.138-0.017-2.421-0.708-2.83-2.222
				c-0.409-1.514,0.49-2.868,1.395-3.499c0.905-0.632,1.971-0.535,2.49-0.467c0.518,0.069,0.763,0.285,0.888,0.351
				c-0.035-0.145-0.656-1.023-1.247-1.295c-0.59-0.273-1.245-0.3-1.245-0.3s0.67,0.218,1.033,0.405
				c0.362,0.187,0.769,0.65,0.769,0.65s-0.947-0.521-2.408-0.201c-2.45,0.537-3.205,3.919-1.998,5.967
				c0.449,0.764,1.157,1.341,2.049,1.627c0.795,0.255,1.475,0.353,2.443,0.098c0.967-0.255,1.839-0.884,2.603-1.487
				c0.726-0.573,1.613-1.813,2.942-1.827l0.011-0.021c0.141,0.302,0.442,0.514,0.797,0.514c0.488,0,0.883-0.396,0.883-0.883
				c0-0.353-0.21-0.653-0.509-0.794c0.024-1.321,1.255-2.204,1.825-2.927c0.603-0.764,1.232-1.636,1.487-2.603
				C23.855,12.593,23.757,11.913,23.502,11.118 M21.062,19.903c0,0.157-0.032,0.307-0.088,0.444l6.142,0.262v-1.413l-6.142,0.262
				C21.03,19.595,21.062,19.745,21.062,19.903 M27.426,20.656v-1.489l1.587-0.541l0.832,0.702l0.496-0.591
				c0.18-0.215,0.438-0.095,0.519,0.241l0.102,0.421l0.503-0.516l1.32,0.246l-0.932,0.689c-0.046,0.035-0.046,0.157,0,0.192
				l0.932,0.689l-1.32,0.246l-0.503-0.516L30.86,20.85c-0.081,0.336-0.339,0.455-0.519,0.241L29.845,20.5l-0.832,0.702
				L27.426,20.656z M33.961,19.152h-0.654c-0.039,0.047-1.014,0.762-1.014,0.762s0.971,0.723,1.012,0.761h0.656l1.129-0.761
				L33.961,19.152z M33.509,21.386l2.083-1.375c0.024-0.017,0.04-0.054,0.04-0.097c0-0.042-0.016-0.08-0.04-0.097l-2.083-1.376
				c-0.091-0.066-0.05-0.286,0.049-0.261c0.783,0.195,2.228,0.676,3.293,1.734c-1.065,1.058-2.51,1.539-3.293,1.734
				C33.459,21.673,33.418,21.453,33.509,21.386 M19.914,21.063c0.157,0,0.307-0.033,0.445-0.089l0.262,6.142h-1.414l0.262-6.142
				C19.606,21.03,19.756,21.063,19.914,21.063 M20.667,27.426h-1.489l-0.541,1.587l0.702,0.832l-0.591,0.496
				c-0.215,0.18-0.095,0.438,0.241,0.519l0.421,0.102l-0.516,0.503l0.246,1.32l0.689-0.931c0.036-0.047,0.157-0.047,0.192,0
				l0.689,0.931l0.246-1.32l-0.516-0.503l0.421-0.102c0.336-0.081,0.455-0.339,0.241-0.519l-0.591-0.496l0.702-0.832L20.667,27.426z
				 M19.163,33.961v-0.654c0.047-0.039,0.762-1.014,0.762-1.014s0.723,0.971,0.761,1.012v0.656l-0.761,1.129L19.163,33.961z
				 M21.397,33.509l-1.375,2.083c-0.017,0.024-0.054,0.04-0.097,0.04c-0.042,0-0.08-0.016-0.097-0.04l-1.376-2.083
				c-0.066-0.091-0.286-0.05-0.26,0.049c0.194,0.783,0.675,2.228,1.733,3.293c1.058-1.065,1.539-2.51,1.734-3.293
				C21.684,33.459,21.464,33.418,21.397,33.509"/>
			<path d="M23.502,238.331c-0.286,0.893-0.863,1.601-1.627,2.05c-2.048,1.207-5.43,0.451-5.967-1.998
				c-0.32-1.461,0.201-2.408,0.201-2.408s-0.463,0.407-0.65,0.769c-0.187,0.363-0.405,1.033-0.405,1.033s0.027-0.655,0.3-1.245
				c0.272-0.591,1.15-1.212,1.295-1.247c-0.066,0.125-0.282,0.369-0.351,0.889c-0.068,0.519-0.165,1.585,0.467,2.489
				c0.631,0.905,1.985,1.805,3.499,1.396c1.514-0.409,2.205-1.692,2.222-2.83s-0.116-2.032-1.453-3.801
				c-1.112-1.472-1.537-1.503-1.545-3.084l0.021-0.015c-0.163-0.09-0.302-0.214-0.384-0.382l-0.018,0.026
				c-1.581-0.007-1.613-0.434-3.084-1.545c-1.769-1.337-2.663-1.471-3.801-1.453c-1.138,0.017-2.421,0.708-2.83,2.222
				c-0.409,1.514,0.49,2.868,1.395,3.499c0.905,0.632,1.971,0.535,2.49,0.467c0.518-0.068,0.763-0.285,0.888-0.351
				c-0.035,0.145-0.656,1.022-1.247,1.295c-0.59,0.273-1.245,0.3-1.245,0.3s0.67-0.218,1.033-0.405
				c0.362-0.187,0.769-0.649,0.769-0.649s-0.947,0.521-2.408,0.201c-2.45-0.537-3.205-3.919-1.998-5.968
				c0.449-0.764,1.157-1.341,2.049-1.627c0.795-0.255,1.475-0.353,2.443-0.098c0.967,0.255,1.839,0.884,2.603,1.487
				c0.726,0.573,1.613,1.813,2.942,1.827l0.011,0.021c0.141-0.302,0.442-0.514,0.797-0.514c0.488,0,0.883,0.396,0.883,0.883
				c0,0.353-0.21,0.653-0.509,0.794c0.024,1.321,1.255,2.204,1.825,2.927c0.603,0.765,1.232,1.637,1.487,2.604
				C23.855,236.856,23.757,237.536,23.502,238.331 M21.062,229.547c0-0.157-0.032-0.308-0.088-0.444l6.142-0.262v1.413l-6.142-0.263
				C21.03,229.854,21.062,229.704,21.062,229.547 M27.426,228.793v1.489l1.587,0.541l0.832-0.702l0.496,0.592
				c0.18,0.215,0.438,0.095,0.519-0.241l0.102-0.421l0.503,0.516l1.32-0.246l-0.932-0.688c-0.046-0.035-0.046-0.157,0-0.192
				l0.932-0.689l-1.32-0.245l-0.503,0.516L30.86,228.6c-0.081-0.336-0.339-0.455-0.519-0.241l-0.496,0.591l-0.832-0.702
				L27.426,228.793z M33.961,230.298h-0.654c-0.039-0.048-1.014-0.763-1.014-0.763s0.971-0.723,1.012-0.761h0.656l1.129,0.761
				L33.961,230.298z M33.509,228.063l2.083,1.375c0.024,0.017,0.04,0.054,0.04,0.097c0,0.042-0.016,0.08-0.04,0.098l-2.083,1.376
				c-0.091,0.065-0.05,0.285,0.049,0.261c0.783-0.195,2.228-0.676,3.293-1.734c-1.065-1.058-2.51-1.539-3.293-1.733
				C33.459,227.776,33.418,227.996,33.509,228.063 M19.914,228.387c0.157,0,0.307,0.032,0.445,0.089l0.262-6.143h-1.414l0.262,6.143
				C19.606,228.419,19.756,228.387,19.914,228.387 M20.667,222.023h-1.489l-0.541-1.587l0.702-0.832l-0.591-0.496
				c-0.215-0.18-0.095-0.438,0.241-0.519l0.421-0.103l-0.516-0.503l0.246-1.32l0.689,0.932c0.036,0.047,0.157,0.047,0.192,0
				l0.689-0.932l0.246,1.32l-0.516,0.503l0.421,0.103c0.336,0.081,0.455,0.339,0.241,0.519l-0.591,0.496l0.702,0.832L20.667,222.023
				z M19.163,215.488v0.654c0.047,0.039,0.762,1.014,0.762,1.014s0.723-0.971,0.761-1.012v-0.656l-0.761-1.129L19.163,215.488z
				 M21.397,215.94l-1.375-2.083c-0.017-0.024-0.054-0.04-0.097-0.04c-0.042,0-0.08,0.016-0.097,0.04l-1.376,2.083
				c-0.066,0.091-0.286,0.05-0.26-0.049c0.194-0.783,0.675-2.229,1.733-3.293c1.058,1.064,1.539,2.51,1.734,3.293
				C21.684,215.99,21.464,216.031,21.397,215.94"/>
			<path d="M155.081,11.118c0.286-0.892,0.862-1.6,1.627-2.049c2.048-1.207,5.43-0.452,5.967,1.998
				c0.32,1.461-0.201,2.408-0.201,2.408s0.463-0.407,0.65-0.769c0.187-0.363,0.404-1.033,0.404-1.033s-0.026,0.655-0.3,1.245
				c-0.271,0.591-1.149,1.212-1.295,1.247c0.066-0.125,0.282-0.369,0.352-0.888c0.067-0.519,0.165-1.585-0.468-2.49
				c-0.631-0.905-1.984-1.804-3.499-1.395c-1.514,0.409-2.204,1.692-2.222,2.83c-0.017,1.138,0.116,2.032,1.453,3.801
				c1.112,1.471,1.537,1.503,1.545,3.084l-0.021,0.014c0.162,0.09,0.302,0.214,0.384,0.382l0.018-0.026
				c1.581,0.007,1.613,0.433,3.084,1.545c1.77,1.337,2.663,1.47,3.801,1.453c1.139-0.017,2.422-0.708,2.83-2.222
				c0.409-1.514-0.489-2.868-1.395-3.499c-0.905-0.632-1.971-0.535-2.49-0.467c-0.518,0.069-0.763,0.285-0.888,0.351
				c0.035-0.145,0.656-1.023,1.247-1.295c0.59-0.273,1.245-0.3,1.245-0.3s-0.67,0.218-1.033,0.405c-0.362,0.187-0.77,0.65-0.77,0.65
				s0.947-0.521,2.408-0.201c2.45,0.537,3.205,3.919,1.998,5.967c-0.449,0.764-1.157,1.341-2.049,1.627
				c-0.795,0.255-1.475,0.353-2.443,0.098c-0.967-0.255-1.839-0.884-2.603-1.487c-0.727-0.573-1.613-1.813-2.942-1.827l-0.011-0.021
				c-0.141,0.302-0.442,0.514-0.797,0.514c-0.488,0-0.883-0.396-0.883-0.883c0-0.353,0.21-0.653,0.509-0.794
				c-0.024-1.321-1.255-2.204-1.825-2.927c-0.603-0.764-1.231-1.636-1.487-2.603C154.728,12.593,154.826,11.913,155.081,11.118
				 M157.521,19.903c0,0.157,0.032,0.307,0.088,0.444l-6.142,0.262v-1.413l6.142,0.262
				C157.553,19.595,157.521,19.745,157.521,19.903 M151.157,20.656v-1.489l-1.588-0.541l-0.831,0.702l-0.496-0.591
				c-0.181-0.215-0.438-0.095-0.52,0.241l-0.102,0.421l-0.503-0.516l-1.32,0.246l0.932,0.689c0.046,0.035,0.046,0.157,0,0.192
				l-0.932,0.689l1.32,0.246l0.503-0.516l0.102,0.421c0.081,0.336,0.339,0.455,0.52,0.241l0.496-0.591l0.831,0.702L151.157,20.656z
				 M144.622,19.152h0.653c0.039,0.047,1.015,0.762,1.015,0.762s-0.972,0.723-1.013,0.761h-0.655l-1.129-0.761L144.622,19.152z
				 M145.074,21.386l-2.083-1.375c-0.024-0.017-0.04-0.054-0.04-0.097c0-0.042,0.016-0.08,0.04-0.097l2.083-1.376
				c0.091-0.066,0.05-0.286-0.05-0.261c-0.782,0.195-2.228,0.676-3.293,1.734c1.065,1.058,2.511,1.539,3.293,1.734
				C145.124,21.673,145.165,21.453,145.074,21.386 M158.669,21.063c-0.157,0-0.308-0.033-0.445-0.089l-0.262,6.142h1.414
				l-0.262-6.142C158.977,21.03,158.827,21.063,158.669,21.063 M157.916,27.426h1.489l0.54,1.587l-0.701,0.832l0.591,0.496
				c0.215,0.18,0.095,0.438-0.241,0.519l-0.421,0.102l0.516,0.503l-0.246,1.32l-0.688-0.931c-0.036-0.047-0.157-0.047-0.192,0
				l-0.688,0.931l-0.246-1.32l0.516-0.503l-0.421-0.102c-0.336-0.081-0.455-0.339-0.241-0.519l0.592-0.496l-0.702-0.832
				L157.916,27.426z M159.42,33.961v-0.654c-0.047-0.039-0.762-1.014-0.762-1.014s-0.724,0.971-0.762,1.012v0.656l0.762,1.129
				L159.42,33.961z M157.186,33.509l1.375,2.083c0.018,0.024,0.055,0.04,0.098,0.04c0.042,0,0.08-0.016,0.097-0.04l1.376-2.083
				c0.066-0.091,0.286-0.05,0.26,0.049c-0.193,0.783-0.675,2.228-1.732,3.293c-1.059-1.065-1.539-2.51-1.734-3.293
				C156.898,33.459,157.119,33.418,157.186,33.509"/>
			<path d="M155.081,238.331c0.286,0.893,0.862,1.601,1.627,2.05c2.048,1.207,5.43,0.451,5.967-1.998
				c0.32-1.461-0.201-2.408-0.201-2.408s0.463,0.407,0.65,0.769c0.187,0.363,0.404,1.033,0.404,1.033s-0.026-0.655-0.3-1.245
				c-0.271-0.591-1.149-1.212-1.295-1.247c0.066,0.125,0.282,0.369,0.352,0.889c0.067,0.519,0.165,1.585-0.468,2.489
				c-0.631,0.905-1.984,1.805-3.499,1.396c-1.514-0.409-2.204-1.692-2.222-2.83c-0.017-1.138,0.116-2.032,1.453-3.801
				c1.112-1.472,1.537-1.503,1.545-3.084l-0.021-0.015c0.162-0.09,0.302-0.214,0.384-0.382l0.018,0.026
				c1.581-0.007,1.613-0.434,3.084-1.545c1.77-1.337,2.663-1.471,3.801-1.453c1.139,0.017,2.422,0.708,2.83,2.222
				c0.409,1.514-0.489,2.868-1.395,3.499c-0.905,0.632-1.971,0.535-2.49,0.467c-0.518-0.068-0.763-0.285-0.888-0.351
				c0.035,0.145,0.656,1.022,1.247,1.295c0.59,0.273,1.245,0.3,1.245,0.3s-0.67-0.218-1.033-0.405
				c-0.362-0.187-0.77-0.649-0.77-0.649s0.947,0.521,2.408,0.201c2.45-0.537,3.205-3.919,1.998-5.968
				c-0.449-0.764-1.157-1.341-2.049-1.627c-0.795-0.255-1.475-0.353-2.443-0.098c-0.967,0.255-1.839,0.884-2.603,1.487
				c-0.727,0.573-1.613,1.813-2.942,1.827l-0.011,0.021c-0.141-0.302-0.442-0.514-0.797-0.514c-0.488,0-0.883,0.396-0.883,0.883
				c0,0.353,0.21,0.653,0.509,0.794c-0.024,1.321-1.255,2.204-1.825,2.927c-0.603,0.765-1.231,1.637-1.487,2.604
				C154.728,236.856,154.826,237.536,155.081,238.331 M157.521,229.547c0-0.157,0.032-0.308,0.088-0.444l-6.142-0.262v1.413
				l6.142-0.263C157.553,229.854,157.521,229.704,157.521,229.547 M151.157,228.793v1.489l-1.588,0.541l-0.831-0.702l-0.496,0.592
				c-0.181,0.215-0.438,0.095-0.52-0.241l-0.102-0.421l-0.503,0.516l-1.32-0.246l0.932-0.688c0.046-0.035,0.046-0.157,0-0.192
				l-0.932-0.689l1.32-0.245l0.503,0.516l0.102-0.421c0.081-0.336,0.339-0.455,0.52-0.241l0.496,0.591l0.831-0.702L151.157,228.793z
				 M144.622,230.298h0.653c0.039-0.048,1.015-0.763,1.015-0.763s-0.972-0.723-1.013-0.761h-0.655l-1.129,0.761L144.622,230.298z
				 M145.074,228.063l-2.083,1.375c-0.024,0.017-0.04,0.054-0.04,0.097c0,0.042,0.016,0.08,0.04,0.098l2.083,1.376
				c0.091,0.065,0.05,0.285-0.05,0.261c-0.782-0.195-2.228-0.676-3.293-1.734c1.065-1.058,2.511-1.539,3.293-1.733
				C145.124,227.776,145.165,227.996,145.074,228.063 M158.669,228.387c-0.157,0-0.308,0.032-0.445,0.089l-0.262-6.143h1.414
				l-0.262,6.143C158.977,228.419,158.827,228.387,158.669,228.387 M157.916,222.023h1.489l0.54-1.587l-0.701-0.832l0.591-0.496
				c0.215-0.18,0.095-0.438-0.241-0.519l-0.421-0.103l0.516-0.503l-0.246-1.32l-0.688,0.932c-0.036,0.047-0.157,0.047-0.192,0
				l-0.688-0.932l-0.246,1.32l0.516,0.503l-0.421,0.103c-0.336,0.081-0.455,0.339-0.241,0.519l0.592,0.496l-0.702,0.832
				L157.916,222.023z M159.42,215.488v0.654c-0.047,0.039-0.762,1.014-0.762,1.014s-0.724-0.971-0.762-1.012v-0.656l0.762-1.129
				L159.42,215.488z M157.186,215.94l1.375-2.083c0.018-0.024,0.055-0.04,0.098-0.04c0.042,0,0.08,0.016,0.097,0.04l1.376,2.083
				c0.066,0.091,0.286,0.05,0.26-0.049c-0.193-0.783-0.675-2.229-1.732-3.293c-1.059,1.064-1.539,2.51-1.734,3.293
				C156.898,215.99,157.119,216.031,157.186,215.94"/>
		</g>
	</g>
	<path fill="#D20A11" d="M94.504,213.669c0-0.317-0.257-0.573-0.573-0.573c-0.315,0-0.572,0.256-0.572,0.573
		c0,1.063-0.356,1.911-1.059,2.515c-0.24,0.207-0.267,0.569-0.06,0.809c0.112,0.132,0.272,0.198,0.434,0.198
		c0.132,0,0.266-0.045,0.374-0.138C94.014,216.22,94.504,215.082,94.504,213.669 M96.795,213.669c0,2.08-0.778,3.85-2.252,5.12
		c-1.366,1.176-3.259,1.824-5.331,1.824c-2.072,0-3.965-0.648-5.331-1.824c-1.473-1.27-2.252-3.04-2.252-5.12
		c0-1.779,1.214-4.419,3.608-7.847c1.75-2.506,3.526-4.547,3.543-4.566c0.109-0.125,0.267-0.197,0.432-0.197
		s0.323,0.072,0.432,0.197c0.019,0.02,1.793,2.061,3.543,4.566C95.581,209.25,96.795,211.89,96.795,213.669 M95.686,185.808
		c0-6.004-0.526-11.174-3.202-17.595c-5.256-1.624-6.576-8.5-2.233-11.945c-1.628-0.825-2.927-2.321-3.475-4.174
		c-3.516-4.187-8.645-6.584-14.11-6.584h-2.297c-0.615,0-1.114-0.499-1.114-1.115c0-0.613,0.499-1.113,1.114-1.113h2.297
		c5.23,0,10.186,1.958,13.975,5.45c0.492-2.334,2.169-4.234,4.369-5.038c-3.432-3.163-2.795-8.762,1.315-11.052
		c-2.801-2.228-3.181-6.291-0.893-8.989H78.411c-11.425,0-20.721,9.305-20.721,20.742c0,8.258,4.176,15.801,11.17,20.178
		l4.194,2.623c7.471,4.672,12.217,12.947,12.217,22.064c0,1.923,1.563,3.487,3.485,3.487
		C92.577,192.747,95.686,189.635,95.686,185.808L95.686,185.808z M112.925,161.65c0-2.557-2.078-4.638-4.633-4.638h-13.79
		c-2.555,0-4.633,2.081-4.633,4.638c0,2.558,2.078,4.638,4.633,4.638h13.79C110.847,166.288,112.925,164.208,112.925,161.65
		 M115.224,150.146c0-2.556-2.077-4.637-4.633-4.637H93.352c-2.555,0-4.633,2.081-4.633,4.637c0,2.558,2.078,4.638,4.633,4.638
		h17.239C113.146,154.784,115.224,152.704,115.224,150.146 M112.925,138.643c0-2.556-2.078-4.637-4.633-4.637H95.65
		c-2.555,0-4.634,2.081-4.634,4.637c0,2.559,2.079,4.639,4.634,4.639h12.642C110.847,143.281,112.925,141.201,112.925,138.643
		 M110.627,127.715c0-2.24-1.82-4.062-4.058-4.062H96.225c-2.237,0-4.058,1.822-4.058,4.062s1.82,4.062,4.058,4.062h10.345
		C108.807,131.776,110.627,129.955,110.627,127.715"/>
	<path d="M122.895,59.183l-4.506-5.015C105.801,65.478,92.09,71.197,83.013,50.16c8.216,10.866,16.673,8.995,29.502-2.531
		l-4.422-4.921c-0.318-0.354-0.381-0.877-0.129-1.349c0.085-0.155,0.192-0.296,0.325-0.415c0.259-0.232,0.598-0.373,0.94-0.375
		l19.378-2.562c0.698-0.01,1.201,0.549,1.116,1.242l-4.579,19.035c-0.063,0.507-0.427,0.972-0.923,1.171
		C123.726,59.656,123.215,59.537,122.895,59.183 M84.913,33.449c1.062,3.838-1.196,7.825-5.034,8.887
		c-3.839,1.062-7.826-1.197-8.888-5.035s1.197-7.825,5.035-8.887C79.864,27.353,83.851,29.611,84.913,33.449 M103.614,42.125
		c0.485,0.645,0.615,1.452,0.355,2.215c-0.258,0.758-0.849,1.315-1.62,1.528c-0.938,0.26-1.958-0.085-2.537-0.857
		c-2.969-3.957-7.369-6.686-12.213-7.612c0.316-1.494,0.289-3.083-0.146-4.653c-0.021-0.074-0.041-0.148-0.064-0.222
		C93.831,33.447,99.667,36.879,103.614,42.125 M75.323,25.874c-4.127,1.142-6.916,4.76-7.206,8.806
		c-5.42,3.856-9.237,9.544-10.762,16.052c-0.545,2.325,0.16,4.705,1.887,6.365c1.74,1.671,4.163,2.285,6.484,1.643
		c0.702-0.195,1.114-0.921,0.919-1.623c-0.194-0.702-0.92-1.113-1.622-0.919c-1.415,0.392-2.893,0.017-3.953-1.003
		c-1.05-1.008-1.479-2.451-1.148-3.861c1.258-5.366,4.238-10.114,8.469-13.551c0.019,0.074,0.038,0.148,0.059,0.223
		c0.429,1.551,1.209,2.914,2.23,4.026c-1.508,1.345-2.8,2.958-3.929,4.899c-0.366,0.629-0.152,1.437,0.477,1.803
		c0.63,0.366,1.437,0.152,1.803-0.478c1.061-1.825,2.277-3.308,3.705-4.518c2.261,1.409,5.081,1.905,7.846,1.14
		c2.744-0.759,4.897-2.613,6.117-4.961c4.362,0.724,8.346,3.133,11.005,6.677c1.243,1.659,3.344,2.372,5.349,1.817
		c1.602-0.443,2.879-1.648,3.414-3.221c0.33-0.971,0.352-2.002,0.086-2.962c-0.166-0.602-0.445-1.175-0.831-1.688
		c-4.721-6.273-11.883-10.202-19.691-10.817C83.702,26.401,79.45,24.731,75.323,25.874 M54.225,85.816
		c3.123-2.471,7.674-1.94,10.145,1.183c2.471,3.123,1.94,7.674-1.182,10.145c-3.124,2.471-7.675,1.941-10.146-1.183
		C50.571,92.838,51.102,88.287,54.225,85.816 M54.946,65.213c0.405-0.699,1.098-1.132,1.902-1.189
		c0.799-0.057,1.542,0.27,2.039,0.898c0.603,0.763,0.682,1.837,0.196,2.671c-2.492,4.273-3.295,9.389-2.264,14.211
		c-1.5,0.29-2.952,0.933-4.23,1.944c-0.061,0.048-0.121,0.096-0.179,0.145C50.755,77.602,51.646,70.89,54.946,65.213 M50.974,97.598
		c2.657,3.358,7.075,4.52,10.915,3.214c5.66,3.494,12.385,4.799,18.973,3.673c2.355-0.401,4.273-1.976,5.13-4.213
		c0.864-2.253,0.487-4.724-1.007-6.613c-0.452-0.571-1.281-0.668-1.852-0.216c-0.571,0.452-0.668,1.281-0.216,1.852
		c0.911,1.151,1.14,2.659,0.613,4.032c-0.521,1.359-1.683,2.316-3.111,2.559c-5.433,0.928-10.966,0.028-15.778-2.533
		c0.061-0.046,0.122-0.093,0.183-0.141c1.262-0.999,2.215-2.247,2.842-3.62c1.825,0.866,3.814,1.429,6.041,1.714
		c0.722,0.093,1.382-0.418,1.475-1.14c0.092-0.722-0.418-1.383-1.141-1.475c-2.094-0.269-3.933-0.812-5.603-1.656
		c0.419-2.632-0.22-5.423-2-7.672c-1.767-2.234-4.312-3.496-6.949-3.707c-1.03-4.301-0.359-8.908,1.872-12.735
		c1.044-1.792,0.885-4.003-0.406-5.635c-1.032-1.304-2.638-2.011-4.295-1.893c-1.023,0.073-1.982,0.454-2.763,1.073
		c-0.489,0.387-0.909,0.866-1.232,1.422c-3.943,6.788-4.779,14.915-2.309,22.347C48.202,89.672,48.317,94.24,50.974,97.598
		 M113.573,95.321c-3.296-2.235-4.159-6.734-1.925-10.031c2.235-3.297,6.734-4.161,10.031-1.926
		c3.296,2.235,4.16,6.735,1.925,10.031C121.37,96.692,116.871,97.555,113.573,95.321 M93.71,100.835
		c-0.788-0.178-1.41-0.708-1.707-1.457c-0.295-0.744-0.206-1.552,0.244-2.214c0.545-0.806,1.545-1.204,2.486-0.992
		c4.825,1.09,9.945,0.317,14.234-2.118c0.727,1.343,1.778,2.535,3.126,3.449c0.063,0.044,0.128,0.086,0.193,0.128
		C106.785,101.103,100.115,102.271,93.71,100.835 M125.788,94.875c2.402-3.544,2.182-8.108-0.221-11.377
		c1.629-6.449,0.85-13.254-2.207-19.199c-1.092-2.124-3.172-3.479-5.563-3.624c-2.408-0.145-4.651,0.958-6.003,2.951
		c-0.408,0.603-0.251,1.423,0.352,1.832c0.604,0.408,1.422,0.251,1.831-0.352c0.824-1.215,2.192-1.887,3.661-1.799
		c1.452,0.088,2.715,0.909,3.376,2.197c2.521,4.902,3.328,10.449,2.334,15.809c-0.063-0.044-0.126-0.088-0.19-0.132
		c-1.332-0.903-2.809-1.436-4.307-1.62c0.276-2.002,0.215-4.068-0.184-6.277c-0.129-0.717-0.815-1.193-1.531-1.064
		c-0.717,0.129-1.194,0.815-1.064,1.532c0.375,2.078,0.41,3.996,0.107,5.842c-2.635,0.393-5.105,1.842-6.714,4.216
		c-1.598,2.357-2.036,5.165-1.443,7.743c-3.792,2.276-8.387,3.023-12.709,2.047c-2.022-0.456-4.083,0.362-5.251,2.084
		c-0.933,1.375-1.124,3.12-0.512,4.665c0.378,0.954,1.029,1.753,1.854,2.312c0.516,0.35,1.1,0.606,1.728,0.746
		c7.66,1.718,15.66,0.069,22.006-4.523C119.064,99.904,123.385,98.419,125.788,94.875"/>
</g>
</svg>
