<?xml version="1.0" encoding="utf-8"?>
<!-- Generator: Adobe Illustrator 15.0.1, SVG Export Plug-In . SVG Version: 6.00 Build 0)  -->
<!DOCTYPE svg PUBLIC "-//W3C//DTD SVG 1.1//EN" "http://www.w3.org/Graphics/SVG/1.1/DTD/svg11.dtd">
<svg version="1.1" id="Layer_1" xmlns="http://www.w3.org/2000/svg" xmlns:xlink="http://www.w3.org/1999/xlink" x="0px" y="0px"
	 width="178.583px" height="249.449px" viewBox="0 0 178.583 249.449" enable-background="new 0 0 178.583 249.449"
	 xml:space="preserve">
<g>
	<g>
		<path fill="#EAD598" d="M14.173,0C14.173,0,0,0,0,14.173v221.103c0,0,0,14.173,14.173,14.173h150.236c0,0,14.173,0,14.173-14.173
			V14.173c0,0,0-14.173-14.173-14.173H14.173z"/>
		<g>
			<path d="M27.638,12.794c5.138-0.252,10.276-0.406,15.413-0.605l15.414,0.005h30.827h30.826h15.413
				c5.139,0.202,10.275,0.357,15.413,0.6c-5.138,0.243-10.274,0.398-15.413,0.6h-15.413H89.292H58.465l-15.414,0.004
				C37.914,13.2,32.776,13.046,27.638,12.794"/>
		</g>
		<polygon points="27.638,236.66 43.051,236.368 58.465,236.201 89.292,236.061 120.118,236.198 135.531,236.366 150.944,236.66 
			135.531,236.954 120.118,237.122 89.292,237.261 58.465,237.119 43.051,236.952 		"/>
		<g>
			<path d="M12.791,27.284c0.251,8.135,0.409,16.269,0.602,24.405l-0.002,24.404v48.809v48.809v24.405l-0.6,24.403l-0.6-24.403
				v-24.405v-48.809V76.093l-0.002-24.404C12.382,43.553,12.54,35.419,12.791,27.284"/>
			<path d="M165.791,27.284c0.251,8.135,0.408,16.269,0.604,24.405l-0.003,24.404v48.809v48.809v24.405l-0.601,24.403l-0.6-24.403
				v-24.405v-48.809V76.093l-0.003-24.404C165.383,43.553,165.54,35.419,165.791,27.284"/>
			<path d="M23.502,11.118c-0.286-0.892-0.863-1.6-1.627-2.049c-2.048-1.207-5.43-0.452-5.967,1.998
				c-0.32,1.461,0.201,2.408,0.201,2.408s-0.463-0.407-0.65-0.769c-0.187-0.363-0.405-1.033-0.405-1.033s0.027,0.655,0.3,1.245
				c0.272,0.591,1.15,1.212,1.295,1.247c-0.066-0.125-0.282-0.369-0.351-0.888c-0.068-0.519-0.165-1.585,0.467-2.49
				c0.631-0.905,1.985-1.804,3.499-1.395c1.514,0.409,2.205,1.692,2.222,2.83s-0.116,2.032-1.453,3.801
				c-1.112,1.471-1.537,1.503-1.545,3.084l0.021,0.014c-0.163,0.09-0.302,0.214-0.384,0.382l-0.018-0.026
				c-1.581,0.007-1.613,0.433-3.084,1.545c-1.769,1.337-2.663,1.47-3.801,1.453c-1.138-0.017-2.421-0.708-2.83-2.222
				c-0.409-1.514,0.49-2.868,1.395-3.499c0.905-0.632,1.971-0.535,2.49-0.467c0.518,0.069,0.763,0.285,0.888,0.351
				c-0.035-0.145-0.656-1.023-1.247-1.295c-0.59-0.273-1.245-0.3-1.245-0.3s0.67,0.218,1.033,0.405
				c0.362,0.187,0.769,0.65,0.769,0.65s-0.947-0.521-2.408-0.201c-2.45,0.537-3.205,3.919-1.998,5.967
				c0.449,0.764,1.157,1.341,2.049,1.627c0.795,0.255,1.475,0.353,2.443,0.098c0.967-0.255,1.839-0.884,2.603-1.487
				c0.726-0.573,1.613-1.813,2.942-1.827l0.011-0.021c0.141,0.302,0.442,0.514,0.797,0.514c0.488,0,0.883-0.396,0.883-0.883
				c0-0.353-0.21-0.653-0.509-0.794c0.024-1.321,1.255-2.204,1.825-2.927c0.603-0.764,1.232-1.636,1.487-2.603
				C23.855,12.593,23.757,11.913,23.502,11.118 M21.062,19.903c0,0.157-0.032,0.307-0.088,0.444l6.142,0.262v-1.413l-6.142,0.262
				C21.03,19.595,21.062,19.745,21.062,19.903 M27.426,20.656v-1.489l1.587-0.541l0.832,0.702l0.496-0.591
				c0.18-0.215,0.438-0.095,0.519,0.241l0.102,0.421l0.503-0.516l1.32,0.246l-0.932,0.689c-0.046,0.035-0.046,0.157,0,0.192
				l0.932,0.689l-1.32,0.246l-0.503-0.516L30.86,20.85c-0.081,0.336-0.339,0.455-0.519,0.241L29.845,20.5l-0.832,0.702
				L27.426,20.656z M33.961,19.152h-0.654c-0.039,0.047-1.014,0.762-1.014,0.762s0.971,0.723,1.012,0.761h0.656l1.129-0.761
				L33.961,19.152z M33.509,21.386l2.083-1.375c0.024-0.017,0.04-0.054,0.04-0.097c0-0.042-0.016-0.08-0.04-0.097l-2.083-1.376
				c-0.091-0.066-0.05-0.286,0.049-0.261c0.783,0.195,2.228,0.676,3.293,1.734c-1.065,1.058-2.51,1.539-3.293,1.734
				C33.459,21.673,33.418,21.453,33.509,21.386 M19.914,21.063c0.157,0,0.307-0.033,0.445-0.089l0.262,6.142h-1.414l0.262-6.142
				C19.606,21.03,19.756,21.063,19.914,21.063 M20.667,27.426h-1.489l-0.541,1.587l0.702,0.832l-0.591,0.496
				c-0.215,0.18-0.095,0.438,0.241,0.519l0.421,0.102l-0.516,0.503l0.246,1.32l0.689-0.931c0.036-0.047,0.157-0.047,0.192,0
				l0.689,0.931l0.246-1.32l-0.516-0.503l0.421-0.102c0.336-0.081,0.455-0.339,0.241-0.519l-0.591-0.496l0.702-0.832L20.667,27.426z
				 M19.163,33.961v-0.654c0.047-0.039,0.762-1.014,0.762-1.014s0.723,0.971,0.761,1.012v0.656l-0.761,1.129L19.163,33.961z
				 M21.397,33.509l-1.375,2.083c-0.017,0.024-0.054,0.04-0.097,0.04c-0.042,0-0.08-0.016-0.097-0.04l-1.376-2.083
				c-0.066-0.091-0.286-0.05-0.26,0.049c0.194,0.783,0.675,2.228,1.733,3.293c1.058-1.065,1.539-2.51,1.734-3.293
				C21.684,33.459,21.464,33.418,21.397,33.509"/>
			<path d="M23.502,238.331c-0.286,0.893-0.863,1.601-1.627,2.05c-2.048,1.207-5.43,0.451-5.967-1.998
				c-0.32-1.461,0.201-2.408,0.201-2.408s-0.463,0.407-0.65,0.769c-0.187,0.363-0.405,1.033-0.405,1.033s0.027-0.655,0.3-1.245
				c0.272-0.591,1.15-1.212,1.295-1.247c-0.066,0.125-0.282,0.369-0.351,0.889c-0.068,0.519-0.165,1.585,0.467,2.489
				c0.631,0.905,1.985,1.805,3.499,1.396c1.514-0.409,2.205-1.692,2.222-2.83s-0.116-2.032-1.453-3.801
				c-1.112-1.472-1.537-1.503-1.545-3.084l0.021-0.015c-0.163-0.09-0.302-0.214-0.384-0.382l-0.018,0.026
				c-1.581-0.007-1.613-0.434-3.084-1.545c-1.769-1.337-2.663-1.471-3.801-1.453c-1.138,0.017-2.421,0.708-2.83,2.222
				c-0.409,1.514,0.49,2.868,1.395,3.499c0.905,0.632,1.971,0.535,2.49,0.467c0.518-0.068,0.763-0.285,0.888-0.351
				c-0.035,0.145-0.656,1.022-1.247,1.295c-0.59,0.273-1.245,0.3-1.245,0.3s0.67-0.218,1.033-0.405
				c0.362-0.187,0.769-0.649,0.769-0.649s-0.947,0.521-2.408,0.201c-2.45-0.537-3.205-3.919-1.998-5.968
				c0.449-0.764,1.157-1.341,2.049-1.627c0.795-0.255,1.475-0.353,2.443-0.098c0.967,0.255,1.839,0.884,2.603,1.487
				c0.726,0.573,1.613,1.813,2.942,1.827l0.011,0.021c0.141-0.302,0.442-0.514,0.797-0.514c0.488,0,0.883,0.396,0.883,0.883
				c0,0.353-0.21,0.653-0.509,0.794c0.024,1.321,1.255,2.204,1.825,2.927c0.603,0.765,1.232,1.637,1.487,2.604
				C23.855,236.856,23.757,237.536,23.502,238.331 M21.062,229.547c0-0.157-0.032-0.308-0.088-0.444l6.142-0.262v1.413l-6.142-0.263
				C21.03,229.854,21.062,229.704,21.062,229.547 M27.426,228.793v1.489l1.587,0.541l0.832-0.702l0.496,0.592
				c0.18,0.215,0.438,0.095,0.519-0.241l0.102-0.421l0.503,0.516l1.32-0.246l-0.932-0.688c-0.046-0.035-0.046-0.157,0-0.192
				l0.932-0.689l-1.32-0.245l-0.503,0.516L30.86,228.6c-0.081-0.336-0.339-0.455-0.519-0.241l-0.496,0.591l-0.832-0.702
				L27.426,228.793z M33.961,230.298h-0.654c-0.039-0.048-1.014-0.763-1.014-0.763s0.971-0.723,1.012-0.761h0.656l1.129,0.761
				L33.961,230.298z M33.509,228.063l2.083,1.375c0.024,0.017,0.04,0.054,0.04,0.097c0,0.042-0.016,0.08-0.04,0.098l-2.083,1.376
				c-0.091,0.065-0.05,0.285,0.049,0.261c0.783-0.195,2.228-0.676,3.293-1.734c-1.065-1.058-2.51-1.539-3.293-1.733
				C33.459,227.776,33.418,227.996,33.509,228.063 M19.914,228.387c0.157,0,0.307,0.032,0.445,0.089l0.262-6.143h-1.414l0.262,6.143
				C19.606,228.419,19.756,228.387,19.914,228.387 M20.667,222.023h-1.489l-0.541-1.587l0.702-0.832l-0.591-0.496
				c-0.215-0.18-0.095-0.438,0.241-0.519l0.421-0.103l-0.516-0.503l0.246-1.32l0.689,0.932c0.036,0.047,0.157,0.047,0.192,0
				l0.689-0.932l0.246,1.32l-0.516,0.503l0.421,0.103c0.336,0.081,0.455,0.339,0.241,0.519l-0.591,0.496l0.702,0.832L20.667,222.023
				z M19.163,215.488v0.654c0.047,0.039,0.762,1.014,0.762,1.014s0.723-0.971,0.761-1.012v-0.656l-0.761-1.129L19.163,215.488z
				 M21.397,215.94l-1.375-2.083c-0.017-0.024-0.054-0.04-0.097-0.04c-0.042,0-0.08,0.016-0.097,0.04l-1.376,2.083
				c-0.066,0.091-0.286,0.05-0.26-0.049c0.194-0.783,0.675-2.229,1.733-3.293c1.058,1.064,1.539,2.51,1.734,3.293
				C21.684,215.99,21.464,216.031,21.397,215.94"/>
			<path d="M155.081,11.118c0.286-0.892,0.862-1.6,1.627-2.049c2.048-1.207,5.43-0.452,5.967,1.998
				c0.32,1.461-0.201,2.408-0.201,2.408s0.463-0.407,0.65-0.769c0.187-0.363,0.404-1.033,0.404-1.033s-0.026,0.655-0.3,1.245
				c-0.271,0.591-1.149,1.212-1.295,1.247c0.066-0.125,0.282-0.369,0.352-0.888c0.067-0.519,0.165-1.585-0.468-2.49
				c-0.631-0.905-1.984-1.804-3.499-1.395c-1.514,0.409-2.204,1.692-2.222,2.83c-0.017,1.138,0.116,2.032,1.453,3.801
				c1.112,1.471,1.537,1.503,1.545,3.084l-0.021,0.014c0.162,0.09,0.302,0.214,0.384,0.382l0.018-0.026
				c1.581,0.007,1.613,0.433,3.084,1.545c1.77,1.337,2.663,1.47,3.801,1.453c1.139-0.017,2.422-0.708,2.83-2.222
				c0.409-1.514-0.489-2.868-1.395-3.499c-0.905-0.632-1.971-0.535-2.49-0.467c-0.518,0.069-0.763,0.285-0.888,0.351
				c0.035-0.145,0.656-1.023,1.247-1.295c0.59-0.273,1.245-0.3,1.245-0.3s-0.67,0.218-1.033,0.405c-0.362,0.187-0.77,0.65-0.77,0.65
				s0.947-0.521,2.408-0.201c2.45,0.537,3.205,3.919,1.998,5.967c-0.449,0.764-1.157,1.341-2.049,1.627
				c-0.795,0.255-1.475,0.353-2.443,0.098c-0.967-0.255-1.839-0.884-2.603-1.487c-0.727-0.573-1.613-1.813-2.942-1.827l-0.011-0.021
				c-0.141,0.302-0.442,0.514-0.797,0.514c-0.488,0-0.883-0.396-0.883-0.883c0-0.353,0.21-0.653,0.509-0.794
				c-0.024-1.321-1.255-2.204-1.825-2.927c-0.603-0.764-1.231-1.636-1.487-2.603C154.728,12.593,154.826,11.913,155.081,11.118
				 M157.521,19.903c0,0.157,0.032,0.307,0.088,0.444l-6.142,0.262v-1.413l6.142,0.262
				C157.553,19.595,157.521,19.745,157.521,19.903 M151.157,20.656v-1.489l-1.588-0.541l-0.831,0.702l-0.496-0.591
				c-0.181-0.215-0.438-0.095-0.52,0.241l-0.102,0.421l-0.503-0.516l-1.32,0.246l0.932,0.689c0.046,0.035,0.046,0.157,0,0.192
				l-0.932,0.689l1.32,0.246l0.503-0.516l0.102,0.421c0.081,0.336,0.339,0.455,0.52,0.241l0.496-0.591l0.831,0.702L151.157,20.656z
				 M144.622,19.152h0.653c0.039,0.047,1.015,0.762,1.015,0.762s-0.972,0.723-1.013,0.761h-0.655l-1.129-0.761L144.622,19.152z
				 M145.074,21.386l-2.083-1.375c-0.024-0.017-0.04-0.054-0.04-0.097c0-0.042,0.016-0.08,0.04-0.097l2.083-1.376
				c0.091-0.066,0.05-0.286-0.05-0.261c-0.782,0.195-2.228,0.676-3.293,1.734c1.065,1.058,2.511,1.539,3.293,1.734
				C145.124,21.673,145.165,21.453,145.074,21.386 M158.669,21.063c-0.157,0-0.308-0.033-0.445-0.089l-0.262,6.142h1.414
				l-0.262-6.142C158.977,21.03,158.827,21.063,158.669,21.063 M157.916,27.426h1.489l0.54,1.587l-0.701,0.832l0.591,0.496
				c0.215,0.18,0.095,0.438-0.241,0.519l-0.421,0.102l0.516,0.503l-0.246,1.32l-0.688-0.931c-0.036-0.047-0.157-0.047-0.192,0
				l-0.688,0.931l-0.246-1.32l0.516-0.503l-0.421-0.102c-0.336-0.081-0.455-0.339-0.241-0.519l0.592-0.496l-0.702-0.832
				L157.916,27.426z M159.42,33.961v-0.654c-0.047-0.039-0.762-1.014-0.762-1.014s-0.724,0.971-0.762,1.012v0.656l0.762,1.129
				L159.42,33.961z M157.186,33.509l1.375,2.083c0.018,0.024,0.055,0.04,0.098,0.04c0.042,0,0.08-0.016,0.097-0.04l1.376-2.083
				c0.066-0.091,0.286-0.05,0.26,0.049c-0.193,0.783-0.675,2.228-1.732,3.293c-1.059-1.065-1.539-2.51-1.734-3.293
				C156.898,33.459,157.119,33.418,157.186,33.509"/>
			<path d="M155.081,238.331c0.286,0.893,0.862,1.601,1.627,2.05c2.048,1.207,5.43,0.451,5.967-1.998
				c0.32-1.461-0.201-2.408-0.201-2.408s0.463,0.407,0.65,0.769c0.187,0.363,0.404,1.033,0.404,1.033s-0.026-0.655-0.3-1.245
				c-0.271-0.591-1.149-1.212-1.295-1.247c0.066,0.125,0.282,0.369,0.352,0.889c0.067,0.519,0.165,1.585-0.468,2.489
				c-0.631,0.905-1.984,1.805-3.499,1.396c-1.514-0.409-2.204-1.692-2.222-2.83c-0.017-1.138,0.116-2.032,1.453-3.801
				c1.112-1.472,1.537-1.503,1.545-3.084l-0.021-0.015c0.162-0.09,0.302-0.214,0.384-0.382l0.018,0.026
				c1.581-0.007,1.613-0.434,3.084-1.545c1.77-1.337,2.663-1.471,3.801-1.453c1.139,0.017,2.422,0.708,2.83,2.222
				c0.409,1.514-0.489,2.868-1.395,3.499c-0.905,0.632-1.971,0.535-2.49,0.467c-0.518-0.068-0.763-0.285-0.888-0.351
				c0.035,0.145,0.656,1.022,1.247,1.295c0.59,0.273,1.245,0.3,1.245,0.3s-0.67-0.218-1.033-0.405
				c-0.362-0.187-0.77-0.649-0.77-0.649s0.947,0.521,2.408,0.201c2.45-0.537,3.205-3.919,1.998-5.968
				c-0.449-0.764-1.157-1.341-2.049-1.627c-0.795-0.255-1.475-0.353-2.443-0.098c-0.967,0.255-1.839,0.884-2.603,1.487
				c-0.727,0.573-1.613,1.813-2.942,1.827l-0.011,0.021c-0.141-0.302-0.442-0.514-0.797-0.514c-0.488,0-0.883,0.396-0.883,0.883
				c0,0.353,0.21,0.653,0.509,0.794c-0.024,1.321-1.255,2.204-1.825,2.927c-0.603,0.765-1.231,1.637-1.487,2.604
				C154.728,236.856,154.826,237.536,155.081,238.331 M157.521,229.547c0-0.157,0.032-0.308,0.088-0.444l-6.142-0.262v1.413
				l6.142-0.263C157.553,229.854,157.521,229.704,157.521,229.547 M151.157,228.793v1.489l-1.588,0.541l-0.831-0.702l-0.496,0.592
				c-0.181,0.215-0.438,0.095-0.52-0.241l-0.102-0.421l-0.503,0.516l-1.32-0.246l0.932-0.688c0.046-0.035,0.046-0.157,0-0.192
				l-0.932-0.689l1.32-0.245l0.503,0.516l0.102-0.421c0.081-0.336,0.339-0.455,0.52-0.241l0.496,0.591l0.831-0.702L151.157,228.793z
				 M144.622,230.298h0.653c0.039-0.048,1.015-0.763,1.015-0.763s-0.972-0.723-1.013-0.761h-0.655l-1.129,0.761L144.622,230.298z
				 M145.074,228.063l-2.083,1.375c-0.024,0.017-0.04,0.054-0.04,0.097c0,0.042,0.016,0.08,0.04,0.098l2.083,1.376
				c0.091,0.065,0.05,0.285-0.05,0.261c-0.782-0.195-2.228-0.676-3.293-1.734c1.065-1.058,2.511-1.539,3.293-1.733
				C145.124,227.776,145.165,227.996,145.074,228.063 M158.669,228.387c-0.157,0-0.308,0.032-0.445,0.089l-0.262-6.143h1.414
				l-0.262,6.143C158.977,228.419,158.827,228.387,158.669,228.387 M157.916,222.023h1.489l0.54-1.587l-0.701-0.832l0.591-0.496
				c0.215-0.18,0.095-0.438-0.241-0.519l-0.421-0.103l0.516-0.503l-0.246-1.32l-0.688,0.932c-0.036,0.047-0.157,0.047-0.192,0
				l-0.688-0.932l-0.246,1.32l0.516,0.503l-0.421,0.103c-0.336,0.081-0.455,0.339-0.241,0.519l0.592,0.496l-0.702,0.832
				L157.916,222.023z M159.42,215.488v0.654c-0.047,0.039-0.762,1.014-0.762,1.014s-0.724-0.971-0.762-1.012v-0.656l0.762-1.129
				L159.42,215.488z M157.186,215.94l1.375-2.083c0.018-0.024,0.055-0.04,0.098-0.04c0.042,0,0.08,0.016,0.097,0.04l1.376,2.083
				c0.066,0.091,0.286,0.05,0.26-0.049c-0.193-0.783-0.675-2.229-1.732-3.293c-1.059,1.064-1.539,2.51-1.734,3.293
				C156.898,215.99,157.119,216.031,157.186,215.94"/>
		</g>
	</g>
	<path d="M110.047,151.786v7.358c0,0.313-0.266,0.58-0.579,0.58H69.115c-0.319,0-0.579-0.26-0.579-0.58v-7.358
		c0-0.311,0.265-0.572,0.579-0.572h40.353C109.781,151.214,110.047,151.476,110.047,151.786 M64.333,151.786v7.358
		c0,2.638,2.146,4.784,4.783,4.784h40.353c2.637,0,4.782-2.146,4.782-4.784v-7.358c0-2.634-2.146-4.776-4.782-4.776H69.115
		C66.479,147.01,64.333,149.152,64.333,151.786"/>
	<path d="M138.894,135.496c0,0.754-0.611,1.366-1.364,1.366H98.72c-1.161,0-2.102,0.941-2.102,2.103c0,1.16,0.94,2.101,2.102,2.101
		h31.896l-7.357,28.8H55.324l-7.358-28.799h53.382c1.16,0,2.103-0.94,2.103-2.102s-0.942-2.103-2.103-2.103H41.054
		c-0.74,0-1.366-0.625-1.366-1.366v-3.621c0-0.741,0.626-1.366,1.366-1.366h96.476c0.739,0,1.364,0.625,1.364,1.366V135.496z
		 M74.531,108.819l8.364,7.714c0.391,0.361,0.901,0.556,1.425,0.556c0.126,0,0.254-0.011,0.381-0.035
		c0.65-0.119,1.207-0.539,1.501-1.131l3.087-6.211l3.086,6.211c0.295,0.592,0.851,1.011,1.502,1.131
		c0.651,0.12,1.319-0.073,1.806-0.521l8.363-7.714c5.423,2.881,6.957,6.689,7.118,17.485H67.413
		C67.575,115.508,69.109,111.701,74.531,108.819 M86.137,106.608l-2.452,4.934l-5.774-5.325l2.363-2.416
		C82.176,105.093,84.222,106.066,86.137,106.608 M100.667,106.216l-5.775,5.327l-2.452-4.935c1.915-0.542,3.964-1.517,5.865-2.809
		L100.667,106.216z M76.996,92.264v-4.448c3.744-5.112,6.492-4.056,12.293-1.827c3.305,1.27,7.322,2.812,12.292,3.177v3.098
		c0,5.163-7.994,10.625-12.293,10.625C84.99,102.889,76.996,97.427,76.996,92.264 M89.288,71.08c6.777,0,12.293,5.515,12.293,12.294
		v1.577c-4.207-0.358-7.674-1.691-10.784-2.886c-2.791-1.072-5.51-2.117-8.199-2.117c-1.842,0-3.669,0.49-5.495,1.798
		C77.903,75.733,83.062,71.08,89.288,71.08 M51.255,104.906l1.962-2.337c0.443-0.529,1.07-0.854,1.765-0.915
		c0.079-0.007,0.157-0.011,0.235-0.011c0.611,0,1.194,0.21,1.663,0.603c0.53,0.444,0.855,1.072,0.916,1.769
		c0.061,0.695-0.149,1.368-0.592,1.895l-1.964,2.34c-0.439,0.526-1.063,0.85-1.757,0.912c-0.698,0.063-1.374-0.148-1.902-0.591
		C50.484,107.648,50.339,106.002,51.255,104.906 M126.998,108.568c-0.53,0.444-1.203,0.654-1.899,0.593
		c-0.694-0.061-1.321-0.386-1.764-0.915l-1.958-2.339c-0.921-1.097-0.778-2.74,0.321-3.664c0.529-0.443,1.205-0.654,1.901-0.591
		c0.694,0.062,1.318,0.386,1.762,0.917l1.959,2.334C128.242,106.003,128.097,107.647,126.998,108.568 M137.529,126.305h-1.057
		v-8.933v-0.012v-0.009c0-0.194-0.011-0.299-0.033-0.34c-0.061-0.353-0.211-0.695-0.457-0.989l-4.889-5.836
		c1.521-2.432,1.388-5.667-0.552-7.983l-1.957-2.331c-1.16-1.389-2.797-2.244-4.611-2.405c-1.817-0.163-3.585,0.391-4.977,1.557
		c-0.001,0.001-0.002,0.001-0.003,0.002c-2.873,2.415-3.247,6.715-0.837,9.583l1.955,2.337c1.164,1.39,2.805,2.244,4.618,2.403
		c0.205,0.019,0.409,0.028,0.612,0.028c0.876,0,1.732-0.168,2.531-0.49l4.396,5.249v8.169h-16.901
		c-0.169-11.804-1.945-17.668-10.439-21.742l-3.373-3.451c2.485-2.508,4.229-5.596,4.229-8.848v-5.119v-3.771
		c0-9.097-7.401-16.497-16.497-16.497c-9.096,0-16.495,7.4-16.495,16.497v3.771v5.119c0,3.253,1.745,6.342,4.231,8.85l-3.375,3.449
		c-8.495,4.073-10.271,9.937-10.439,21.742H46.308v-8.169l4.396-5.249c0.798,0.322,1.654,0.489,2.532,0.489
		c0.206,0,0.412-0.009,0.62-0.027c1.814-0.162,3.451-1.016,4.608-2.402l1.959-2.334c1.165-1.387,1.719-3.149,1.561-4.964
		c-0.159-1.817-1.013-3.46-2.404-4.625c-1.39-1.164-3.154-1.718-4.968-1.558c-1.813,0.16-3.454,1.013-4.617,2.402l-1.964,2.34
		c-1.93,2.312-2.061,5.545-0.547,7.976l-4.89,5.839c-0.297,0.354-0.455,0.778-0.484,1.206c-0.003,0.032-0.005,0.069-0.006,0.109
		c0,0.008,0,0.017,0,0.025c0,0.003-0.001,0.006-0.001,0.009v8.933h-1.049c-3.071,0-5.569,2.498-5.569,5.568v3.623
		c0,3.071,2.498,5.569,5.569,5.569h2.574l7.632,29.874c0.195,0.774,0.791,3.13,3.515,3.13h69.033c2.705,0,3.313-2.348,3.515-3.125
		l7.633-29.878h2.574c3.07,0,5.568-2.499,5.568-5.57v-3.621C143.098,128.803,140.6,126.305,137.529,126.305"/>
	<path d="M89.282,141.066h0.006c1.16,0,2.1-0.941,2.1-2.103c0-1.16-0.944-2.102-2.105-2.102s-2.102,0.941-2.102,2.102
		C87.18,140.125,88.121,141.066,89.282,141.066"/>
</g>
</svg>
