<?xml version="1.0" encoding="utf-8"?>
<!-- Generator: Adobe Illustrator 15.0.1, SVG Export Plug-In . SVG Version: 6.00 Build 0)  -->
<!DOCTYPE svg PUBLIC "-//W3C//DTD SVG 1.1//EN" "http://www.w3.org/Graphics/SVG/1.1/DTD/svg11.dtd">
<svg version="1.1" id="Layer_1" xmlns="http://www.w3.org/2000/svg" xmlns:xlink="http://www.w3.org/1999/xlink" x="0px" y="0px"
	 width="178.583px" height="249.449px" viewBox="0 0 178.583 249.449" enable-background="new 0 0 178.583 249.449"
	 xml:space="preserve">
<g>
	<g>
		<path fill="#EAD598" d="M14.173,0C14.173,0,0,0,0,14.173v221.103c0,0,0,14.173,14.173,14.173h150.236c0,0,14.173,0,14.173-14.173
			V14.173c0,0,0-14.173-14.173-14.173H14.173z"/>
		<g>
			<path d="M27.638,12.794c5.138-0.252,10.276-0.406,15.413-0.605l15.414,0.005h30.827h30.826h15.413
				c5.139,0.202,10.275,0.357,15.413,0.6c-5.138,0.243-10.274,0.398-15.413,0.6h-15.413H89.292H58.465l-15.414,0.004
				C37.914,13.2,32.776,13.046,27.638,12.794"/>
		</g>
		<polygon points="27.638,236.66 43.051,236.368 58.465,236.201 89.292,236.061 120.118,236.198 135.531,236.366 150.944,236.66 
			135.531,236.954 120.118,237.122 89.292,237.261 58.465,237.119 43.051,236.952 		"/>
		<g>
			<path d="M12.791,27.284c0.251,8.135,0.409,16.269,0.602,24.405l-0.002,24.404v48.809v48.809v24.405l-0.6,24.403l-0.6-24.403
				v-24.405v-48.809V76.093l-0.002-24.404C12.382,43.553,12.54,35.419,12.791,27.284"/>
			<path d="M165.791,27.284c0.251,8.135,0.408,16.269,0.604,24.405l-0.003,24.404v48.809v48.809v24.405l-0.601,24.403l-0.6-24.403
				v-24.405v-48.809V76.093l-0.003-24.404C165.383,43.553,165.54,35.419,165.791,27.284"/>
			<path d="M23.502,11.118c-0.286-0.892-0.863-1.6-1.627-2.049c-2.048-1.207-5.43-0.452-5.967,1.998
				c-0.32,1.461,0.201,2.408,0.201,2.408s-0.463-0.407-0.65-0.769c-0.187-0.363-0.405-1.033-0.405-1.033s0.027,0.655,0.3,1.245
				c0.272,0.591,1.15,1.212,1.295,1.247c-0.066-0.125-0.282-0.369-0.351-0.888c-0.068-0.519-0.165-1.585,0.467-2.49
				c0.631-0.905,1.985-1.804,3.499-1.395c1.514,0.409,2.205,1.692,2.222,2.83s-0.116,2.032-1.453,3.801
				c-1.112,1.471-1.537,1.503-1.545,3.084l0.021,0.014c-0.163,0.09-0.302,0.214-0.384,0.382l-0.018-0.026
				c-1.581,0.007-1.613,0.433-3.084,1.545c-1.769,1.337-2.663,1.47-3.801,1.453c-1.138-0.017-2.421-0.708-2.83-2.222
				c-0.409-1.514,0.49-2.868,1.395-3.499c0.905-0.632,1.971-0.535,2.49-0.467c0.518,0.069,0.763,0.285,0.888,0.351
				c-0.035-0.145-0.656-1.023-1.247-1.295c-0.59-0.273-1.245-0.3-1.245-0.3s0.67,0.218,1.033,0.405
				c0.362,0.187,0.769,0.65,0.769,0.65s-0.947-0.521-2.408-0.201c-2.45,0.537-3.205,3.919-1.998,5.967
				c0.449,0.764,1.157,1.341,2.049,1.627c0.795,0.255,1.475,0.353,2.443,0.098c0.967-0.255,1.839-0.884,2.603-1.487
				c0.726-0.573,1.613-1.813,2.942-1.827l0.011-0.021c0.141,0.302,0.442,0.514,0.797,0.514c0.488,0,0.883-0.396,0.883-0.883
				c0-0.353-0.21-0.653-0.509-0.794c0.024-1.321,1.255-2.204,1.825-2.927c0.603-0.764,1.232-1.636,1.487-2.603
				C23.855,12.593,23.757,11.913,23.502,11.118 M21.062,19.903c0,0.157-0.032,0.307-0.088,0.444l6.142,0.262v-1.413l-6.142,0.262
				C21.03,19.595,21.062,19.745,21.062,19.903 M27.426,20.656v-1.489l1.587-0.541l0.832,0.702l0.496-0.591
				c0.18-0.215,0.438-0.095,0.519,0.241l0.102,0.421l0.503-0.516l1.32,0.246l-0.932,0.689c-0.046,0.035-0.046,0.157,0,0.192
				l0.932,0.689l-1.32,0.246l-0.503-0.516L30.86,20.85c-0.081,0.336-0.339,0.455-0.519,0.241L29.845,20.5l-0.832,0.702
				L27.426,20.656z M33.961,19.152h-0.654c-0.039,0.047-1.014,0.762-1.014,0.762s0.971,0.723,1.012,0.761h0.656l1.129-0.761
				L33.961,19.152z M33.509,21.386l2.083-1.375c0.024-0.017,0.04-0.054,0.04-0.097c0-0.042-0.016-0.08-0.04-0.097l-2.083-1.376
				c-0.091-0.066-0.05-0.286,0.049-0.261c0.783,0.195,2.228,0.676,3.293,1.734c-1.065,1.058-2.51,1.539-3.293,1.734
				C33.459,21.673,33.418,21.453,33.509,21.386 M19.914,21.063c0.157,0,0.307-0.033,0.445-0.089l0.262,6.142h-1.414l0.262-6.142
				C19.606,21.03,19.756,21.063,19.914,21.063 M20.667,27.426h-1.489l-0.541,1.587l0.702,0.832l-0.591,0.496
				c-0.215,0.18-0.095,0.438,0.241,0.519l0.421,0.102l-0.516,0.503l0.246,1.32l0.689-0.931c0.036-0.047,0.157-0.047,0.192,0
				l0.689,0.931l0.246-1.32l-0.516-0.503l0.421-0.102c0.336-0.081,0.455-0.339,0.241-0.519l-0.591-0.496l0.702-0.832L20.667,27.426z
				 M19.163,33.961v-0.654c0.047-0.039,0.762-1.014,0.762-1.014s0.723,0.971,0.761,1.012v0.656l-0.761,1.129L19.163,33.961z
				 M21.397,33.509l-1.375,2.083c-0.017,0.024-0.054,0.04-0.097,0.04c-0.042,0-0.08-0.016-0.097-0.04l-1.376-2.083
				c-0.066-0.091-0.286-0.05-0.26,0.049c0.194,0.783,0.675,2.228,1.733,3.293c1.058-1.065,1.539-2.51,1.734-3.293
				C21.684,33.459,21.464,33.418,21.397,33.509"/>
			<path d="M23.502,238.331c-0.286,0.893-0.863,1.601-1.627,2.05c-2.048,1.207-5.43,0.451-5.967-1.998
				c-0.32-1.461,0.201-2.408,0.201-2.408s-0.463,0.407-0.65,0.769c-0.187,0.363-0.405,1.033-0.405,1.033s0.027-0.655,0.3-1.245
				c0.272-0.591,1.15-1.212,1.295-1.247c-0.066,0.125-0.282,0.369-0.351,0.889c-0.068,0.519-0.165,1.585,0.467,2.489
				c0.631,0.905,1.985,1.805,3.499,1.396c1.514-0.409,2.205-1.692,2.222-2.83s-0.116-2.032-1.453-3.801
				c-1.112-1.472-1.537-1.503-1.545-3.084l0.021-0.015c-0.163-0.09-0.302-0.214-0.384-0.382l-0.018,0.026
				c-1.581-0.007-1.613-0.434-3.084-1.545c-1.769-1.337-2.663-1.471-3.801-1.453c-1.138,0.017-2.421,0.708-2.83,2.222
				c-0.409,1.514,0.49,2.868,1.395,3.499c0.905,0.632,1.971,0.535,2.49,0.467c0.518-0.068,0.763-0.285,0.888-0.351
				c-0.035,0.145-0.656,1.022-1.247,1.295c-0.59,0.273-1.245,0.3-1.245,0.3s0.67-0.218,1.033-0.405
				c0.362-0.187,0.769-0.649,0.769-0.649s-0.947,0.521-2.408,0.201c-2.45-0.537-3.205-3.919-1.998-5.968
				c0.449-0.764,1.157-1.341,2.049-1.627c0.795-0.255,1.475-0.353,2.443-0.098c0.967,0.255,1.839,0.884,2.603,1.487
				c0.726,0.573,1.613,1.813,2.942,1.827l0.011,0.021c0.141-0.302,0.442-0.514,0.797-0.514c0.488,0,0.883,0.396,0.883,0.883
				c0,0.353-0.21,0.653-0.509,0.794c0.024,1.321,1.255,2.204,1.825,2.927c0.603,0.765,1.232,1.637,1.487,2.604
				C23.855,236.856,23.757,237.536,23.502,238.331 M21.062,229.547c0-0.157-0.032-0.308-0.088-0.444l6.142-0.262v1.413l-6.142-0.263
				C21.03,229.854,21.062,229.704,21.062,229.547 M27.426,228.793v1.489l1.587,0.541l0.832-0.702l0.496,0.592
				c0.18,0.215,0.438,0.095,0.519-0.241l0.102-0.421l0.503,0.516l1.32-0.246l-0.932-0.688c-0.046-0.035-0.046-0.157,0-0.192
				l0.932-0.689l-1.32-0.245l-0.503,0.516L30.86,228.6c-0.081-0.336-0.339-0.455-0.519-0.241l-0.496,0.591l-0.832-0.702
				L27.426,228.793z M33.961,230.298h-0.654c-0.039-0.048-1.014-0.763-1.014-0.763s0.971-0.723,1.012-0.761h0.656l1.129,0.761
				L33.961,230.298z M33.509,228.063l2.083,1.375c0.024,0.017,0.04,0.054,0.04,0.097c0,0.042-0.016,0.08-0.04,0.098l-2.083,1.376
				c-0.091,0.065-0.05,0.285,0.049,0.261c0.783-0.195,2.228-0.676,3.293-1.734c-1.065-1.058-2.51-1.539-3.293-1.733
				C33.459,227.776,33.418,227.996,33.509,228.063 M19.914,228.387c0.157,0,0.307,0.032,0.445,0.089l0.262-6.143h-1.414l0.262,6.143
				C19.606,228.419,19.756,228.387,19.914,228.387 M20.667,222.023h-1.489l-0.541-1.587l0.702-0.832l-0.591-0.496
				c-0.215-0.18-0.095-0.438,0.241-0.519l0.421-0.103l-0.516-0.503l0.246-1.32l0.689,0.932c0.036,0.047,0.157,0.047,0.192,0
				l0.689-0.932l0.246,1.32l-0.516,0.503l0.421,0.103c0.336,0.081,0.455,0.339,0.241,0.519l-0.591,0.496l0.702,0.832L20.667,222.023
				z M19.163,215.488v0.654c0.047,0.039,0.762,1.014,0.762,1.014s0.723-0.971,0.761-1.012v-0.656l-0.761-1.129L19.163,215.488z
				 M21.397,215.94l-1.375-2.083c-0.017-0.024-0.054-0.04-0.097-0.04c-0.042,0-0.08,0.016-0.097,0.04l-1.376,2.083
				c-0.066,0.091-0.286,0.05-0.26-0.049c0.194-0.783,0.675-2.229,1.733-3.293c1.058,1.064,1.539,2.51,1.734,3.293
				C21.684,215.99,21.464,216.031,21.397,215.94"/>
			<path d="M155.081,11.118c0.286-0.892,0.862-1.6,1.627-2.049c2.048-1.207,5.43-0.452,5.967,1.998
				c0.32,1.461-0.201,2.408-0.201,2.408s0.463-0.407,0.65-0.769c0.187-0.363,0.404-1.033,0.404-1.033s-0.026,0.655-0.3,1.245
				c-0.271,0.591-1.149,1.212-1.295,1.247c0.066-0.125,0.282-0.369,0.352-0.888c0.067-0.519,0.165-1.585-0.468-2.49
				c-0.631-0.905-1.984-1.804-3.499-1.395c-1.514,0.409-2.204,1.692-2.222,2.83c-0.017,1.138,0.116,2.032,1.453,3.801
				c1.112,1.471,1.537,1.503,1.545,3.084l-0.021,0.014c0.162,0.09,0.302,0.214,0.384,0.382l0.018-0.026
				c1.581,0.007,1.613,0.433,3.084,1.545c1.77,1.337,2.663,1.47,3.801,1.453c1.139-0.017,2.422-0.708,2.83-2.222
				c0.409-1.514-0.489-2.868-1.395-3.499c-0.905-0.632-1.971-0.535-2.49-0.467c-0.518,0.069-0.763,0.285-0.888,0.351
				c0.035-0.145,0.656-1.023,1.247-1.295c0.59-0.273,1.245-0.3,1.245-0.3s-0.67,0.218-1.033,0.405c-0.362,0.187-0.77,0.65-0.77,0.65
				s0.947-0.521,2.408-0.201c2.45,0.537,3.205,3.919,1.998,5.967c-0.449,0.764-1.157,1.341-2.049,1.627
				c-0.795,0.255-1.475,0.353-2.443,0.098c-0.967-0.255-1.839-0.884-2.603-1.487c-0.727-0.573-1.613-1.813-2.942-1.827l-0.011-0.021
				c-0.141,0.302-0.442,0.514-0.797,0.514c-0.488,0-0.883-0.396-0.883-0.883c0-0.353,0.21-0.653,0.509-0.794
				c-0.024-1.321-1.255-2.204-1.825-2.927c-0.603-0.764-1.231-1.636-1.487-2.603C154.728,12.593,154.826,11.913,155.081,11.118
				 M157.521,19.903c0,0.157,0.032,0.307,0.088,0.444l-6.142,0.262v-1.413l6.142,0.262
				C157.553,19.595,157.521,19.745,157.521,19.903 M151.157,20.656v-1.489l-1.588-0.541l-0.831,0.702l-0.496-0.591
				c-0.181-0.215-0.438-0.095-0.52,0.241l-0.102,0.421l-0.503-0.516l-1.32,0.246l0.932,0.689c0.046,0.035,0.046,0.157,0,0.192
				l-0.932,0.689l1.32,0.246l0.503-0.516l0.102,0.421c0.081,0.336,0.339,0.455,0.52,0.241l0.496-0.591l0.831,0.702L151.157,20.656z
				 M144.622,19.152h0.653c0.039,0.047,1.015,0.762,1.015,0.762s-0.972,0.723-1.013,0.761h-0.655l-1.129-0.761L144.622,19.152z
				 M145.074,21.386l-2.083-1.375c-0.024-0.017-0.04-0.054-0.04-0.097c0-0.042,0.016-0.08,0.04-0.097l2.083-1.376
				c0.091-0.066,0.05-0.286-0.05-0.261c-0.782,0.195-2.228,0.676-3.293,1.734c1.065,1.058,2.511,1.539,3.293,1.734
				C145.124,21.673,145.165,21.453,145.074,21.386 M158.669,21.063c-0.157,0-0.308-0.033-0.445-0.089l-0.262,6.142h1.414
				l-0.262-6.142C158.977,21.03,158.827,21.063,158.669,21.063 M157.916,27.426h1.489l0.54,1.587l-0.701,0.832l0.591,0.496
				c0.215,0.18,0.095,0.438-0.241,0.519l-0.421,0.102l0.516,0.503l-0.246,1.32l-0.688-0.931c-0.036-0.047-0.157-0.047-0.192,0
				l-0.688,0.931l-0.246-1.32l0.516-0.503l-0.421-0.102c-0.336-0.081-0.455-0.339-0.241-0.519l0.592-0.496l-0.702-0.832
				L157.916,27.426z M159.42,33.961v-0.654c-0.047-0.039-0.762-1.014-0.762-1.014s-0.724,0.971-0.762,1.012v0.656l0.762,1.129
				L159.42,33.961z M157.186,33.509l1.375,2.083c0.018,0.024,0.055,0.04,0.098,0.04c0.042,0,0.08-0.016,0.097-0.04l1.376-2.083
				c0.066-0.091,0.286-0.05,0.26,0.049c-0.193,0.783-0.675,2.228-1.732,3.293c-1.059-1.065-1.539-2.51-1.734-3.293
				C156.898,33.459,157.119,33.418,157.186,33.509"/>
			<path d="M155.081,238.331c0.286,0.893,0.862,1.601,1.627,2.05c2.048,1.207,5.43,0.451,5.967-1.998
				c0.32-1.461-0.201-2.408-0.201-2.408s0.463,0.407,0.65,0.769c0.187,0.363,0.404,1.033,0.404,1.033s-0.026-0.655-0.3-1.245
				c-0.271-0.591-1.149-1.212-1.295-1.247c0.066,0.125,0.282,0.369,0.352,0.889c0.067,0.519,0.165,1.585-0.468,2.489
				c-0.631,0.905-1.984,1.805-3.499,1.396c-1.514-0.409-2.204-1.692-2.222-2.83c-0.017-1.138,0.116-2.032,1.453-3.801
				c1.112-1.472,1.537-1.503,1.545-3.084l-0.021-0.015c0.162-0.09,0.302-0.214,0.384-0.382l0.018,0.026
				c1.581-0.007,1.613-0.434,3.084-1.545c1.77-1.337,2.663-1.471,3.801-1.453c1.139,0.017,2.422,0.708,2.83,2.222
				c0.409,1.514-0.489,2.868-1.395,3.499c-0.905,0.632-1.971,0.535-2.49,0.467c-0.518-0.068-0.763-0.285-0.888-0.351
				c0.035,0.145,0.656,1.022,1.247,1.295c0.59,0.273,1.245,0.3,1.245,0.3s-0.67-0.218-1.033-0.405
				c-0.362-0.187-0.77-0.649-0.77-0.649s0.947,0.521,2.408,0.201c2.45-0.537,3.205-3.919,1.998-5.968
				c-0.449-0.764-1.157-1.341-2.049-1.627c-0.795-0.255-1.475-0.353-2.443-0.098c-0.967,0.255-1.839,0.884-2.603,1.487
				c-0.727,0.573-1.613,1.813-2.942,1.827l-0.011,0.021c-0.141-0.302-0.442-0.514-0.797-0.514c-0.488,0-0.883,0.396-0.883,0.883
				c0,0.353,0.21,0.653,0.509,0.794c-0.024,1.321-1.255,2.204-1.825,2.927c-0.603,0.765-1.231,1.637-1.487,2.604
				C154.728,236.856,154.826,237.536,155.081,238.331 M157.521,229.547c0-0.157,0.032-0.308,0.088-0.444l-6.142-0.262v1.413
				l6.142-0.263C157.553,229.854,157.521,229.704,157.521,229.547 M151.157,228.793v1.489l-1.588,0.541l-0.831-0.702l-0.496,0.592
				c-0.181,0.215-0.438,0.095-0.52-0.241l-0.102-0.421l-0.503,0.516l-1.32-0.246l0.932-0.688c0.046-0.035,0.046-0.157,0-0.192
				l-0.932-0.689l1.32-0.245l0.503,0.516l0.102-0.421c0.081-0.336,0.339-0.455,0.52-0.241l0.496,0.591l0.831-0.702L151.157,228.793z
				 M144.622,230.298h0.653c0.039-0.048,1.015-0.763,1.015-0.763s-0.972-0.723-1.013-0.761h-0.655l-1.129,0.761L144.622,230.298z
				 M145.074,228.063l-2.083,1.375c-0.024,0.017-0.04,0.054-0.04,0.097c0,0.042,0.016,0.08,0.04,0.098l2.083,1.376
				c0.091,0.065,0.05,0.285-0.05,0.261c-0.782-0.195-2.228-0.676-3.293-1.734c1.065-1.058,2.511-1.539,3.293-1.733
				C145.124,227.776,145.165,227.996,145.074,228.063 M158.669,228.387c-0.157,0-0.308,0.032-0.445,0.089l-0.262-6.143h1.414
				l-0.262,6.143C158.977,228.419,158.827,228.387,158.669,228.387 M157.916,222.023h1.489l0.54-1.587l-0.701-0.832l0.591-0.496
				c0.215-0.18,0.095-0.438-0.241-0.519l-0.421-0.103l0.516-0.503l-0.246-1.32l-0.688,0.932c-0.036,0.047-0.157,0.047-0.192,0
				l-0.688-0.932l-0.246,1.32l0.516,0.503l-0.421,0.103c-0.336,0.081-0.455,0.339-0.241,0.519l0.592,0.496l-0.702,0.832
				L157.916,222.023z M159.42,215.488v0.654c-0.047,0.039-0.762,1.014-0.762,1.014s-0.724-0.971-0.762-1.012v-0.656l0.762-1.129
				L159.42,215.488z M157.186,215.94l1.375-2.083c0.018-0.024,0.055-0.04,0.098-0.04c0.042,0,0.08,0.016,0.097,0.04l1.376,2.083
				c0.066,0.091,0.286,0.05,0.26-0.049c-0.193-0.783-0.675-2.229-1.732-3.293c-1.059,1.064-1.539,2.51-1.734,3.293
				C156.898,215.99,157.119,216.031,157.186,215.94"/>
		</g>
	</g>
	<path fill="#159A34" d="M98.521,146.813c0-3.825-3.108-6.938-6.931-6.938c-1.921,0-3.484,1.563-3.484,3.486
		c0,9.117-4.746,17.394-12.217,22.065l-4.194,2.623c-6.994,4.377-11.17,11.919-11.17,20.177c0,11.437,9.296,20.742,20.721,20.742
		h13.021c-2.288-2.698-1.909-6.761,0.893-8.989c-4.11-2.29-4.747-7.888-1.315-11.053c-2.201-0.802-3.878-2.704-4.369-5.037
		c-3.789,3.493-8.745,5.451-13.975,5.451h-2.297c-0.616,0-1.114-0.5-1.114-1.114c0-0.615,0.498-1.114,1.114-1.114H75.5
		c5.465,0,10.594-2.397,14.109-6.585c0.549-1.853,1.848-3.349,3.476-4.174c-4.343-3.444-3.023-10.32,2.231-11.944
		C97.994,157.988,98.521,152.818,98.521,146.813z M115.759,170.971c0,2.557-2.077,4.639-4.632,4.639h-13.79
		c-2.555,0-4.633-2.082-4.633-4.639s2.078-4.637,4.633-4.637h13.79C113.682,166.334,115.759,168.414,115.759,170.971
		 M113.426,177.837H96.187c-2.555,0-4.633,2.08-4.633,4.638c0,2.557,2.078,4.638,4.633,4.638h17.239
		c2.555,0,4.633-2.081,4.633-4.638C118.059,179.917,115.98,177.837,113.426,177.837 M115.759,193.979
		c0,2.557-2.077,4.638-4.632,4.638H98.484c-2.554,0-4.633-2.081-4.633-4.638c0-2.558,2.079-4.638,4.633-4.638h12.643
		C113.682,189.341,115.759,191.421,115.759,193.979 M113.462,204.907c0-2.24-1.82-4.063-4.059-4.063H99.06
		c-2.237,0-4.058,1.822-4.058,4.063c0,2.239,1.82,4.062,4.058,4.062h10.344C111.642,208.969,113.462,207.146,113.462,204.907
		 M104.944,123.153c-1.222-0.708-2.791-0.287-3.502,0.938l-2.733,4.735c-0.705,1.224-0.284,2.793,0.943,3.501
		c0.398,0.232,0.842,0.344,1.273,0.344c0.887,0,1.751-0.461,2.222-1.282l2.734-4.734
		C106.587,125.427,106.167,123.861,104.944,123.153 M86.75,128.826l-2.733-4.735c-0.711-1.225-2.28-1.646-3.502-0.938
		c-1.225,0.708-1.645,2.274-0.938,3.501l2.734,4.734c0.472,0.821,1.336,1.282,2.223,1.282c0.432,0,0.875-0.111,1.273-0.344
		C87.035,131.619,87.455,130.05,86.75,128.826 M76.329,141.748h-5.465c-1.415,0-2.564,1.145-2.564,2.56
		c0,1.416,1.149,2.564,2.564,2.564h5.465c1.415,0,2.563-1.148,2.563-2.564C78.892,142.893,77.744,141.748,76.329,141.748
		 M114.596,141.748h-5.462c-1.421,0-2.57,1.145-2.57,2.56c0,1.416,1.149,2.564,2.57,2.564h5.462c1.415,0,2.563-1.148,2.563-2.564
		C117.159,142.893,116.011,141.748,114.596,141.748"/>
	<path d="M88.148,52.833l4.88,4.875c12.237-12.251,25.931-18.853,36.368,2.14c-8.995-10.649-17.533-8.269-30.004,4.216l4.79,4.784
		c0.344,0.345,0.438,0.875,0.206,1.371c-0.078,0.163-0.182,0.313-0.31,0.442c-0.252,0.252-0.59,0.415-0.94,0.435l-19.657,3.688
		c-0.714,0.049-1.258-0.494-1.209-1.207l3.627-19.701c0.037-0.522,0.382-1.017,0.878-1.248
		C87.272,52.396,87.801,52.488,88.148,52.833 M83.417,32.348c1.278,3.87-0.831,8.057-4.701,9.335
		c-3.869,1.277-8.057-0.832-9.334-4.701c-1.278-3.87,0.831-8.058,4.701-9.335C77.954,26.37,82.141,28.479,83.417,32.348
		 M102.966,40.28c0.527,0.635,0.7,1.453,0.473,2.246c-0.225,0.787-0.801,1.387-1.579,1.643c-0.945,0.312-2.005,0.011-2.636-0.749
		c-3.231-3.896-7.865-6.465-12.862-7.169c0.249-1.543,0.141-3.165-0.381-4.748c-0.025-0.075-0.051-0.15-0.077-0.224
		C92.532,31.9,98.669,35.116,102.966,40.28 M73.238,25.085c-4.161,1.373-6.831,5.211-6.925,9.36
		c-5.347,4.212-8.963,10.216-10.196,16.943c-0.441,2.404,0.399,4.801,2.247,6.411c1.861,1.621,4.368,2.127,6.709,1.355
		c0.708-0.234,1.092-0.997,0.858-1.704c-0.234-0.708-0.996-1.092-1.704-0.858c-1.426,0.471-2.956,0.161-4.091-0.828
		c-1.122-0.977-1.633-2.431-1.365-3.888c1.017-5.547,3.825-10.549,7.977-14.274c0.023,0.075,0.047,0.15,0.072,0.225
		c0.516,1.565,1.381,2.919,2.48,4.004c-1.474,1.45-2.714,3.163-3.77,5.203c-0.343,0.662-0.084,1.476,0.578,1.818
		c0.662,0.343,1.476,0.084,1.818-0.577c0.994-1.919,2.162-3.496,3.561-4.804c2.381,1.327,5.288,1.694,8.075,0.774
		c2.767-0.913,4.875-2.916,6.004-5.376c4.495,0.522,8.687,2.784,11.581,6.273c1.355,1.633,3.536,2.257,5.558,1.59
		c1.615-0.533,2.859-1.828,3.328-3.463c0.289-1.008,0.261-2.063-0.06-3.032c-0.2-0.606-0.514-1.178-0.935-1.683
		c-5.139-6.175-12.653-9.833-20.666-10.071C81.829,25.205,77.398,23.711,73.238,25.085 M54.672,87.402
		c3.068-2.681,7.746-2.366,10.427,0.702c2.682,3.068,2.367,7.747-0.701,10.428c-3.068,2.682-7.746,2.367-10.428-0.702
		C51.289,94.762,51.604,90.084,54.672,87.402 M54.378,66.309c0.38-0.733,1.067-1.211,1.885-1.31c0.814-0.098,1.589,0.2,2.129,0.817
		c0.655,0.749,0.789,1.842,0.334,2.719c-2.333,4.492-2.898,9.761-1.603,14.637c-1.518,0.372-2.971,1.101-4.226,2.199
		c-0.06,0.052-0.119,0.104-0.176,0.157C50.715,79.18,51.292,72.276,54.378,66.309 M51.938,99.606
		c2.884,3.299,7.457,4.266,11.317,2.739c5.959,3.288,12.897,4.285,19.574,2.806c2.386-0.528,4.268-2.234,5.032-4.563
		c0.77-2.345,0.262-4.852-1.36-6.708c-0.491-0.561-1.343-0.618-1.904-0.128c-0.561,0.491-0.618,1.343-0.128,1.904
		c0.989,1.131,1.299,2.66,0.829,4.09c-0.465,1.415-1.605,2.45-3.052,2.771c-5.506,1.219-11.206,0.577-16.252-1.8
		c0.06-0.051,0.12-0.101,0.18-0.154c1.24-1.084,2.151-2.407,2.723-3.841c1.91,0.793,3.97,1.27,6.26,1.449
		c0.743,0.059,1.392-0.496,1.451-1.239c0.058-0.742-0.497-1.392-1.24-1.451c-2.153-0.169-4.061-0.632-5.81-1.412
		c0.297-2.71-0.496-5.531-2.427-7.741c-1.917-2.194-4.582-3.357-7.287-3.44c-1.268-4.344-0.813-9.086,1.276-13.11
		c0.978-1.883,0.704-4.135-0.696-5.738c-1.12-1.281-2.797-1.924-4.485-1.72c-1.041,0.126-2.002,0.563-2.77,1.235
		c-0.48,0.419-0.885,0.931-1.187,1.515c-3.691,7.135-4.139,15.481-1.243,22.954C48.709,91.645,49.056,96.307,51.938,99.606
		 M115.804,94.149c-3.48-2.119-4.589-6.674-2.469-10.155c2.118-3.481,6.675-4.589,10.154-2.47c3.481,2.119,4.589,6.675,2.47,10.156
		S119.284,96.268,115.804,94.149 M95.777,100.777c-0.814-0.141-1.476-0.652-1.816-1.403c-0.34-0.746-0.289-1.575,0.138-2.275
		c0.517-0.851,1.519-1.308,2.493-1.137c4.985,0.872,10.18-0.174,14.44-2.877c0.811,1.336,1.944,2.501,3.368,3.369
		c0.067,0.041,0.135,0.081,0.203,0.12C109.153,100.397,102.396,101.925,95.777,100.777 M128.264,93.083
		c2.277-3.743,1.825-8.395-0.793-11.616c1.342-6.673,0.204-13.589-3.216-19.511c-1.223-2.117-3.415-3.398-5.866-3.426
		c-2.468-0.029-4.706,1.211-5.988,3.316c-0.387,0.637-0.185,1.466,0.451,1.854c0.637,0.388,1.467,0.186,1.854-0.451
		c0.781-1.283,2.146-2.038,3.652-2.021c1.488,0.017,2.819,0.793,3.561,2.076c2.819,4.884,3.923,10.513,3.175,16.04
		c-0.066-0.042-0.132-0.084-0.2-0.125c-1.407-0.856-2.943-1.327-4.483-1.441c0.183-2.06,0.017-4.167-0.502-6.406
		c-0.168-0.726-0.892-1.178-1.618-1.01c-0.726,0.168-1.179,0.893-1.011,1.618c0.487,2.105,0.619,4.064,0.402,5.966
		c-2.674,0.533-5.125,2.138-6.651,4.644c-1.516,2.489-1.823,5.381-1.088,7.986c-3.762,2.515-8.42,3.509-12.886,2.728
		c-2.09-0.366-4.156,0.573-5.263,2.391c-0.885,1.453-0.993,3.246-0.29,4.794c0.434,0.956,1.14,1.74,2.011,2.27
		c0.545,0.332,1.154,0.564,1.803,0.677c7.914,1.372,16.009-0.713,22.264-5.724C121.644,98.558,125.985,96.825,128.264,93.083"/>
</g>
</svg>
