<?xml version="1.0" encoding="utf-8"?>
<!-- Generator: Adobe Illustrator 15.0.1, SVG Export Plug-In . SVG Version: 6.00 Build 0)  -->
<!DOCTYPE svg PUBLIC "-//W3C//DTD SVG 1.1//EN" "http://www.w3.org/Graphics/SVG/1.1/DTD/svg11.dtd">
<svg version="1.1" id="Layer_1" xmlns="http://www.w3.org/2000/svg" xmlns:xlink="http://www.w3.org/1999/xlink" x="0px" y="0px"
	 width="80px" height="80px" viewBox="0 0 80 80" enable-background="new 0 0 80 80" xml:space="preserve">
<path d="M79.396,22.241c-1.681-7.93-6.769-13.501-14.325-15.686C56.5,4.078,46.545,6.607,40.003,12.852
	c-6.541-6.245-16.497-8.774-25.067-6.296C7.379,8.74,2.292,14.311,0.61,22.241c-1.379,6.504-1.081,16.75,8.002,28.812l-3.601,3.601
	c-0.341,0.341-0.341,0.893,0,1.233l18.242,18.242c0.341,0.341,0.893,0.341,1.233,0l5.202-5.201c0.06,0.06,0.126,0.115,0.205,0.157
	c3.294,1.762,6.608,3.162,9.85,4.162c0.084,0.026,0.172,0.04,0.26,0.04c0.088,0,0.175-0.014,0.26-0.04
	c10.512-3.244,21.347-10.536,28.983-19.508C77.935,43.533,81.539,32.347,79.396,22.241z M23.871,72.279L6.862,55.271l7.255-7.256
	l2.079,2.079l12.852,12.853l2.078,2.078L23.871,72.279z M20.683,46.264c-1.247-5.478,0.376-11.117,4.344-15.084L35.5,20.707
	c0.548-0.548,1.44-0.548,1.989,0c1.437,1.437,1.437,3.775,0,5.211l-1.611,1.611l-5.639,5.64c-0.34,0.34-0.34,0.893,0,1.233
	s0.893,0.34,1.233,0l5.639-5.639l1.611-1.611l12.084-12.084c0.992-0.993,2.607-0.993,3.601,0c0.992,0.993,0.992,2.607,0,3.6
	l-0.806,0.806L42.323,30.752c-0.341,0.34-0.342,0.893,0,1.233c0.34,0.341,0.893,0.341,1.232,0l11.278-11.278l0.806-0.806
	l4.834-4.833c0.992-0.993,2.607-0.993,3.601,0c0.992,0.993,0.992,2.608,0,3.6l-3.223,3.223l-1.611,1.611L47.156,35.585
	c-0.34,0.34-0.341,0.893,0,1.233c0.341,0.34,0.893,0.34,1.233,0l12.084-12.084l1.611-1.611c0.993-0.993,2.607-0.993,3.601,0
	c0.993,0.993,0.992,2.607,0,3.601L51.99,40.419c-0.341,0.341-0.341,0.893,0,1.233s0.893,0.341,1.233,0l8.861-8.862
	c0.993-0.993,2.607-0.993,3.601,0c0.992,0.993,0.992,2.608,0,3.601L47.962,54.114c-3.967,3.967-9.605,5.591-15.083,4.345
	c-0.292-0.067-0.598,0.021-0.81,0.233l-2.404,2.404L18.046,49.478l2.403-2.403C20.662,46.862,20.75,46.556,20.683,46.264z
	 M67.904,52.596c-7.365,8.653-17.777,15.697-27.901,18.886c-2.974-0.937-6.012-2.226-9.04-3.828l2.013-2.013
	c0.34-0.341,0.34-0.893,0-1.233l-2.078-2.077l2.069-2.069c5.915,1.184,11.949-0.635,16.228-4.913l17.724-17.724
	c1.672-1.672,1.672-4.394,0-6.067c-0.675-0.674-1.521-1.072-2.398-1.202l2.398-2.398c1.672-1.672,1.672-4.394,0-6.067
	c-0.675-0.674-1.521-1.072-2.398-1.203l0.787-0.787c1.673-1.673,1.673-4.394,0-6.067c-1.673-1.672-4.395-1.672-6.067,0l-2.397,2.398
	c-0.131-0.878-0.528-1.724-1.203-2.398c-1.672-1.672-4.394-1.672-6.066,0L40.3,23.107c-0.05-1.321-0.572-2.627-1.578-3.633
	c-1.229-1.229-3.228-1.229-4.456,0L23.794,29.946c-4.279,4.279-6.097,10.313-4.913,16.229l-2.068,2.068l-2.079-2.079
	c-0.34-0.341-0.893-0.341-1.233,0l-3.628,3.628c-8.54-11.445-8.832-21.077-7.537-27.186c1.54-7.263,6.189-12.362,13.09-14.357
	c8.245-2.383,17.868,0.211,23.946,6.458c0.332,0.341,0.932,0.341,1.264,0c6.078-6.246,15.7-8.842,23.945-6.458
	c6.901,1.995,11.551,7.094,13.091,14.357C79.698,32.166,76.229,42.816,67.904,52.596z"/>
</svg>
