<?xml version="1.0" encoding="utf-8"?>
<!-- Generator: Adobe Illustrator 22.1.0, SVG Export Plug-In . SVG Version: 6.00 Build 0)  -->
<svg version="1.1" id="Layer_1" xmlns="http://www.w3.org/2000/svg" xmlns:xlink="http://www.w3.org/1999/xlink" x="0px" y="0px"
	 viewBox="0 0 100 100" style="enable-background:new 0 0 100 100;" xml:space="preserve">
<style type="text/css">
	.st0{fill:#ab8d3f;}
</style>
<path class="st0" d="M59.6,50c0,5.3-4.3,9.6-9.6,9.6s-9.6-4.3-9.6-9.6s4.3-9.6,9.6-9.6S59.6,44.7,59.6,50z M72.4,33.1
	c-0.5-1.2-1.2-2.4-2.1-3.3c-0.9-1-2.1-1.7-3.3-2.1c-1-0.4-2.5-0.9-5.3-1c-3-0.1-3.9-0.2-11.6-0.2c-7.7,0-8.6,0-11.6,0.2
	c-2.8,0.1-4.3,0.6-5.3,1c-1.2,0.5-2.4,1.2-3.3,2.1c-1,0.9-1.7,2.1-2.1,3.3c-0.4,1-0.9,2.5-1,5.3c-0.1,3-0.2,3.9-0.2,11.6
	c0,7.7,0,8.6,0.2,11.6c0.1,2.8,0.6,4.3,1,5.3c0.5,1.2,1.2,2.4,2.1,3.3c0.9,1,2.1,1.7,3.3,2.1c1,0.4,2.5,0.9,5.3,1
	c3,0.1,3.9,0.2,11.6,0.2c7.7,0,8.6,0,11.6-0.2c2.8-0.1,4.3-0.6,5.3-1c2.5-1,4.5-2.9,5.4-5.4c0.4-1,0.9-2.5,1-5.3
	c0.1-3,0.2-3.9,0.2-11.6c0-7.7,0-8.6-0.2-11.6C73.2,35.6,72.8,34.1,72.4,33.1z M50,64.7c-8.1,0-14.7-6.6-14.7-14.7
	S41.9,35.3,50,35.3c8.1,0,14.7,6.6,14.7,14.7S58.1,64.7,50,64.7z M65.3,38.1c-1.9,0-3.4-1.5-3.4-3.4s1.5-3.4,3.4-3.4
	s3.4,1.5,3.4,3.4C68.8,36.6,67.2,38.1,65.3,38.1z M50,0C22.4,0,0,22.4,0,50s22.4,50,50,50s50-22.4,50-50S77.6,0,50,0z M78.5,61.8
	c-0.1,3.1-0.6,5.1-1.3,7c-1.5,3.9-4.5,6.9-8.4,8.4c-1.8,0.7-3.9,1.2-7,1.3c-3.1,0.1-4,0.2-11.8,0.2c-7.8,0-8.8,0-11.8-0.2
	c-3.1-0.1-5.1-0.6-7-1.3c-1.9-0.7-3.7-1.9-5.1-3.3c-1.5-1.4-2.6-3.2-3.3-5.1c-0.7-1.8-1.2-3.9-1.3-7c-0.1-3.1-0.2-4-0.2-11.8
	s0-8.8,0.2-11.8c0.1-3.1,0.6-5.1,1.3-7c0.7-1.9,1.9-3.7,3.3-5.1c1.4-1.5,3.2-2.6,5.1-3.3c1.8-0.7,3.9-1.2,7-1.3
	c3.1-0.1,4-0.2,11.8-0.2s8.8,0,11.8,0.2c3.1,0.1,5.1,0.6,7,1.3c1.9,0.7,3.7,1.9,5.1,3.3c1.5,1.4,2.6,3.2,3.3,5.1
	c0.7,1.8,1.2,3.9,1.3,7c0.1,3.1,0.2,4,0.2,11.8S78.7,58.8,78.5,61.8z"/>
</svg>
