<?xml version="1.0" encoding="utf-8"?>
<!-- Generator: Adobe Illustrator 15.0.1, SVG Export Plug-In . SVG Version: 6.00 Build 0)  -->
<!DOCTYPE svg PUBLIC "-//W3C//DTD SVG 1.1//EN" "http://www.w3.org/Graphics/SVG/1.1/DTD/svg11.dtd">
<svg version="1.1" id="Layer_1" xmlns="http://www.w3.org/2000/svg" xmlns:xlink="http://www.w3.org/1999/xlink" x="0px" y="0px"
	 width="80px" height="80px" viewBox="0 0 80 80" enable-background="new 0 0 80 80" xml:space="preserve">
<path stroke="#FFFFFF" stroke-width="0.3" stroke-miterlimit="10" d="M40.001,69.334c-16.174,0-29.333-13.158-29.333-29.333
	c0-16.174,13.159-29.333,29.333-29.333c0.736,0,1.333,0.596,1.333,1.333s-0.597,1.333-1.333,1.333
	c-14.704,0-26.667,11.963-26.667,26.667c0,14.705,11.963,26.667,26.667,26.667c14.704,0,26.667-11.962,26.667-26.667
	c0-0.737,0.597-1.333,1.333-1.333s1.333,0.596,1.333,1.333C69.334,56.176,56.176,69.334,40.001,69.334z"/>
<path stroke="#FFFFFF" stroke-width="0.3" stroke-miterlimit="10" d="M40.001,58.667c-10.293,0-18.667-8.373-18.667-18.667
	c0-10.293,8.374-18.667,18.667-18.667c0.736,0,1.333,0.596,1.333,1.333S40.737,24,40.001,24c-8.823,0-16,7.178-16,16
	c0,8.823,7.177,16,16,16c8.823,0,16-7.178,16-16c0-0.737,0.598-1.333,1.333-1.333c0.736,0,1.334,0.596,1.334,1.333
	C58.668,50.294,50.295,58.667,40.001,58.667z"/>
<path stroke="#FFFFFF" stroke-width="0.3" stroke-miterlimit="10" d="M79.899,7.49c-0.206-0.499-0.693-0.823-1.231-0.823h-5.334
	V1.334c0-0.539-0.325-1.027-0.822-1.232c-0.5-0.208-1.072-0.093-1.453,0.29l-8,8c-0.251,0.249-0.391,0.588-0.391,0.942v6.115
	L44.63,33.487C43.321,32.555,41.727,32,40.001,32c-4.412,0-8,3.588-8,8c0,4.412,3.588,8,8,8s8-3.589,8-8
	c0-1.726-0.555-3.32-1.486-4.628l18.038-18.038h6.115c0.354,0,0.693-0.141,0.942-0.391l8-8C79.992,8.562,80.106,7.989,79.899,7.49z
	 M40.001,45.334c-2.941,0-5.333-2.392-5.333-5.333c0-2.941,2.392-5.333,5.333-5.333s5.333,2.392,5.333,5.333
	C45.334,42.942,42.942,45.334,40.001,45.334z M65.334,9.886l5.334-5.333v2.896l-5.334,5.333V9.886z M70.116,14.667H67.22
	l5.333-5.333h2.896L70.116,14.667z"/>
<path stroke="#FFFFFF" stroke-width="0.3" stroke-miterlimit="10" d="M40.001,80c-22.056,0-40-17.943-40-40
	c0-22.056,17.944-40,40-40c0.736,0,1.333,0.596,1.333,1.333s-0.597,1.333-1.333,1.333C19.416,2.667,2.668,19.416,2.668,40
	c0,20.585,16.748,37.333,37.333,37.333c20.585,0,37.333-16.748,37.333-37.333c0-0.737,0.598-1.333,1.334-1.333
	c0.735,0,1.333,0.596,1.333,1.333C80.001,62.057,62.057,80,40.001,80z"/>
</svg>
