<?xml version="1.0" encoding="utf-8"?>
<!-- Generator: Adobe Illustrator 15.0.1, SVG Export Plug-In . SVG Version: 6.00 Build 0)  -->
<!DOCTYPE svg PUBLIC "-//W3C//DTD SVG 1.1//EN" "http://www.w3.org/Graphics/SVG/1.1/DTD/svg11.dtd">
<svg version="1.1" id="Layer_1" xmlns="http://www.w3.org/2000/svg" xmlns:xlink="http://www.w3.org/1999/xlink" x="0px" y="0px"
	 width="80px" height="80px" viewBox="0 0 80 80" enable-background="new 0 0 80 80" xml:space="preserve">
<g>
	<g>
		<path d="M7.644,79.7c-0.234,0-0.453-0.091-0.616-0.256c-0.166-0.165-0.256-0.384-0.256-0.616s0.091-0.451,0.255-0.616
			l15.531-15.531c0.165-0.165,0.384-0.256,0.616-0.256s0.452,0.091,0.616,0.256c0.165,0.165,0.256,0.384,0.256,0.616
			c0,0.232-0.09,0.451-0.254,0.616L8.261,79.444C8.097,79.609,7.878,79.7,7.644,79.7z M28.353,74.522
			c-0.232,0-0.452-0.091-0.617-0.256c-0.165-0.165-0.255-0.384-0.255-0.616s0.091-0.451,0.255-0.616L38.09,62.681
			c0.165-0.165,0.384-0.256,0.616-0.256c0.233,0,0.452,0.091,0.617,0.256c0.165,0.165,0.256,0.384,0.256,0.616
			s-0.09,0.451-0.254,0.615L28.97,74.267C28.805,74.432,28.586,74.522,28.353,74.522z M59.415,66.759c-0.2,0-0.397-0.071-0.555-0.2
			L41.813,52.522L31.551,62.626c-0.076,0.065-0.106,0.09-0.137,0.109c-0.037,0.023-0.07,0.041-0.104,0.057
			c-0.085,0.039-0.157,0.06-0.233,0.072c-0.062,0.009-0.1,0.014-0.138,0.014c-0.04,0-0.08-0.006-0.119-0.01
			c-0.061-0.011-0.102-0.02-0.144-0.033c-0.052-0.017-0.09-0.032-0.126-0.052c-0.046-0.023-0.082-0.045-0.117-0.07
			c-0.055-0.04-0.085-0.067-0.114-0.097c-0.032-0.031-0.057-0.063-0.081-0.096c-0.038-0.055-0.061-0.09-0.08-0.128
			c-0.023-0.05-0.037-0.086-0.049-0.123c-0.016-0.052-0.025-0.093-0.031-0.135l-2.527-18.948L4.701,33.032
			c-0.314-0.14-0.518-0.453-0.518-0.797s0.204-0.657,0.518-0.796l13.707-6.093l-0.013-0.03l6.745-2.973l0.004,0.009l49.45-21.979
			c0.039-0.015,0.071-0.027,0.104-0.038c0.047-0.013,0.135-0.025,0.135-0.025l0.122-0.011c0.036,0,0.108,0.008,0.108,0.008
			l0.111,0.023c0.047,0.013,0.079,0.024,0.109,0.038l0.113,0.059c0.043,0.025,0.07,0.045,0.098,0.068l0.082,0.077
			c0.047,0.05,0.067,0.078,0.087,0.106l0.064,0.111c0.018,0.036,0.031,0.066,0.041,0.098l0.032,0.118
			c0.009,0.048,0.014,0.083,0.015,0.117L75.812,1.29C75.81,1.301,60.263,66.089,60.263,66.089c-0.069,0.29-0.287,0.528-0.57,0.622
			C59.601,66.742,59.506,66.759,59.415,66.759z M38.632,47.641l20.26,16.686l14.301-59.59L38.632,47.641z M29.278,42.933
			l2.126,15.945l5.217-11.479l0.07-0.121l0.055-0.076l30.95-38.417L29.278,42.933z M33.681,58.082l6.781-6.677l-2.726-2.245
			L33.681,58.082z M20.008,26.535l-0.048,0.04L7.201,32.234l20.992,9.33L70.175,4.247L27.22,23.337l0.007,0.016L20.008,26.535z
			 M12.902,61.579c-0.233,0-0.453-0.091-0.617-0.255c-0.339-0.34-0.339-0.894,0-1.233l10.273-10.273
			c0.165-0.164,0.383-0.255,0.616-0.255s0.452,0.091,0.617,0.255c0.34,0.34,0.34,0.894,0,1.234L13.519,61.325
			C13.355,61.488,13.136,61.579,12.902,61.579z"/>
	</g>
</g>
</svg>
